{"glyphs":{"0":{"ha":972,"x_min":0,"x_max":0,"o":"m 486 -28 b 56 354 222 -28 56 139 l 56 618 b 486 1000 56 833 222 1000 b 917 618 750 1000 917 833 l 917 354 b 486 -28 917 139 750 -28 m 486 208 b 604 354 549 208 604 264 l 604 618 b 486 764 604 708 549 764 b 368 618 424 764 368 708 l 368 354 b 486 208 368 264 424 208 "},"1":{"ha":674,"x_min":0,"x_max":0,"o":"m 431 -14 b 278 125 333 -14 278 42 l 278 528 l 264 528 b 125 458 264 528 208 458 b 0 583 56 458 0 514 b 56 694 0 639 56 694 l 278 924 b 431 986 278 924 333 986 b 583 847 528 986 583 931 l 583 125 b 431 -14 583 42 528 -14 "},"2":{"ha":875,"x_min":0,"x_max":0,"o":"m 181 0 b 14 153 83 0 14 69 b 528 660 14 500 528 528 b 417 736 528 701 493 736 b 188 639 313 736 299 639 b 35 763 83 639 35 686 b 417 1000 35 874 174 1000 b 847 660 694 1000 847 847 b 431 292 847 417 583 389 l 431 278 l 694 278 b 847 139 792 278 847 222 b 694 0 847 57 792 0 l 181 0 "},"3":{"ha":889,"x_min":0,"x_max":0,"o":"m 417 -28 b 14 207 153 -28 14 111 b 167 333 14 285 63 333 b 417 236 278 333 292 236 b 542 313 507 236 542 271 b 431 389 542 354 507 389 l 306 389 b 194 486 236 389 194 431 b 264 590 194 549 264 590 l 403 681 l 403 694 l 201 694 b 49 833 104 694 49 750 b 201 972 49 917 104 972 l 681 972 b 833 833 778 972 833 917 b 750 694 833 750 750 694 l 583 583 l 583 569 b 861 299 583 569 861 542 b 417 -28 861 125 708 -28 "},"4":{"ha":972,"x_min":0,"x_max":0,"o":"m 667 -14 b 514 125 569 -14 514 42 l 514 208 l 167 208 b 14 347 69 208 14 264 b 69 486 14 417 69 486 l 319 818 b 625 1000 404 931 472 1000 b 819 819 736 1000 819 917 l 819 486 b 958 347 903 486 958 431 b 819 208 958 264 903 208 l 819 125 b 667 -14 819 42 764 -14 m 514 486 l 514 653 l 500 653 l 382 500 l 382 486 "},"5":{"ha":889,"x_min":0,"x_max":0,"o":"m 431 -28 b 28 207 167 -28 28 111 b 181 333 28 292 83 333 b 431 236 292 333 306 236 b 549 319 507 236 549 278 b 438 403 549 361 507 403 b 229 375 340 403 326 375 b 76 514 132 375 76 431 l 76 847 b 201 972 76 931 118 972 l 674 972 b 826 833 771 972 826 917 b 674 694 826 750 771 694 l 382 694 l 382 611 b 521 625 382 611 451 625 b 868 319 729 625 868 486 b 431 -28 868 125 715 -28 "},"6":{"ha":924,"x_min":0,"x_max":0,"o":"m 486 -28 b 56 333 215 -28 56 132 l 56 632 b 486 1000 56 847 208 1000 b 868 763 729 1000 868 874 b 715 639 868 686 819 639 b 486 736 604 639 590 736 b 375 632 417 736 375 693 l 375 611 b 514 625 375 611 431 625 b 903 306 764 625 903 486 b 486 -28 903 111 764 -28 m 486 222 b 583 306 542 222 583 264 b 458 389 583 347 542 389 b 375 375 417 389 375 375 l 375 335 b 486 222 375 271 424 222 "},"7":{"ha":826,"x_min":0,"x_max":0,"o":"m 354 -14 b 194 111 264 -14 194 49 b 222 222 194 167 222 222 l 444 681 l 444 694 l 153 694 b 0 833 56 694 0 750 b 153 972 0 917 56 972 l 674 972 b 826 833 771 972 826 917 b 792 694 826 764 792 694 l 507 97 b 354 -14 479 35 431 -14 "},"8":{"ha":931,"x_min":0,"x_max":0,"o":"m 465 -28 b 21 278 160 -28 21 111 b 215 528 21 472 215 528 l 215 542 b 76 736 215 542 76 597 b 465 1000 76 875 201 1000 b 854 736 729 1000 854 875 b 715 542 854 597 715 542 l 715 528 b 910 278 715 528 910 472 b 465 -28 910 111 771 -28 m 465 208 b 590 306 542 208 590 257 b 465 417 590 347 549 389 b 340 306 382 389 340 347 b 465 208 340 257 389 208 m 465 625 b 535 708 507 639 535 667 b 465 771 535 743 507 771 b 396 708 424 771 396 743 b 465 625 396 667 424 639 "},"9":{"ha":924,"x_min":0,"x_max":0,"o":"m 438 -28 b 56 210 194 -28 56 99 b 208 333 56 286 104 333 b 438 236 319 333 333 236 b 549 340 507 236 549 279 l 549 361 b 410 347 549 361 493 347 b 21 667 160 347 21 486 b 438 1000 21 861 160 1000 b 868 639 708 1000 868 840 l 868 340 b 438 -28 868 125 715 -28 m 465 583 b 549 597 507 583 549 597 l 549 638 b 438 750 549 701 500 750 b 340 667 382 750 340 708 b 465 583 340 625 382 583 "},"\u0000":{"ha":0,"x_min":0,"x_max":0,"o":""},"\r":{"ha":0,"x_min":0,"x_max":0,"o":""}," ":{"ha":389,"x_min":0,"x_max":0,"o":""},"!":{"ha":431,"x_min":0,"x_max":0,"o":"m 215 -14 b 56 132 118 -14 56 49 b 215 278 56 215 118 278 b 375 132 313 278 375 215 b 215 -14 375 49 313 -14 m 215 333 b 76 472 132 333 83 382 l 49 847 b 215 1000 49 931 118 1000 b 382 847 313 1000 382 931 l 354 472 b 215 333 347 382 299 333 "},"\"":{"ha":639,"x_min":0,"x_max":0,"o":"m 160 556 b 63 632 104 556 69 590 l 28 861 b 160 986 28 931 83 986 b 292 861 236 986 292 931 l 257 632 b 160 556 250 590 215 556 m 479 556 b 382 632 424 556 389 590 l 347 861 b 479 986 347 931 403 986 b 611 861 556 986 611 931 l 576 632 b 479 556 569 590 535 556 "},"#":{"ha":1083,"x_min":0,"x_max":0,"o":"m 236 -14 b 104 104 160 -14 104 42 b 118 181 104 139 118 181 l 132 222 l 111 222 b 0 333 49 222 0 271 b 111 444 0 396 49 444 l 194 444 l 215 528 l 201 528 b 90 639 139 528 90 576 b 201 750 90 701 139 750 l 285 750 l 313 854 b 472 986 335 938 382 986 b 604 868 549 986 604 931 b 590 792 604 833 590 792 l 576 750 l 660 750 l 688 854 b 847 986 710 938 757 986 b 979 868 924 986 979 931 b 965 792 979 833 965 792 l 951 750 l 972 750 b 1083 639 1035 750 1083 701 b 972 528 1083 576 1035 528 l 889 528 l 861 444 l 882 444 b 993 333 944 444 993 396 b 882 222 993 271 944 222 l 799 222 l 771 118 b 611 -14 749 35 701 -14 b 479 104 535 -14 479 42 b 493 181 479 139 493 181 l 507 222 l 424 222 l 396 118 b 236 -14 374 35 326 -14 m 583 424 l 618 549 l 493 549 l 458 424 "},"$":{"ha":896,"x_min":0,"x_max":0,"o":"m 451 -153 b 299 -14 354 -153 299 -97 b 21 208 118 14 21 111 b 174 333 21 285 69 333 b 417 236 285 333 299 236 b 556 306 521 236 556 271 b 42 681 556 389 42 347 b 299 979 42 833 153 944 l 299 986 b 451 1125 299 1069 354 1125 b 604 986 549 1125 604 1069 b 840 764 729 958 840 847 b 688 639 840 688 792 639 b 458 736 576 639 563 736 b 361 681 389 736 361 708 b 875 306 361 583 875 625 b 604 -7 875 139 764 28 l 604 -14 b 451 -153 604 -97 549 -153 "},"%":{"ha":1229,"x_min":0,"x_max":0,"o":"m 333 -14 b 222 97 271 -14 222 35 b 257 201 222 153 257 201 l 764 917 b 896 986 764 917 806 986 b 1007 875 958 986 1007 938 b 972 771 1007 819 972 771 l 465 56 b 333 -14 465 56 424 -14 m 965 -14 b 715 201 813 -14 715 83 l 715 264 b 965 479 715 383 813 479 b 1215 264 1118 479 1215 382 l 1215 201 b 965 -14 1215 83 1118 -14 m 965 160 b 1007 201 986 160 1007 181 l 1007 264 b 965 306 1007 285 986 306 b 924 264 944 306 924 285 l 924 201 b 965 160 924 181 944 160 m 264 493 b 14 708 111 493 14 590 l 14 771 b 264 986 14 890 111 986 b 514 771 417 986 514 889 l 514 708 b 264 493 514 590 417 493 m 264 667 b 306 708 285 667 306 688 l 306 771 b 264 813 306 792 285 813 b 222 771 243 813 222 792 l 222 708 b 264 667 222 688 243 667 "},"&":{"ha":1056,"x_min":0,"x_max":0,"o":"m 375 -28 b 14 250 153 -28 14 111 b 222 514 14 444 222 514 l 222 528 b 118 722 222 528 118 583 b 474 1000 118 861 257 1000 b 826 722 688 1000 826 861 b 667 514 826 569 667 514 l 667 500 l 715 458 b 847 528 715 458 771 528 b 986 389 931 528 986 472 b 938 297 986 347 938 297 l 938 283 b 1042 125 986 250 1042 194 b 903 -14 1042 49 979 -14 b 722 83 819 -14 764 42 l 708 83 b 375 -28 708 83 625 -28 m 417 222 b 500 264 472 222 500 264 b 396 354 500 264 396 354 b 333 278 396 354 333 333 b 417 222 333 250 361 222 m 472 639 b 535 708 472 639 535 667 b 472 764 535 736 507 764 b 410 708 438 764 410 736 b 472 639 410 667 472 639 "},"'":{"ha":319,"x_min":0,"x_max":0,"o":"m 160 556 b 63 632 104 556 69 590 l 28 861 b 160 986 28 931 83 986 b 292 861 236 986 292 931 l 257 632 b 160 556 250 590 215 556 "},"(":{"ha":604,"x_min":0,"x_max":0,"o":"m 479 -306 b 49 396 313 -306 49 -42 b 479 1097 49 833 313 1097 b 604 972 549 1097 604 1042 b 368 396 604 847 368 764 b 604 -181 368 28 604 -56 b 479 -306 604 -250 549 -306 "},")":{"ha":604,"x_min":0,"x_max":0,"o":"m 125 -306 b 0 -181 56 -306 0 -250 b 236 396 0 -56 236 28 b 0 972 236 764 0 847 b 125 1097 0 1042 56 1097 b 556 396 292 1097 556 833 b 125 -306 556 -42 292 -306 "},"*":{"ha":628,"x_min":0,"x_max":0,"o":"m 119 410 b 92 549 71 436 57 500 b 203 639 126 597 203 639 l 203 646 b 64 646 203 646 99 631 b 8 778 15 667 -12 722 b 126 840 29 833 85 853 b 238 771 175 826 238 771 l 244 778 b 210 903 244 779 210 847 b 314 1000 210 958 251 1000 b 418 903 376 1000 418 958 b 383 778 418 847 383 779 l 390 771 b 501 840 390 771 453 826 b 619 778 543 853 599 833 b 564 646 640 722 613 667 b 425 646 529 631 425 646 l 425 639 b 536 549 425 639 501 597 b 508 410 571 500 557 436 b 369 438 453 381 397 396 b 317 549 350 465 317 549 l 311 549 b 258 438 311 549 278 467 b 119 410 231 396 175 381 "},"+":{"ha":792,"x_min":0,"x_max":0,"o":"m 396 90 b 271 229 326 90 271 146 l 271 347 l 153 347 b 14 472 69 347 14 403 b 153 597 14 542 69 597 l 271 597 l 271 715 b 396 854 271 799 326 854 b 521 715 465 854 521 799 l 521 597 l 639 597 b 778 472 722 597 778 542 b 639 347 778 403 722 347 l 521 347 l 521 229 b 396 90 521 146 465 90 "},",":{"ha":354,"x_min":0,"x_max":0,"o":"m 76 -167 b 21 -118 42 -167 21 -146 b 132 0 21 -56 118 -69 b 14 132 69 0 14 56 b 174 278 14 215 76 278 b 326 90 257 278 326 208 b 76 -167 326 -49 208 -167 "},"-":{"ha":722,"x_min":0,"x_max":0,"o":"m 153 347 b 14 472 69 347 14 403 b 153 597 14 542 69 597 l 569 597 b 708 472 653 597 708 542 b 569 347 708 403 653 347 l 153 347 "},".":{"ha":375,"x_min":0,"x_max":0,"o":"m 188 -14 b 28 132 90 -14 28 49 b 188 278 28 215 90 278 b 347 132 285 278 347 215 b 188 -14 347 49 285 -14 "},"/":{"ha":778,"x_min":0,"x_max":0,"o":"m 167 -69 b 14 56 69 -69 14 -14 b 42 146 14 97 42 146 l 493 972 b 611 1042 493 972 535 1042 b 764 917 708 1042 764 986 b 736 826 764 875 736 826 l 285 0 b 167 -69 285 0 243 -69 "},":":{"ha":375,"x_min":0,"x_max":0,"o":"m 188 -14 b 28 132 90 -14 28 49 b 188 278 28 215 90 278 b 347 132 285 278 347 215 b 188 -14 347 49 285 -14 m 188 444 b 28 590 90 444 28 507 b 188 736 28 674 90 736 b 347 590 285 736 347 674 b 188 444 347 507 285 444 "},";":{"ha":361,"x_min":0,"x_max":0,"o":"m 90 -181 b 21 -118 49 -181 21 -153 b 132 0 21 -56 104 -69 b 14 132 69 0 14 56 b 174 278 14 215 76 278 b 326 90 257 278 326 208 b 90 -181 326 -62 208 -181 m 174 444 b 14 590 76 444 14 507 b 174 736 14 674 76 736 b 333 590 271 736 333 674 b 174 444 333 507 271 444 "},"<":{"ha":819,"x_min":0,"x_max":0,"o":"m 660 0 b 528 35 611 0 528 35 l 194 160 b 28 361 83 201 28 257 b 194 563 28 465 90 528 l 528 688 b 660 722 528 688 611 722 b 792 604 736 722 792 674 b 653 458 792 521 750 485 l 375 368 l 375 354 l 653 264 b 792 118 750 235 792 194 b 660 0 792 49 743 0 "},"=":{"ha":764,"x_min":0,"x_max":0,"o":"m 160 194 b 28 313 83 194 28 250 b 160 431 28 375 83 431 l 604 431 b 736 313 681 431 736 375 b 604 194 736 250 681 194 l 160 194 m 160 514 b 28 632 83 514 28 569 b 160 750 28 694 83 750 l 604 750 b 736 632 681 750 736 694 b 604 514 736 569 681 514 l 160 514 "},">":{"ha":819,"x_min":0,"x_max":0,"o":"m 160 0 b 28 118 76 0 28 49 b 167 264 28 194 69 235 l 444 354 l 444 368 l 167 458 b 28 604 69 485 28 521 b 160 722 28 674 83 722 b 292 688 208 722 292 688 l 625 563 b 792 361 729 528 792 465 b 625 160 792 257 736 201 l 292 35 b 160 0 292 35 208 0 "},"?":{"ha":819,"x_min":0,"x_max":0,"o":"m 389 -14 b 229 132 292 -14 229 49 b 389 278 229 215 292 278 b 549 132 486 278 549 215 b 389 -14 549 49 486 -14 m 396 333 b 257 472 299 333 239 390 b 465 681 285 597 465 625 b 382 736 465 708 438 736 b 167 639 292 736 278 639 b 14 764 63 639 14 688 b 382 1000 14 875 139 1000 b 792 708 653 1000 792 861 b 563 444 792 528 604 528 b 396 333 535 389 479 333 "},"@":{"ha":1389,"x_min":0,"x_max":0,"o":"m 694 -194 b 42 414 319 -194 42 83 b 694 1028 42 750 319 1028 b 1347 458 1069 1028 1347 750 b 1014 139 1347 278 1208 139 b 826 208 882 139 826 208 l 819 208 b 653 139 819 208 764 139 b 417 368 514 139 417 236 l 417 451 b 653 681 417 583 514 681 b 778 639 736 681 778 639 l 785 639 b 868 681 785 639 806 681 b 972 583 931 681 972 639 l 972 306 b 1000 299 972 306 986 299 b 1097 457 1056 299 1097 340 b 694 819 1097 653 931 819 b 292 417 472 819 292 639 b 694 14 292 194 472 14 b 965 56 861 14 903 56 b 1063 -35 1028 56 1063 21 b 986 -144 1063 -97 1028 -132 b 694 -194 986 -144 861 -194 m 694 306 b 764 368 736 306 764 333 l 764 451 b 694 514 764 486 736 514 b 625 451 653 514 625 486 l 625 368 b 694 306 625 333 653 306 "},"A":{"ha":1000,"x_min":0,"x_max":0,"o":"m 153 -14 b 0 125 63 -14 0 49 b 35 250 0 167 35 250 l 257 833 b 500 1000 299 938 361 1000 b 743 833 639 1000 703 938 l 965 250 b 1000 125 965 250 1000 167 b 847 -14 1000 49 938 -14 b 681 125 771 -14 715 42 l 646 208 l 354 208 l 319 125 b 153 -14 285 42 229 -14 m 583 458 l 507 667 l 493 667 l 417 458 "},"B":{"ha":1007,"x_min":0,"x_max":0,"o":"m 243 0 b 90 139 146 0 90 56 l 90 833 b 243 972 92 917 146 972 l 521 972 b 924 715 813 972 924 861 b 771 528 924 569 771 528 l 771 514 b 979 285 771 514 979 472 b 563 0 979 125 854 0 l 243 0 m 563 236 b 660 313 625 236 660 271 b 563 389 660 354 625 389 l 396 389 l 396 236 m 521 611 b 604 674 576 611 604 639 b 521 736 604 708 576 736 l 396 736 l 396 611 "},"C":{"ha":931,"x_min":0,"x_max":0,"o":"m 521 -28 b 56 389 236 -28 56 153 l 56 583 b 521 1000 56 819 236 1000 b 903 764 764 1000 903 861 b 750 639 903 688 854 639 b 521 736 639 639 625 736 b 368 583 431 736 368 674 l 368 389 b 521 236 368 299 431 236 b 764 333 639 236 653 333 b 917 208 868 333 917 285 b 521 -28 917 111 778 -28 "},"D":{"ha":1021,"x_min":0,"x_max":0,"o":"m 243 0 b 90 139 146 0 90 56 l 90 833 b 243 972 90 917 146 972 l 486 972 b 965 556 785 972 965 792 l 965 417 b 486 0 965 181 785 0 l 243 0 m 486 250 b 653 417 583 250 653 319 l 653 556 b 486 722 653 653 583 722 l 396 722 l 396 250 "},"E":{"ha":951,"x_min":0,"x_max":0,"o":"m 243 0 b 90 139 146 0 90 56 l 90 833 b 243 972 90 917 146 972 l 771 972 b 924 833 868 972 924 917 b 771 694 924 750 868 694 l 396 694 l 396 611 l 660 611 b 799 486 743 611 799 556 b 660 361 799 417 743 361 l 396 361 l 396 278 l 785 278 b 938 139 882 278 938 222 b 785 0 938 56 882 0 l 243 0 "},"F":{"ha":924,"x_min":0,"x_max":0,"o":"m 243 -14 b 90 125 146 -14 90 42 l 90 833 b 243 972 90 917 146 972 l 771 972 b 924 833 868 972 924 917 b 771 694 924 750 868 694 l 396 694 l 396 583 l 604 583 b 757 444 701 583 757 528 b 604 306 757 361 701 306 l 396 306 l 396 125 b 243 -14 396 42 340 -14 "},"G":{"ha":986,"x_min":0,"x_max":0,"o":"m 521 -28 b 56 389 236 -28 56 153 l 56 583 b 521 1000 56 819 236 1000 b 903 764 764 1000 903 861 b 750 639 903 688 854 639 b 521 736 639 639 625 736 b 368 583 431 736 368 674 l 368 389 b 521 236 368 299 431 236 b 653 278 597 236 653 278 l 653 333 l 611 333 b 472 458 528 333 472 389 b 611 583 472 528 528 583 l 806 583 b 931 458 889 583 931 542 l 931 208 b 521 -28 931 111 778 -28 "},"H":{"ha":1069,"x_min":0,"x_max":0,"o":"m 243 -14 b 90 125 146 -14 90 42 l 90 847 b 243 986 90 931 146 986 b 396 847 340 986 396 931 l 396 611 l 674 611 l 674 847 b 826 986 674 931 729 986 b 979 847 924 986 979 931 l 979 125 b 826 -14 979 42 924 -14 b 674 125 729 -14 674 42 l 674 347 l 396 347 l 396 125 b 243 -14 396 42 340 -14 "},"I":{"ha":486,"x_min":0,"x_max":0,"o":"m 243 -14 b 90 125 146 -14 90 42 l 90 847 b 243 986 90 931 146 986 b 396 847 340 986 396 931 l 396 125 b 243 -14 396 42 340 -14 "},"J":{"ha":646,"x_min":0,"x_max":0,"o":"m 125 -28 b -28 111 28 -28 -28 28 b 250 417 -28 292 250 181 l 250 847 b 403 986 250 931 306 986 b 556 847 500 986 556 931 l 556 417 b 125 -28 556 153 375 -28 "},"K":{"ha":993,"x_min":0,"x_max":0,"o":"m 243 -14 b 90 125 146 -14 90 42 l 90 847 b 243 986 90 931 146 986 b 396 847 340 986 396 931 l 396 653 l 701 944 b 813 986 701 944 743 986 b 951 847 896 986 951 931 b 896 736 951 778 896 736 l 701 549 l 938 250 b 993 125 938 250 993 181 b 840 -14 993 42 938 -14 b 708 56 764 -14 708 56 l 472 354 l 396 285 l 396 125 b 243 -14 396 42 340 -14 "},"L":{"ha":882,"x_min":0,"x_max":0,"o":"m 243 0 b 90 139 146 0 90 56 l 90 847 b 243 986 90 931 146 986 b 396 847 340 986 396 931 l 396 278 l 729 278 b 882 139 826 278 882 222 b 729 0 882 56 826 0 l 243 0 "},"M":{"ha":1361,"x_min":0,"x_max":0,"o":"m 174 -14 b 28 125 83 -14 28 42 b 42 250 28 181 42 250 l 139 833 b 340 1000 156 931 222 1000 b 549 833 444 1000 507 938 l 674 508 l 688 508 l 813 833 b 1021 1000 853 938 917 1000 b 1222 833 1139 1000 1207 931 l 1319 250 b 1333 125 1319 250 1333 181 b 1188 -14 1333 42 1278 -14 b 1028 125 1097 -14 1042 42 l 965 486 l 951 486 l 847 222 b 681 83 813 132 764 83 b 514 222 597 83 547 132 l 410 486 l 396 486 l 333 125 b 174 -14 319 42 264 -14 "},"N":{"ha":1083,"x_min":0,"x_max":0,"o":"m 243 -14 b 90 125 146 -14 90 42 l 90 847 b 243 986 90 929 146 986 b 438 847 326 986 375 938 l 674 528 l 688 528 l 688 847 b 840 986 688 931 743 986 b 993 847 938 986 993 931 l 993 125 b 840 -14 993 43 938 -14 b 646 125 757 -14 708 35 l 410 444 l 396 444 l 396 125 b 243 -14 396 42 340 -14 "},"O":{"ha":1042,"x_min":0,"x_max":0,"o":"m 521 -28 b 56 389 236 -28 56 153 l 56 583 b 521 1000 56 819 236 1000 b 986 583 806 1000 986 819 l 986 389 b 521 -28 986 153 806 -28 m 521 208 b 674 389 604 208 674 278 l 674 583 b 521 764 674 694 604 764 b 368 583 438 764 368 694 l 368 389 b 521 208 368 278 438 208 "},"P":{"ha":979,"x_min":0,"x_max":0,"o":"m 243 -14 b 90 125 146 -14 90 42 l 90 833 b 243 972 90 917 146 972 l 521 972 b 951 632 799 972 951 819 b 521 292 951 444 799 292 l 396 292 l 396 125 b 243 -14 396 42 340 -14 m 521 542 b 632 632 590 542 632 583 b 521 722 632 681 590 722 l 396 722 l 396 542 "},"Q":{"ha":1042,"x_min":0,"x_max":0,"o":"m 847 -90 b 771 -62 799 -90 771 -62 l 701 0 b 521 -28 701 0 646 -28 b 56 389 236 -28 56 153 l 56 583 b 521 1000 56 819 236 1000 b 986 583 806 1000 986 819 l 986 389 b 917 153 986 243 917 153 l 951 118 b 979 42 951 118 979 90 b 847 -90 979 -35 924 -90 m 493 208 b 465 285 493 208 465 236 b 597 417 465 361 521 417 b 674 389 646 417 674 389 l 674 583 b 521 764 674 694 604 764 b 368 583 438 764 368 694 l 368 389 b 493 208 368 292 438 222 "},"R":{"ha":1014,"x_min":0,"x_max":0,"o":"m 243 -14 b 90 125 146 -14 90 42 l 90 833 b 243 972 90 917 146 972 l 535 972 b 951 660 826 972 951 847 b 799 431 951 486 799 431 l 799 417 l 938 250 b 993 125 938 250 993 181 b 826 -14 993 42 938 -14 b 701 56 757 -14 701 56 l 479 347 l 396 347 l 396 125 b 243 -14 396 42 340 -14 m 535 583 b 632 660 597 583 632 618 b 535 736 632 701 597 736 l 396 736 l 396 583 "},"S":{"ha":896,"x_min":0,"x_max":0,"o":"m 417 -28 b 21 208 160 -28 21 111 b 174 333 21 285 69 333 b 417 236 285 333 299 236 b 556 306 521 236 556 271 b 42 681 556 389 42 347 b 458 1000 42 861 181 1000 b 840 764 701 1000 840 861 b 688 639 840 688 792 639 b 458 736 576 639 563 736 b 361 681 389 736 361 708 b 875 306 361 583 875 625 b 417 -28 875 125 722 -28 "},"T":{"ha":917,"x_min":0,"x_max":0,"o":"m 458 -14 b 306 125 361 -14 306 42 l 306 694 l 153 694 b 0 833 56 694 0 750 b 153 972 0 917 56 972 l 764 972 b 917 833 861 972 917 917 b 764 694 917 750 861 694 l 611 694 l 611 125 b 458 -14 611 42 556 -14 "},"U":{"ha":1069,"x_min":0,"x_max":0,"o":"m 535 -28 b 90 375 257 -28 90 139 l 90 847 b 243 986 90 931 146 986 b 396 847 340 986 396 931 l 396 375 b 535 222 396 278 451 222 b 674 375 618 222 674 278 l 674 847 b 826 986 674 931 729 986 b 979 847 924 986 979 931 l 979 375 b 535 -28 979 139 813 -28 "},"V":{"ha":972,"x_min":0,"x_max":0,"o":"m 486 -28 b 243 139 347 -28 279 35 l 35 722 b 0 847 35 722 0 806 b 153 986 0 924 63 986 b 319 847 243 986 296 931 l 479 319 l 493 319 l 653 847 b 819 986 676 931 729 986 b 972 847 910 986 972 924 b 938 722 972 806 938 722 l 729 139 b 486 -28 693 35 625 -28 "},"W":{"ha":1514,"x_min":0,"x_max":0,"o":"m 438 -28 b 201 139 299 -28 228 42 l 42 722 b 14 847 42 722 14 806 b 167 986 14 924 76 986 b 340 847 264 986 319 931 l 451 389 l 465 389 l 556 819 b 757 986 578 924 639 986 b 958 819 875 986 936 924 l 1049 389 l 1063 389 l 1174 847 b 1347 986 1194 931 1250 986 b 1500 847 1438 986 1500 924 b 1472 722 1500 806 1472 722 l 1313 139 b 1076 -28 1286 42 1215 -28 b 840 139 938 -28 867 42 l 764 500 l 750 500 l 674 139 b 438 -28 647 42 576 -28 "},"X":{"ha":931,"x_min":0,"x_max":0,"o":"m 153 -14 b 7 125 63 -14 7 42 b 63 250 7 181 63 250 l 271 500 l 90 722 b 35 847 90 722 35 792 b 181 986 35 931 90 986 b 319 917 264 986 319 917 l 458 736 l 472 736 l 611 917 b 750 986 611 917 667 986 b 896 847 840 986 896 931 b 840 722 896 792 840 722 l 660 500 l 868 250 b 924 125 868 250 924 181 b 778 -14 924 42 868 -14 b 639 56 694 -14 639 56 l 472 257 l 458 257 l 292 56 b 153 -14 292 56 236 -14 "},"Y":{"ha":944,"x_min":0,"x_max":0,"o":"m 472 -14 b 319 125 375 -14 319 42 l 319 347 l 56 722 b 0 847 56 722 0 792 b 160 986 0 931 56 986 b 285 917 236 986 285 917 l 465 653 l 479 653 l 660 917 b 785 986 660 917 708 986 b 944 847 889 986 944 931 b 889 722 944 792 889 722 l 625 347 l 625 125 b 472 -14 625 42 569 -14 "},"Z":{"ha":875,"x_min":0,"x_max":0,"o":"m 153 0 b 0 139 56 0 0 56 b 56 278 0 222 56 278 l 431 681 l 431 694 l 167 694 b 14 833 69 694 14 750 b 167 972 14 917 69 972 l 708 972 b 861 833 806 972 861 917 b 806 694 861 750 806 694 l 458 292 l 458 278 l 722 278 b 875 139 819 278 875 222 b 722 0 875 56 819 0 l 153 0 "},"[":{"ha":632,"x_min":0,"x_max":0,"o":"m 243 -292 b 90 -153 146 -292 90 -236 b 90 944 90 146 90 944 b 243 1083 90 1028 146 1083 l 479 1083 b 632 944 576 1083 632 1028 b 479 806 632 861 576 806 l 396 806 l 396 -14 l 479 -14 b 632 -153 576 -14 632 -69 b 479 -292 632 -236 576 -292 l 243 -292 "},"\\":{"ha":778,"x_min":0,"x_max":0,"o":"m 611 -69 b 493 0 535 -69 493 0 l 42 826 b 14 917 42 826 14 875 b 167 1042 14 986 69 1042 b 285 972 243 1042 285 972 l 736 146 b 764 56 736 146 764 97 b 611 -69 764 -14 708 -69 "},"]":{"ha":632,"x_min":0,"x_max":0,"o":"m 153 -292 b 0 -153 56 -292 0 -236 b 153 -14 0 -69 56 -14 l 236 -14 l 236 819 l 153 819 b 0 958 56 819 0 875 b 153 1097 0 1042 56 1097 l 389 1097 b 542 958 486 1097 542 1042 b 542 -153 542 660 542 -153 b 389 -292 542 -236 486 -292 l 153 -292 "},"^":{"ha":764,"x_min":0,"x_max":0,"o":"m 139 514 b 28 632 83 514 28 569 b 83 750 28 688 56 721 l 222 903 b 382 986 263 947 306 986 b 542 903 458 986 501 947 l 681 750 b 736 632 708 721 736 688 b 625 514 736 569 681 514 b 493 583 556 514 528 542 l 389 701 l 375 701 l 271 583 b 139 514 235 542 208 514 "},"_":{"ha":694,"x_min":0,"x_max":0,"o":"m 139 -306 b 0 -181 56 -306 0 -250 b 139 -56 0 -111 56 -56 l 556 -56 b 694 -181 639 -56 694 -111 b 556 -306 694 -250 639 -306 l 139 -306 "},"`":{"ha":354,"x_min":0,"x_max":0,"o":"m 236 625 b 111 703 174 625 133 667 l 49 806 b 28 882 49 806 28 840 b 139 986 28 944 69 986 b 278 882 215 986 257 944 l 313 778 b 326 708 313 778 326 743 b 236 625 326 660 292 625 "},"a":{"ha":813,"x_min":0,"x_max":0,"o":"m 299 -14 b 35 222 139 -14 35 90 b 382 458 35 354 139 458 l 472 458 b 389 535 472 493 431 535 b 208 465 306 535 306 465 b 83 569 125 465 83 507 b 389 743 83 639 174 743 b 750 458 618 743 750 611 l 750 125 b 611 0 750 56 694 0 b 486 69 514 0 486 69 l 472 69 b 299 -14 472 69 417 -14 m 382 188 b 472 272 431 188 472 229 l 472 285 l 382 285 b 313 236 333 285 313 264 b 382 188 313 208 333 188 "},"b":{"ha":854,"x_min":0,"x_max":0,"o":"m 444 -21 b 76 299 222 -21 76 125 l 76 875 b 215 1000 76 944 132 1000 b 354 875 299 1000 354 944 l 354 708 l 368 708 b 528 743 368 708 410 743 b 813 424 681 743 813 611 l 813 299 b 444 -21 813 125 667 -21 m 444 194 b 535 299 493 194 535 236 l 535 424 b 444 528 535 486 493 528 b 354 424 396 528 354 486 l 354 299 b 444 194 354 236 396 194 "},"c":{"ha":750,"x_min":0,"x_max":0,"o":"m 410 -21 b 42 299 188 -21 42 125 l 42 424 b 410 743 42 597 188 743 b 715 549 604 743 715 631 b 590 438 715 479 674 438 b 410 514 493 438 479 514 b 319 424 361 514 319 472 l 319 299 b 410 208 319 250 361 208 b 604 285 493 208 507 285 b 729 174 688 285 729 243 b 410 -21 729 90 618 -21 "},"d":{"ha":854,"x_min":0,"x_max":0,"o":"m 326 -21 b 42 299 174 -21 42 111 l 42 424 b 326 743 42 611 174 743 b 486 708 444 743 486 708 l 500 708 l 500 875 b 639 1000 500 944 556 1000 b 778 875 722 1000 778 944 l 778 118 b 639 -7 778 49 722 -7 b 514 63 542 -7 514 63 l 500 63 b 326 -21 500 63 444 -21 m 410 194 b 500 299 458 194 500 236 l 500 424 b 410 528 500 486 458 528 b 319 424 361 528 319 486 l 319 299 b 410 194 319 236 361 194 "},"e":{"ha":799,"x_min":0,"x_max":0,"o":"m 410 -21 b 42 299 188 -21 42 125 l 42 424 b 403 743 42 597 188 743 b 764 424 618 743 764 597 l 764 403 b 625 278 764 333 708 278 l 319 278 b 410 181 319 222 361 181 b 604 250 493 181 507 250 b 729 139 688 250 729 208 b 410 -21 729 76 625 -21 m 486 438 b 403 521 486 486 451 521 b 319 438 354 521 319 486 "},"f":{"ha":597,"x_min":0,"x_max":0,"o":"m 250 -7 b 111 118 167 -7 111 49 l 111 465 b 14 583 111 465 14 493 b 111 701 14 674 111 701 l 111 708 b 403 1000 111 875 236 1000 b 625 861 556 1000 625 931 b 514 757 625 799 583 757 b 444 771 486 757 472 771 b 389 708 417 771 389 743 l 389 708 l 458 708 b 597 583 542 708 597 654 b 458 458 597 514 542 458 l 389 458 l 389 118 b 250 -7 389 49 333 -7 "},"g":{"ha":847,"x_min":0,"x_max":0,"o":"m 403 -306 b 83 -125 194 -306 83 -194 b 208 -14 83 -56 125 -14 b 403 -90 306 -14 319 -90 b 500 0 458 -90 500 -49 l 500 56 l 486 56 b 326 21 486 56 444 21 b 42 340 174 21 42 153 l 42 424 b 326 743 42 611 174 743 b 500 660 444 743 500 660 l 514 660 b 639 729 514 660 542 729 b 778 604 722 729 778 674 l 778 0 b 403 -306 778 -160 632 -306 m 410 236 b 500 340 458 236 500 278 l 500 424 b 410 528 500 486 458 528 b 319 424 361 528 319 486 l 319 340 b 410 236 319 278 361 236 "},"h":{"ha":861,"x_min":0,"x_max":0,"o":"m 215 -7 b 76 118 132 -7 76 49 l 76 875 b 215 1000 76 944 132 1000 b 354 875 299 1000 354 944 l 354 674 l 368 674 b 521 743 368 674 424 743 b 799 424 674 743 799 618 l 799 118 b 660 -7 799 49 743 -7 b 521 118 576 -7 521 49 l 521 424 b 438 521 521 479 479 521 b 354 424 396 521 354 479 l 354 118 b 215 -7 354 49 299 -7 "},"i":{"ha":417,"x_min":0,"x_max":0,"o":"m 208 -7 b 69 118 125 -7 69 49 l 69 576 b 208 701 69 646 125 701 b 347 576 292 701 347 646 l 347 118 b 208 -7 347 49 292 -7 m 208 764 b 63 896 125 764 63 826 b 208 1028 63 965 125 1028 b 354 896 292 1028 354 965 b 208 764 354 826 292 764 "},"j":{"ha":424,"x_min":0,"x_max":0,"o":"m -28 -306 b -139 -194 -90 -306 -139 -257 b 76 97 -139 -42 76 -111 l 76 576 b 215 701 76 646 132 701 b 354 576 299 701 354 646 l 354 97 b -28 -306 354 -139 188 -306 m 215 764 b 69 896 132 764 69 826 b 215 1028 69 965 132 1028 b 361 896 299 1028 361 965 b 215 764 361 826 299 764 "},"k":{"ha":799,"x_min":0,"x_max":0,"o":"m 215 -7 b 76 118 132 -7 76 49 l 76 875 b 215 1000 76 944 132 1000 b 354 875 299 1000 354 944 l 354 507 l 521 660 b 653 722 521 660 576 722 b 771 604 722 722 771 674 b 715 486 771 535 715 486 l 604 389 l 757 201 b 799 104 757 201 799 153 b 667 -7 799 42 750 -7 b 549 49 590 -7 549 49 l 396 236 l 354 194 l 354 118 b 215 -7 354 49 299 -7 "},"l":{"ha":431,"x_min":0,"x_max":0,"o":"m 215 -7 b 76 118 132 -7 76 49 l 76 875 b 215 1000 76 944 132 1000 b 354 875 299 1000 354 944 l 354 118 b 215 -7 354 49 299 -7 "},"m":{"ha":1243,"x_min":0,"x_max":0,"o":"m 208 -7 b 69 118 125 -7 69 49 l 69 604 b 208 729 69 672 125 729 b 333 660 306 729 333 661 l 347 660 b 514 743 347 660 403 743 b 701 660 632 743 701 660 l 715 660 b 917 743 715 660 785 743 b 1181 438 1063 743 1181 625 l 1181 118 b 1042 -7 1181 49 1125 -7 b 903 118 958 -7 903 49 l 903 438 b 833 521 903 486 868 521 b 764 438 799 521 764 486 l 764 118 b 625 -7 764 49 708 -7 b 486 118 542 -7 486 49 l 486 438 b 417 521 486 486 451 521 b 347 438 382 521 347 486 l 347 118 b 208 -7 347 49 292 -7 "},"n":{"ha":854,"x_min":0,"x_max":0,"o":"m 208 -7 b 69 118 125 -7 69 49 l 69 604 b 208 729 69 672 125 729 b 333 660 306 729 333 661 l 347 660 b 514 743 347 660 403 743 b 792 424 667 743 792 618 l 792 118 b 653 -7 792 49 736 -7 b 514 118 569 -7 514 49 l 514 424 b 431 521 514 479 472 521 b 347 424 389 521 347 479 l 347 118 b 208 -7 347 49 292 -7 "},"o":{"ha":819,"x_min":0,"x_max":0,"o":"m 410 -21 b 42 299 188 -21 42 125 l 42 424 b 410 743 42 597 188 743 b 778 424 632 743 778 597 l 778 299 b 410 -21 778 125 632 -21 m 410 194 b 500 299 458 194 500 236 l 500 424 b 410 528 500 486 458 528 b 319 424 361 528 319 486 l 319 299 b 410 194 319 236 361 194 "},"p":{"ha":847,"x_min":0,"x_max":0,"o":"m 208 -306 b 69 -181 125 -306 69 -250 l 69 604 b 208 729 69 674 125 729 b 333 660 306 729 333 660 l 347 660 b 521 743 347 660 403 743 b 806 424 674 743 806 611 l 806 299 b 521 -21 806 111 674 -21 b 361 14 403 -21 361 14 l 347 14 l 347 -181 b 208 -306 347 -250 292 -306 m 438 194 b 528 299 486 194 528 236 l 528 424 b 438 528 528 486 486 528 b 347 424 389 528 347 486 l 347 299 b 438 194 347 236 389 194 "},"q":{"ha":847,"x_min":0,"x_max":0,"o":"m 639 -306 b 500 -181 556 -306 500 -250 l 500 14 l 486 14 b 326 -21 486 14 444 -21 b 42 299 174 -21 42 111 l 42 424 b 410 743 42 597 188 743 b 778 424 632 743 778 597 l 778 -181 b 639 -306 778 -250 722 -306 m 410 194 b 500 299 458 194 500 236 l 500 424 b 410 528 500 486 458 528 b 319 424 361 528 319 486 l 319 299 b 410 194 319 236 361 194 "},"r":{"ha":667,"x_min":0,"x_max":0,"o":"m 208 -7 b 69 118 125 -7 69 49 l 69 604 b 208 729 69 672 125 729 b 333 653 306 729 333 654 l 347 653 b 521 743 347 653 403 743 b 667 611 611 743 667 688 b 535 472 667 528 611 472 b 431 486 500 472 465 486 b 347 403 382 486 347 451 l 347 118 b 208 -7 347 49 292 -7 "},"s":{"ha":708,"x_min":0,"x_max":0,"o":"m 333 -21 b 14 153 118 -21 14 83 b 139 257 14 215 56 257 b 333 181 236 257 250 181 b 403 222 382 181 403 201 b 35 500 403 292 35 250 b 382 743 35 639 139 743 b 681 569 576 743 681 639 b 556 465 681 507 639 465 b 382 542 458 465 444 542 b 326 500 347 542 326 521 b 694 222 326 431 694 472 b 333 -21 694 90 583 -21 "},"t":{"ha":632,"x_min":0,"x_max":0,"o":"m 403 -21 b 111 271 236 -21 111 104 l 111 479 b 14 597 111 479 14 507 b 111 715 14 688 111 715 l 111 764 b 250 889 111 833 167 889 b 389 764 333 889 389 833 l 389 722 l 458 722 b 597 597 542 722 597 667 b 458 472 597 526 542 472 l 389 472 l 389 271 b 444 208 389 236 417 208 b 514 222 472 208 486 222 b 625 118 583 222 625 181 b 403 -21 625 49 556 -21 "},"u":{"ha":861,"x_min":0,"x_max":0,"o":"m 347 -21 b 69 299 194 -21 69 104 l 69 604 b 208 729 69 674 125 729 b 347 604 292 729 347 674 l 347 299 b 431 201 347 243 389 201 b 514 299 472 201 514 243 l 514 604 b 653 729 514 674 569 729 b 792 604 736 729 792 674 l 792 118 b 653 -7 792 50 736 -7 b 528 63 556 -7 528 61 l 514 63 b 347 -21 514 63 458 -21 "},"v":{"ha":778,"x_min":0,"x_max":0,"o":"m 389 -21 b 174 118 264 -21 201 42 l 28 514 b 7 611 28 514 7 569 b 132 729 7 681 56 729 b 285 611 215 729 261 681 l 382 292 l 396 292 l 493 611 b 646 729 517 681 563 729 b 771 611 722 729 771 681 b 750 514 771 569 750 514 l 604 118 b 389 -21 576 42 514 -21 "},"w":{"ha":1225,"x_min":0,"x_max":0,"o":"m 349 -21 b 147 118 231 -21 169 42 l 35 514 b 21 611 35 514 21 563 b 146 729 21 681 69 729 b 306 611 243 729 289 681 l 369 347 l 383 347 l 432 590 b 613 728 447 667 508 729 b 793 590 717 729 778 667 l 842 347 l 856 347 l 919 611 b 1079 729 936 681 982 729 b 1204 611 1156 729 1204 681 b 1190 514 1204 563 1190 514 l 1078 118 b 876 -21 1056 42 994 -21 b 675 118 758 -21 696 42 l 619 375 l 606 375 l 550 118 b 349 -21 529 42 467 -21 "},"x":{"ha":750,"x_min":0,"x_max":0,"o":"m 139 -7 b 14 118 69 -7 14 49 b 49 215 14 181 49 215 l 194 368 l 76 507 b 28 604 76 507 28 556 b 160 729 28 674 83 729 b 278 674 236 729 278 674 l 368 569 l 382 569 l 472 674 b 590 729 472 674 514 729 b 722 604 667 729 722 674 b 674 507 722 556 674 507 l 556 368 l 701 215 b 736 118 701 215 736 181 b 611 -7 736 49 681 -7 b 500 49 542 -7 500 49 l 382 181 l 368 181 l 250 49 b 139 -7 250 49 208 -7 "},"y":{"ha":771,"x_min":0,"x_max":0,"o":"m 271 -306 b 146 -187 194 -306 146 -257 b 174 -90 146 -146 174 -90 l 243 69 l 28 514 b 0 611 28 514 0 569 b 125 729 0 681 49 729 b 285 611 208 729 257 681 l 382 375 l 396 375 l 486 611 b 646 729 514 681 563 729 b 771 611 722 729 771 681 b 743 514 771 569 743 514 l 431 -187 b 271 -306 396 -264 354 -306 "},"z":{"ha":722,"x_min":0,"x_max":0,"o":"m 132 0 b 7 125 63 0 7 56 b 63 250 7 201 63 250 l 299 458 l 299 472 l 160 472 b 21 597 76 472 21 528 b 160 722 21 667 76 722 l 576 722 b 701 597 646 722 701 667 b 646 472 701 521 646 472 l 410 264 l 410 250 l 576 250 b 715 125 660 250 715 194 b 576 0 715 56 660 0 l 132 0 "},"{":{"ha":701,"x_min":0,"x_max":0,"o":"m 549 -292 b 188 56 326 -292 188 -153 l 188 194 b 125 264 188 229 160 256 b 28 396 69 278 28 319 b 125 528 28 472 69 514 b 188 597 160 536 188 563 l 188 736 b 549 1083 188 944 326 1083 b 701 944 646 1083 701 1028 b 549 806 701 861 646 806 b 493 736 521 806 493 778 l 493 597 b 354 403 493 444 354 403 l 354 389 b 493 194 354 389 493 347 l 493 56 b 549 -14 493 14 521 -14 b 701 -153 646 -14 701 -69 b 549 -292 701 -236 646 -292 "},"|":{"ha":514,"x_min":0,"x_max":0,"o":"m 257 -264 b 104 -125 160 -264 104 -208 l 104 917 b 257 1056 104 1000 160 1056 b 410 917 354 1056 410 1000 l 410 -125 b 257 -264 410 -208 354 -264 "},"}":{"ha":701,"x_min":0,"x_max":0,"o":"m 153 -292 b 0 -153 56 -292 0 -236 b 153 -14 0 -69 56 -14 b 208 56 181 -14 208 14 l 208 194 b 347 389 208 347 347 389 l 347 403 b 208 597 347 403 208 444 l 208 736 b 153 806 208 778 181 806 b 0 944 56 806 0 861 b 153 1083 0 1028 56 1083 b 514 736 375 1083 514 944 l 514 597 b 576 528 514 563 542 536 b 674 396 632 514 674 472 b 576 264 674 319 632 278 b 514 194 542 256 514 229 l 514 56 b 153 -292 514 -153 375 -292 "},"~":{"ha":792,"x_min":0,"x_max":0,"o":"m 139 306 b 14 429 63 306 14 354 b 250 639 14 542 111 639 b 486 556 375 639 431 556 b 653 639 556 556 556 639 b 778 515 729 639 778 590 b 542 306 778 403 681 306 b 306 389 417 306 361 389 b 139 306 236 389 236 306 "}," ":{"ha":389,"x_min":0,"x_max":0,"o":""},"¡":{"ha":431,"x_min":0,"x_max":0,"o":"m 215 -306 b 49 -153 118 -306 49 -236 l 76 250 b 215 389 83 340 132 389 b 354 250 299 389 347 340 l 382 -153 b 215 -306 382 -236 313 -306 m 215 444 b 56 590 118 444 56 507 b 215 736 56 674 118 736 b 375 590 313 736 375 674 b 215 444 375 507 313 444 "},"¢":{"ha":750,"x_min":0,"x_max":0,"o":"m 396 -118 b 257 6 313 -118 257 -62 b 42 299 146 28 42 139 l 42 424 b 257 715 42 583 132 681 b 396 840 257 785 313 840 b 535 722 479 840 535 785 b 715 549 646 694 715 625 b 590 438 715 479 674 438 b 410 514 493 438 479 514 b 319 424 361 514 319 472 l 319 299 b 410 208 319 250 361 208 b 604 285 493 208 507 285 b 729 174 688 285 729 243 b 535 -7 729 97 660 28 b 396 -118 535 -62 479 -118 "},"£":{"ha":889,"x_min":0,"x_max":0,"o":"m 153 0 b 0 139 56 0 0 56 b 153 278 0 222 56 278 b 250 403 194 278 250 333 l 250 403 b 111 528 167 403 111 458 b 250 653 111 597 167 653 b 250 653 250 653 247 653 l 250 653 b 583 1000 250 861 389 1000 b 833 833 750 1000 833 917 b 736 722 833 764 792 722 b 625 750 681 722 667 750 b 528 653 569 750 528 708 l 528 653 l 639 653 b 778 528 722 653 778 597 b 639 403 778 458 722 403 l 528 403 b 458 292 528 333 458 292 l 458 278 l 722 278 b 875 139 821 278 875 222 b 722 0 875 56 819 0 l 153 0 "},"¤":{"ha":944,"x_min":0,"x_max":0,"o":"m 250 -14 b 97 125 153 -14 97 42 l 97 146 b 14 250 56 160 14 201 b 97 354 14 299 56 340 l 97 389 b 14 493 60 403 14 444 b 97 597 14 542 56 583 l 97 833 b 250 972 97 917 153 972 l 500 972 b 917 667 778 972 917 833 b 500 389 917 528 778 389 l 403 389 l 403 354 l 667 354 b 778 250 729 354 778 306 b 667 146 778 194 729 146 l 403 146 l 403 125 b 250 -14 403 42 347 -14 m 500 597 b 597 667 563 597 597 632 b 500 736 597 701 563 736 l 403 736 l 403 597 "},"¥":{"ha":944,"x_min":0,"x_max":0,"o":"m 472 -14 b 319 125 375 -14 319 42 l 319 153 l 181 153 b 69 250 111 153 69 194 b 181 347 69 306 111 347 l 319 347 l 292 389 l 181 389 b 69 486 111 389 69 431 b 153 583 69 569 153 583 l 56 722 b 0 847 56 722 0 792 b 160 986 0 931 56 986 b 285 917 236 986 285 917 l 465 653 l 479 653 l 660 917 b 785 986 660 917 708 986 b 944 847 889 986 944 931 b 889 722 944 792 889 722 l 792 583 b 875 486 792 583 875 569 b 764 389 875 431 833 389 l 653 389 l 625 347 l 764 347 b 875 250 833 347 875 306 b 764 153 875 194 833 153 l 625 153 l 625 125 b 472 -14 625 42 569 -14 "},"¦":{"ha":514,"x_min":0,"x_max":0,"o":"m 257 -264 b 104 -125 160 -264 104 -208 l 104 194 b 257 333 104 278 160 333 b 410 194 354 333 410 278 l 410 -125 b 257 -264 410 -208 354 -264 m 257 458 b 104 597 160 458 104 514 l 104 917 b 257 1056 104 1000 160 1056 b 410 917 354 1056 410 1000 l 410 597 b 257 458 410 514 354 458 "},"§":{"ha":771,"x_min":0,"x_max":0,"o":"m 347 -139 b 28 35 132 -139 28 -35 b 153 139 28 97 69 139 b 347 76 250 139 264 76 b 438 118 417 76 438 97 b 42 431 438 181 42 181 b 153 597 42 542 153 597 l 153 611 b 56 764 153 613 56 653 b 410 1000 56 875 181 1000 b 715 826 611 1000 715 896 b 590 722 715 764 674 722 b 410 785 493 722 479 785 b 347 750 368 785 347 764 b 729 431 347 681 729 681 b 618 292 729 347 618 292 l 618 278 b 729 104 618 276 729 208 b 347 -139 729 -14 604 -139 m 417 382 b 444 417 417 382 444 396 b 333 481 444 465 333 481 b 319 444 333 481 319 465 b 417 382 319 396 417 382 "},"¨":{"ha":694,"x_min":0,"x_max":0,"o":"m 188 889 b 56 1014 111 889 56 944 b 188 1139 56 1083 111 1139 b 319 1014 264 1139 319 1083 b 188 889 319 944 264 889 m 507 889 b 375 1014 431 889 375 944 b 507 1139 375 1083 431 1139 b 639 1014 583 1139 639 1083 b 507 889 639 944 583 889 "},"©":{"ha":1389,"x_min":0,"x_max":0,"o":"m 694 -194 b 42 417 319 -194 42 83 b 694 1028 42 750 319 1028 b 1347 417 1069 1028 1347 750 b 694 -194 1347 83 1069 -194 m 694 14 b 1097 417 917 14 1097 194 b 694 819 1097 639 917 819 b 292 417 472 819 292 639 b 694 14 292 194 472 14 m 715 139 b 444 368 549 139 444 243 l 444 451 b 715 681 444 576 549 681 b 931 542 854 681 931 604 b 840 458 931 493 896 458 b 715 507 771 458 771 507 b 653 451 681 507 653 479 l 653 368 b 715 313 653 340 681 313 b 847 361 771 313 771 361 b 938 278 903 361 938 326 b 715 139 938 215 861 139 "},"ª":{"ha":590,"x_min":0,"x_max":0,"o":"m 208 493 b 42 639 111 493 42 563 b 278 806 42 736 111 806 l 333 806 b 286 840 333 826 319 840 b 160 806 243 840 236 806 b 76 882 104 806 76 833 b 286 986 76 924 139 986 b 535 806 451 986 535 903 l 535 590 b 431 500 535 535 500 500 b 340 549 368 500 340 549 l 333 549 b 208 493 333 549 306 493 m 278 632 b 333 667 313 632 333 667 l 333 701 l 278 701 b 236 667 250 701 236 688 b 278 632 236 646 251 632 "},"«":{"ha":882,"x_min":0,"x_max":0,"o":"m 354 7 b 215 83 285 7 238 56 l 111 208 b 42 347 76 250 42 285 b 111 486 42 410 76 444 l 215 611 b 354 688 238 639 285 688 b 465 590 424 688 465 646 b 403 472 465 542 431 507 l 306 354 l 306 340 l 403 222 b 465 104 431 188 465 153 b 354 7 465 49 424 7 m 729 7 b 590 83 660 7 613 56 l 486 208 b 417 347 451 250 417 285 b 486 486 417 410 451 444 l 590 611 b 729 688 613 639 660 688 b 840 590 799 688 840 646 b 778 472 840 542 806 507 l 681 354 l 681 340 l 778 222 b 840 104 806 188 840 153 b 729 7 840 49 799 7 "},"¬":{"ha":792,"x_min":0,"x_max":0,"o":"m 625 201 b 486 326 542 201 486 257 l 486 403 l 153 403 b 14 528 69 403 14 458 b 153 653 14 597 69 653 l 625 653 b 764 528 708 653 764 596 l 764 326 b 625 201 764 257 708 201 "},"­":{"ha":722,"x_min":0,"x_max":0,"o":"m 153 347 b 14 472 69 347 14 403 b 153 597 14 542 69 597 l 569 597 b 708 472 653 597 708 542 b 569 347 708 403 653 347 l 153 347 "},"®":{"ha":1389,"x_min":0,"x_max":0,"o":"m 694 -194 b 42 417 319 -194 42 83 b 694 1028 42 750 319 1028 b 1347 417 1069 1028 1347 750 b 694 -194 1347 83 1069 -194 m 694 14 b 1097 417 917 14 1097 194 b 694 819 1097 639 917 819 b 292 417 472 819 292 639 b 694 14 292 194 472 14 m 556 146 b 458 236 500 146 458 188 l 458 590 b 542 667 458 632 493 667 l 715 667 b 958 500 875 667 958 583 b 882 382 958 410 882 382 l 882 375 l 944 285 b 972 222 944 285 972 250 b 882 146 972 181 938 146 b 778 194 819 146 792 174 l 681 333 l 653 333 l 653 236 b 556 146 653 188 611 146 m 715 472 b 750 500 736 472 750 486 b 715 528 750 514 736 528 l 653 528 l 653 472 "},"¯":{"ha":639,"x_min":0,"x_max":0,"o":"m 160 931 b 56 1035 97 931 56 972 b 160 1139 56 1097 97 1139 l 479 1139 b 583 1035 542 1139 583 1097 b 479 931 583 972 542 931 l 160 931 "},"°":{"ha":583,"x_min":0,"x_max":0,"o":"m 292 514 b 28 750 132 514 28 618 b 292 986 28 882 132 986 b 556 750 451 986 556 882 b 292 514 556 618 451 514 m 292 667 b 368 750 333 667 368 701 b 292 833 368 799 333 833 b 215 750 250 833 215 799 b 292 667 215 701 250 667 "},"±":{"ha":819,"x_min":0,"x_max":0,"o":"m 167 33 b 28 158 83 33 28 89 b 167 283 28 228 83 283 l 285 283 l 285 403 l 167 403 b 28 528 83 403 28 458 b 167 653 28 597 83 653 l 285 653 l 285 771 b 410 910 285 854 340 910 b 535 771 479 910 535 854 l 535 653 l 653 653 b 792 528 736 653 792 597 b 653 403 792 458 736 403 l 535 403 l 535 283 l 653 283 b 792 158 736 283 792 228 b 653 33 792 89 736 33 l 167 33 "},"²":{"ha":556,"x_min":0,"x_max":0,"o":"m 132 500 b 42 590 83 500 42 542 b 299 813 42 743 299 749 b 250 840 299 825 285 840 b 118 785 201 840 174 785 b 49 854 76 785 49 811 b 278 986 49 915 118 986 b 507 813 424 986 507 901 b 347 689 507 715 347 688 l 347 681 l 424 681 b 514 590 479 681 514 639 b 424 500 514 542 472 500 l 132 500 "},"³":{"ha":543,"x_min":0,"x_max":0,"o":"m 271 493 b 42 611 111 493 42 563 b 111 681 42 653 69 681 b 243 625 167 681 194 625 b 292 657 278 625 292 639 b 243 688 292 674 278 688 l 194 688 b 139 736 160 688 139 708 b 194 799 139 764 161 778 l 250 833 l 250 840 l 126 840 b 47 908 78 840 47 868 b 126 979 47 951 76 979 l 401 979 b 486 910 458 979 486 951 b 431 833 486 875 465 853 l 361 794 l 361 786 b 500 646 361 786 503 778 b 271 493 499 576 417 493 "},"´":{"ha":410,"x_min":0,"x_max":0,"o":"m 146 819 b 56 903 90 819 56 854 b 69 972 56 938 69 972 l 104 1076 b 243 1181 125 1139 167 1181 b 354 1076 313 1181 354 1139 b 333 1000 354 1035 333 1000 l 271 897 b 146 819 249 861 208 819 "},"µ":{"ha":861,"x_min":0,"x_max":0,"o":"m 208 -306 b 69 -181 125 -306 69 -250 l 69 604 b 208 729 69 674 125 729 b 347 604 292 729 347 674 l 347 313 b 431 215 347 250 389 215 b 514 313 472 215 514 250 l 514 604 b 653 729 514 674 569 729 b 792 604 736 729 792 674 l 792 118 b 653 -7 792 49 736 -7 b 528 42 556 -7 528 42 l 514 42 b 431 0 511 38 486 0 b 361 29 389 0 361 29 l 347 29 l 347 -181 b 208 -306 347 -250 292 -306 "},"¶":{"ha":986,"x_min":0,"x_max":0,"o":"m 417 -306 b 292 -194 340 -306 292 -257 l 292 444 b 14 708 132 444 14 563 b 292 972 14 854 132 972 l 861 972 b 972 854 917 972 972 917 b 861 736 972 792 922 743 l 861 -194 b 736 -306 861 -257 813 -306 b 611 -194 660 -306 611 -257 l 611 736 l 542 736 l 542 -194 b 417 -306 542 -257 493 -306 "},"·":{"ha":389,"x_min":0,"x_max":0,"o":"m 194 340 b 35 486 97 340 35 403 b 194 632 35 569 97 632 b 354 486 292 632 354 569 b 194 340 354 403 292 340 "},"¸":{"ha":514,"x_min":0,"x_max":0,"o":"m 188 -431 b 56 -340 97 -431 56 -389 b 174 -257 56 -290 90 -257 b 250 -229 236 -257 250 -243 b 174 -201 250 -215 236 -201 b 90 -125 125 -201 90 -167 l 90 14 l 264 14 l 264 -56 b 458 -243 389 -69 458 -139 b 188 -431 458 -333 361 -431 "},"¹":{"ha":438,"x_min":0,"x_max":0,"o":"m 278 493 b 174 583 215 493 174 535 l 174 729 l 167 729 b 104 701 167 729 146 701 b 28 778 63 701 28 736 b 63 847 28 825 63 847 l 174 944 b 278 993 174 944 215 993 b 382 903 340 993 382 951 l 382 583 b 278 493 382 535 340 493 "},"º":{"ha":583,"x_min":0,"x_max":0,"o":"m 292 493 b 42 708 139 493 42 590 l 42 771 b 292 986 42 890 139 986 b 542 771 444 986 542 889 l 542 708 b 292 493 542 590 444 493 m 292 667 b 333 708 313 667 333 688 l 333 771 b 292 813 333 792 313 813 b 250 771 271 813 250 792 l 250 708 b 292 667 250 688 271 667 "},"»":{"ha":882,"x_min":0,"x_max":0,"o":"m 153 7 b 42 104 83 7 42 49 b 104 222 42 153 76 188 l 201 340 l 201 354 l 104 472 b 42 590 76 507 42 542 b 153 688 42 646 83 688 b 292 611 222 688 269 639 l 396 486 b 465 347 431 444 465 410 b 396 208 465 285 431 250 l 292 83 b 153 7 269 56 222 7 m 528 7 b 417 104 458 7 417 49 b 479 222 417 153 451 188 l 576 340 l 576 354 l 479 472 b 417 590 451 507 417 542 b 528 688 417 646 458 688 b 667 611 597 688 644 639 l 771 486 b 840 347 806 444 840 410 b 771 208 840 285 806 250 l 667 83 b 528 7 644 56 597 7 "},"¼":{"ha":1313,"x_min":0,"x_max":0,"o":"m 278 493 b 174 583 215 493 174 535 l 174 729 l 167 729 b 104 701 167 729 146 701 b 28 778 63 701 28 736 b 63 847 28 825 63 847 l 174 944 b 278 993 174 944 215 993 b 382 903 340 993 382 951 l 382 583 b 278 493 382 535 340 493 m 333 -28 b 222 83 271 -28 222 21 b 257 188 222 139 257 188 l 764 903 b 896 972 764 903 806 972 b 1007 861 958 972 1007 924 b 972 757 1007 806 972 757 l 465 42 b 333 -28 465 42 424 -28 m 1090 -14 b 986 76 1028 -14 986 28 l 813 76 b 729 153 764 76 729 113 b 764 236 729 201 764 236 l 896 396 b 1074 486 942 451 979 486 b 1194 396 1153 486 1194 444 l 1194 229 b 1271 153 1236 229 1271 194 b 1194 76 1271 111 1236 76 b 1090 -14 1194 28 1153 -14 m 1000 215 l 1000 299 l 993 299 l 931 224 l 931 215 "},"½":{"ha":1319,"x_min":0,"x_max":0,"o":"m 278 493 b 174 583 215 493 174 535 l 174 729 l 167 729 b 104 701 167 729 146 701 b 28 778 63 701 28 736 b 63 847 28 825 63 847 l 174 944 b 278 993 174 944 215 993 b 382 903 340 993 382 951 l 382 583 b 278 493 382 535 340 493 m 333 -28 b 222 83 271 -28 222 21 b 257 188 222 139 257 188 l 764 903 b 896 972 764 903 806 972 b 1007 861 958 972 1007 924 b 972 757 1007 806 972 757 l 465 42 b 333 -28 465 42 424 -28 m 882 0 b 792 90 833 0 792 42 b 1049 313 792 243 1049 249 b 1000 340 1049 325 1035 340 b 868 285 951 340 924 285 b 799 354 826 285 799 311 b 1028 486 799 415 868 486 b 1257 313 1174 486 1257 401 b 1097 189 1257 215 1097 188 l 1097 181 l 1174 181 b 1264 90 1229 181 1264 139 b 1174 0 1264 42 1222 0 l 882 0 "},"¾":{"ha":1354,"x_min":0,"x_max":0,"o":"m 285 493 b 56 611 125 493 56 563 b 125 681 56 653 83 681 b 257 625 181 681 208 625 b 306 657 292 625 306 639 b 257 688 306 674 292 688 l 208 688 b 153 736 174 688 153 708 b 208 799 153 764 175 778 l 264 833 l 264 840 l 140 840 b 61 908 92 840 61 868 b 140 979 61 951 90 979 l 415 979 b 500 910 472 979 500 951 b 444 833 500 875 479 853 l 375 794 l 375 786 b 514 646 375 786 517 778 b 285 493 513 576 431 493 m 396 -28 b 285 83 333 -28 285 21 b 319 188 285 139 319 188 l 826 903 b 958 972 826 903 868 972 b 1069 861 1021 972 1069 924 b 1035 757 1069 806 1035 757 l 528 42 b 396 -28 528 42 486 -28 m 1118 -14 b 1014 76 1056 -14 1014 28 l 840 76 b 757 153 792 76 757 113 b 792 236 757 201 792 236 l 924 396 b 1101 486 969 451 1007 486 b 1222 396 1181 486 1222 444 l 1222 229 b 1299 153 1264 229 1299 194 b 1222 76 1299 111 1264 76 b 1118 -14 1222 28 1181 -14 m 1028 215 l 1028 299 l 1021 299 l 958 224 l 958 215 "},"¿":{"ha":819,"x_min":0,"x_max":0,"o":"m 438 -306 b 28 -14 167 -306 28 -167 b 257 278 28 167 215 194 b 424 389 285 333 340 389 b 563 250 521 389 581 332 b 354 14 535 125 354 69 b 438 -42 354 -14 382 -42 b 653 56 528 -42 542 56 b 806 -69 757 56 806 7 b 438 -306 806 -181 681 -306 m 431 444 b 271 590 333 444 271 507 b 431 736 271 674 333 736 b 590 590 528 736 590 674 b 431 444 590 507 528 444 "},"À":{"ha":1000,"x_min":0,"x_max":0,"o":"m 153 -14 b 0 125 63 -14 0 49 b 35 250 0 167 35 250 l 257 833 b 500 1000 299 938 361 1000 b 743 833 639 1000 703 938 l 965 250 b 1000 125 965 250 1000 167 b 847 -14 1000 49 938 -14 b 681 125 771 -14 715 42 l 646 208 l 354 208 l 319 125 b 153 -14 285 42 229 -14 m 583 458 l 507 667 l 493 667 l 417 458 m 503 1083 b 378 1161 440 1083 400 1125 l 315 1264 b 294 1340 315 1264 294 1299 b 406 1444 294 1403 336 1444 b 544 1340 482 1444 524 1403 l 579 1236 b 593 1167 579 1236 593 1201 b 503 1083 593 1118 558 1083 "},"Á":{"ha":1000,"x_min":0,"x_max":0,"o":"m 153 -14 b 0 125 63 -14 0 49 b 35 250 0 167 35 250 l 257 833 b 500 1000 299 938 361 1000 b 743 833 639 1000 703 938 l 965 250 b 1000 125 965 250 1000 167 b 847 -14 1000 49 938 -14 b 681 125 771 -14 715 42 l 646 208 l 354 208 l 319 125 b 153 -14 285 42 229 -14 m 583 458 l 507 667 l 493 667 l 417 458 m 524 1083 b 433 1167 468 1083 433 1118 b 447 1236 433 1201 447 1236 l 482 1340 b 621 1444 503 1403 544 1444 b 732 1340 690 1444 732 1403 b 711 1264 732 1299 711 1264 l 649 1161 b 524 1083 626 1125 586 1083 "},"Â":{"ha":1000,"x_min":0,"x_max":0,"o":"m 153 -14 b 0 125 63 -14 0 49 b 35 250 0 167 35 250 l 257 833 b 500 1000 299 938 361 1000 b 743 833 639 1000 703 938 l 965 250 b 1000 125 965 250 1000 167 b 847 -14 1000 49 938 -14 b 681 125 771 -14 715 42 l 646 208 l 354 208 l 319 125 b 153 -14 285 42 229 -14 m 583 458 l 507 667 l 493 667 l 417 458 m 326 1083 b 229 1174 271 1083 229 1125 b 264 1250 229 1208 264 1250 l 354 1375 b 500 1444 375 1403 417 1444 b 646 1375 583 1444 625 1403 l 736 1250 b 771 1174 736 1250 771 1208 b 674 1083 771 1125 729 1083 b 556 1153 611 1083 582 1111 l 507 1231 l 493 1231 l 444 1153 b 326 1083 418 1111 389 1083 "},"Ã":{"ha":1000,"x_min":0,"x_max":0,"o":"m 153 -14 b 0 125 63 -14 0 49 b 35 250 0 167 35 250 l 257 833 b 500 1000 299 938 361 1000 b 743 833 639 1000 703 938 l 965 250 b 1000 125 965 250 1000 167 b 847 -14 1000 49 938 -14 b 681 125 771 -14 715 42 l 646 208 l 354 208 l 319 125 b 153 -14 285 42 229 -14 m 583 458 l 507 667 l 493 667 l 417 458 m 301 1111 b 204 1222 246 1111 204 1153 b 385 1389 204 1313 281 1389 b 565 1319 475 1389 517 1319 b 697 1389 614 1319 613 1389 b 794 1278 753 1389 794 1347 b 614 1111 794 1188 718 1111 b 433 1181 524 1111 482 1181 b 301 1111 385 1181 386 1111 "},"Ä":{"ha":1000,"x_min":0,"x_max":0,"o":"m 153 -14 b 0 125 63 -14 0 49 b 35 250 0 167 35 250 l 257 833 b 500 1000 299 938 361 1000 b 743 833 639 1000 703 938 l 965 250 b 1000 125 965 250 1000 167 b 847 -14 1000 49 938 -14 b 681 125 771 -14 715 42 l 646 208 l 354 208 l 319 125 b 153 -14 285 42 229 -14 m 583 458 l 507 667 l 493 667 l 417 458 m 340 1097 b 208 1222 264 1097 208 1153 b 340 1347 208 1292 264 1347 b 472 1222 417 1347 472 1292 b 340 1097 472 1153 417 1097 m 660 1097 b 528 1222 583 1097 528 1153 b 660 1347 528 1292 583 1347 b 792 1222 736 1347 792 1292 b 660 1097 792 1153 736 1097 "},"Å":{"ha":1000,"x_min":0,"x_max":0,"o":"m 153 -14 b 0 125 63 -14 0 49 b 35 250 0 167 35 250 l 257 833 b 335 950 276 882 300 922 b 285 1076 303 985 285 1029 b 500 1271 285 1181 375 1271 b 715 1076 625 1271 715 1181 b 664 950 715 1029 696 985 b 743 833 699 922 724 882 l 965 250 b 1000 125 965 250 1000 167 b 847 -14 1000 49 938 -14 b 681 125 771 -14 715 42 l 646 208 l 354 208 l 319 125 b 153 -14 285 42 229 -14 m 583 458 l 507 667 l 493 667 l 417 458 m 500 1014 b 556 1076 528 1014 556 1042 b 500 1139 556 1111 528 1139 b 444 1076 472 1139 444 1111 b 500 1014 444 1042 472 1014 "},"Æ":{"ha":1410,"x_min":0,"x_max":0,"o":"m 153 -14 b 0 125 63 -14 0 49 b 35 250 0 167 35 250 l 243 806 b 486 972 285 910 347 972 l 750 972 l 757 972 l 1229 972 b 1382 833 1326 972 1382 917 b 1229 694 1382 750 1326 694 l 910 694 l 910 611 l 1118 611 b 1257 486 1201 611 1257 556 b 1118 361 1257 417 1201 361 l 910 361 l 910 278 l 1243 278 b 1396 139 1340 278 1396 222 b 1243 0 1396 56 1340 0 l 757 0 b 604 139 660 0 604 56 l 604 208 l 354 208 l 319 125 b 153 -14 285 42 229 -14 m 604 458 l 604 694 l 500 694 l 417 458 "},"Ç":{"ha":931,"x_min":0,"x_max":0,"o":"m 438 -431 b 306 -340 347 -431 306 -389 b 424 -257 306 -290 340 -257 b 500 -229 486 -257 500 -243 b 424 -201 500 -215 486 -201 b 340 -125 375 -201 340 -167 l 340 0 b 56 389 161 58 56 207 l 56 583 b 521 1000 56 819 236 1000 b 903 764 764 1000 903 861 b 750 639 903 688 854 639 b 521 736 639 639 625 736 b 368 583 431 736 368 674 l 368 389 b 521 236 368 299 431 236 b 764 333 639 236 653 333 b 917 208 868 333 917 285 b 521 -28 917 111 778 -28 l 514 -28 l 514 -56 b 708 -243 639 -69 708 -139 b 438 -431 708 -333 611 -431 "},"È":{"ha":951,"x_min":0,"x_max":0,"o":"m 243 0 b 90 139 146 0 90 56 l 90 833 b 243 972 90 917 146 972 l 771 972 b 924 833 868 972 924 917 b 771 694 924 750 868 694 l 396 694 l 396 611 l 660 611 b 799 486 743 611 799 556 b 660 361 799 417 743 361 l 396 361 l 396 278 l 785 278 b 938 139 882 278 938 222 b 785 0 938 56 882 0 l 243 0 m 531 1083 b 406 1161 468 1083 428 1125 l 343 1264 b 322 1340 343 1264 322 1299 b 433 1444 322 1403 364 1444 b 572 1340 510 1444 551 1403 l 607 1236 b 621 1167 607 1236 621 1201 b 531 1083 621 1118 586 1083 "},"É":{"ha":951,"x_min":0,"x_max":0,"o":"m 243 0 b 90 139 146 0 90 56 l 90 833 b 243 972 90 917 146 972 l 771 972 b 924 833 868 972 924 917 b 771 694 924 750 868 694 l 396 694 l 396 611 l 660 611 b 799 486 743 611 799 556 b 660 361 799 417 743 361 l 396 361 l 396 278 l 785 278 b 938 139 882 278 938 222 b 785 0 938 56 882 0 l 243 0 m 482 1085 b 392 1168 426 1085 392 1119 b 406 1238 392 1203 406 1238 l 440 1342 b 579 1446 461 1404 503 1446 b 690 1342 649 1446 690 1404 b 669 1265 690 1300 669 1265 l 607 1163 b 482 1085 585 1126 544 1085 "},"Ê":{"ha":951,"x_min":0,"x_max":0,"o":"m 243 0 b 90 139 146 0 90 56 l 90 833 b 243 972 90 917 146 972 l 771 972 b 924 833 868 972 924 917 b 771 694 924 750 868 694 l 396 694 l 396 611 l 660 611 b 799 486 743 611 799 556 b 660 361 799 417 743 361 l 396 361 l 396 278 l 785 278 b 938 139 882 278 938 222 b 785 0 938 56 882 0 l 243 0 m 326 1083 b 229 1174 271 1083 229 1125 b 264 1250 229 1208 264 1250 l 354 1375 b 500 1444 375 1403 417 1444 b 646 1375 583 1444 625 1403 l 736 1250 b 771 1174 736 1250 771 1208 b 674 1083 771 1125 729 1083 b 556 1153 611 1083 582 1111 l 507 1231 l 493 1231 l 444 1153 b 326 1083 418 1111 389 1083 "},"Ë":{"ha":951,"x_min":0,"x_max":0,"o":"m 243 0 b 90 139 146 0 90 56 l 90 833 b 243 972 90 917 146 972 l 771 972 b 924 833 868 972 924 917 b 771 694 924 750 868 694 l 396 694 l 396 611 l 660 611 b 799 486 743 611 799 556 b 660 361 799 417 743 361 l 396 361 l 396 278 l 785 278 b 938 139 882 278 938 222 b 785 0 938 56 882 0 l 243 0 m 340 1097 b 208 1222 264 1097 208 1153 b 340 1347 208 1292 264 1347 b 472 1222 417 1347 472 1292 b 340 1097 472 1153 417 1097 m 660 1097 b 528 1222 583 1097 528 1153 b 660 1347 528 1292 583 1347 b 792 1222 736 1347 792 1292 b 660 1097 792 1153 736 1097 "},"Ì":{"ha":483,"x_min":0,"x_max":0,"o":"m 243 -14 b 90 125 146 -14 90 42 l 90 847 b 243 986 90 931 146 986 b 396 847 340 986 396 931 l 396 125 b 243 -14 396 42 340 -14 m 264 1083 b 139 1161 201 1083 161 1125 l 76 1264 b 56 1340 76 1264 56 1299 b 167 1444 56 1403 97 1444 b 306 1340 243 1444 285 1403 l 340 1236 b 354 1167 340 1236 354 1201 b 264 1083 354 1118 319 1083 "},"Í":{"ha":496,"x_min":0,"x_max":0,"o":"m 243 -14 b 90 125 146 -14 90 42 l 90 847 b 243 986 90 931 146 986 b 396 847 340 986 396 931 l 396 125 b 243 -14 396 42 340 -14 m 239 1083 b 149 1167 183 1083 149 1118 b 163 1236 149 1201 163 1236 l 197 1340 b 336 1444 218 1403 260 1444 b 447 1340 406 1444 447 1403 b 426 1264 447 1299 426 1264 l 364 1161 b 239 1083 342 1125 301 1083 "},"Î":{"ha":514,"x_min":0,"x_max":0,"o":"m 243 -14 b 90 125 146 -14 90 42 l 90 847 b 243 986 90 931 146 986 b 396 847 340 986 396 931 l 396 125 b 243 -14 396 42 340 -14 m 83 1083 b -14 1174 28 1083 -14 1125 b 21 1250 -14 1208 21 1250 l 111 1375 b 257 1444 132 1403 174 1444 b 403 1375 340 1444 382 1403 l 493 1250 b 528 1174 493 1250 528 1208 b 431 1083 528 1125 486 1083 b 313 1153 368 1083 339 1111 l 264 1231 l 250 1231 l 201 1153 b 83 1083 175 1111 146 1083 "},"Ï":{"ha":486,"x_min":0,"x_max":0,"o":"m 243 -14 b 90 125 146 -14 90 42 l 90 847 b 243 986 90 931 146 986 b 396 847 340 986 396 931 l 396 125 b 243 -14 396 42 340 -14 m 83 1097 b -49 1222 7 1097 -49 1153 b 83 1347 -49 1292 7 1347 b 215 1222 160 1347 215 1292 b 83 1097 215 1153 160 1097 m 403 1097 b 271 1222 326 1097 271 1153 b 403 1347 271 1292 326 1347 b 535 1222 479 1347 535 1292 b 403 1097 535 1153 479 1097 "},"Ð":{"ha":1042,"x_min":0,"x_max":0,"o":"m 264 0 b 111 139 167 0 111 56 l 111 347 b 14 472 111 347 14 375 b 111 597 14 569 111 597 l 111 833 b 264 972 111 917 167 972 l 507 972 b 986 556 806 972 986 792 l 986 417 b 507 0 986 181 806 0 l 264 0 m 507 250 b 674 417 604 250 674 319 l 674 556 b 507 722 674 653 604 722 l 417 722 l 417 597 l 444 597 b 583 472 528 597 583 542 b 444 347 583 403 528 347 l 417 347 l 417 250 "},"Ñ":{"ha":1083,"x_min":0,"x_max":0,"o":"m 243 -14 b 90 125 146 -14 90 42 l 90 847 b 243 986 90 929 146 986 b 438 847 326 986 375 938 l 674 528 l 688 528 l 688 847 b 840 986 688 931 743 986 b 993 847 938 986 993 931 l 993 125 b 840 -14 993 43 938 -14 b 646 125 757 -14 708 35 l 410 444 l 396 444 l 396 125 b 243 -14 396 42 340 -14 m 343 1083 b 246 1194 288 1083 246 1125 b 426 1361 246 1285 322 1361 b 607 1292 517 1361 558 1292 b 739 1361 656 1292 654 1361 b 836 1250 794 1361 836 1319 b 656 1083 836 1160 760 1083 b 475 1153 565 1083 524 1153 b 343 1083 426 1153 428 1083 "},"Ò":{"ha":1042,"x_min":0,"x_max":0,"o":"m 521 -28 b 56 389 236 -28 56 153 l 56 583 b 521 1000 56 819 236 1000 b 986 583 806 1000 986 819 l 986 389 b 521 -28 986 153 806 -28 m 521 208 b 674 389 604 208 674 278 l 674 583 b 521 764 674 694 604 764 b 368 583 438 764 368 694 l 368 389 b 521 208 368 278 438 208 m 538 1083 b 413 1161 475 1083 435 1125 l 350 1264 b 329 1340 350 1264 329 1299 b 440 1444 329 1403 371 1444 b 579 1340 517 1444 558 1403 l 614 1236 b 628 1167 614 1236 628 1201 b 538 1083 628 1118 593 1083 "},"Ó":{"ha":1042,"x_min":0,"x_max":0,"o":"m 521 -28 b 56 389 236 -28 56 153 l 56 583 b 521 1000 56 819 236 1000 b 986 583 806 1000 986 819 l 986 389 b 521 -28 986 153 806 -28 m 521 208 b 674 389 604 208 674 278 l 674 583 b 521 764 674 694 604 764 b 368 583 438 764 368 694 l 368 389 b 521 208 368 278 438 208 m 517 1083 b 426 1167 461 1083 426 1118 b 440 1236 426 1201 440 1236 l 475 1340 b 614 1444 496 1403 538 1444 b 725 1340 683 1444 725 1403 b 704 1264 725 1299 704 1264 l 642 1161 b 517 1083 619 1125 579 1083 "},"Ô":{"ha":1042,"x_min":0,"x_max":0,"o":"m 521 -28 b 56 389 236 -28 56 153 l 56 583 b 521 1000 56 819 236 1000 b 986 583 806 1000 986 819 l 986 389 b 521 -28 986 153 806 -28 m 521 208 b 674 389 604 208 674 278 l 674 583 b 521 764 674 694 604 764 b 368 583 438 764 368 694 l 368 389 b 521 208 368 278 438 208 m 347 1083 b 250 1174 292 1083 250 1125 b 285 1250 250 1208 285 1250 l 375 1375 b 521 1444 396 1403 438 1444 b 667 1375 604 1444 646 1403 l 757 1250 b 792 1174 757 1250 792 1208 b 694 1083 792 1125 750 1083 b 576 1153 632 1083 603 1111 l 528 1231 l 514 1231 l 465 1153 b 347 1083 439 1111 410 1083 "},"Õ":{"ha":1042,"x_min":0,"x_max":0,"o":"m 521 -28 b 56 389 236 -28 56 153 l 56 583 b 521 1000 56 819 236 1000 b 986 583 806 1000 986 819 l 986 389 b 521 -28 986 153 806 -28 m 521 208 b 674 389 604 208 674 278 l 674 583 b 521 764 674 694 604 764 b 368 583 438 764 368 694 l 368 389 b 521 208 368 278 438 208 m 322 1097 b 225 1208 267 1097 225 1139 b 406 1375 225 1299 301 1375 b 586 1306 496 1375 538 1306 b 718 1375 635 1306 633 1375 b 815 1264 774 1375 815 1333 b 635 1097 815 1174 739 1097 b 454 1167 544 1097 503 1167 b 322 1097 406 1167 407 1097 "},"Ö":{"ha":1042,"x_min":0,"x_max":0,"o":"m 521 -28 b 56 389 236 -28 56 153 l 56 583 b 521 1000 56 819 236 1000 b 986 583 806 1000 986 819 l 986 389 b 521 -28 986 153 806 -28 m 521 208 b 674 389 604 208 674 278 l 674 583 b 521 764 674 694 604 764 b 368 583 438 764 368 694 l 368 389 b 521 208 368 278 438 208 m 361 1097 b 229 1222 285 1097 229 1153 b 361 1347 229 1292 285 1347 b 493 1222 438 1347 493 1292 b 361 1097 493 1153 438 1097 m 681 1097 b 549 1222 604 1097 549 1153 b 681 1347 549 1292 604 1347 b 813 1222 757 1347 813 1292 b 681 1097 813 1153 757 1097 "},"×":{"ha":739,"x_min":0,"x_max":0,"o":"m 99 140 b 108 326 50 189 50 268 l 193 410 l 108 493 b 99 681 50 553 50 631 b 286 669 149 729 226 729 l 369 586 l 453 669 b 639 681 511 729 590 729 b 629 493 689 631 689 553 l 546 410 l 629 326 b 639 140 689 268 689 189 b 453 150 590 90 511 90 l 369 233 l 286 150 b 99 140 226 90 149 90 "},"Ø":{"ha":1042,"x_min":0,"x_max":0,"o":"m 243 -62 b 139 21 181 -62 139 -21 b 167 104 139 69 167 104 b 56 389 167 104 56 208 l 56 583 b 521 1000 56 819 236 1000 b 708 972 618 1000 708 972 b 799 1035 708 971 729 1035 b 903 951 861 1035 903 993 b 875 868 903 903 875 868 b 986 583 875 868 986 764 l 986 389 b 521 -28 986 153 806 -28 b 333 0 424 -28 333 0 b 243 -62 333 1 313 -62 m 521 208 b 674 389 604 208 674 278 l 674 542 l 472 215 b 521 208 472 214 500 208 m 569 757 b 521 764 569 757 542 764 b 368 583 438 764 368 694 l 368 431 "},"Ù":{"ha":1069,"x_min":0,"x_max":0,"o":"m 535 -28 b 90 375 257 -28 90 139 l 90 847 b 243 986 90 931 146 986 b 396 847 340 986 396 931 l 396 375 b 535 222 396 278 451 222 b 674 375 618 222 674 278 l 674 847 b 826 986 674 931 729 986 b 979 847 924 986 979 931 l 979 375 b 535 -28 979 139 813 -28 m 551 1069 b 426 1147 489 1069 449 1111 l 364 1250 b 343 1326 364 1250 343 1285 b 454 1431 343 1389 385 1431 b 593 1326 531 1431 572 1389 l 628 1222 b 642 1153 628 1222 642 1188 b 551 1069 642 1104 607 1069 "},"Ú":{"ha":1069,"x_min":0,"x_max":0,"o":"m 535 -28 b 90 375 257 -28 90 139 l 90 847 b 243 986 90 931 146 986 b 396 847 340 986 396 931 l 396 375 b 535 222 396 278 451 222 b 674 375 618 222 674 278 l 674 847 b 826 986 674 931 729 986 b 979 847 924 986 979 931 l 979 375 b 535 -28 979 139 813 -28 m 546 1069 b 456 1153 490 1069 456 1104 b 469 1222 456 1188 469 1222 l 504 1326 b 643 1431 525 1389 567 1431 b 754 1326 713 1431 754 1389 b 733 1250 754 1285 733 1250 l 671 1147 b 546 1069 649 1111 608 1069 "},"Û":{"ha":1069,"x_min":0,"x_max":0,"o":"m 535 -28 b 90 375 257 -28 90 139 l 90 847 b 243 986 90 931 146 986 b 396 847 340 986 396 931 l 396 375 b 535 222 396 278 451 222 b 674 375 618 222 674 278 l 674 847 b 826 986 674 931 729 986 b 979 847 924 986 979 931 l 979 375 b 535 -28 979 139 813 -28 m 361 1069 b 264 1160 306 1069 264 1111 b 299 1236 264 1194 299 1236 l 389 1361 b 535 1431 410 1389 451 1431 b 681 1361 618 1431 660 1389 l 771 1236 b 806 1160 771 1236 806 1194 b 708 1069 806 1111 764 1069 b 590 1139 646 1069 617 1097 l 542 1217 l 528 1217 l 479 1139 b 361 1069 453 1097 424 1069 "},"Ü":{"ha":1069,"x_min":0,"x_max":0,"o":"m 535 -28 b 90 375 257 -28 90 139 l 90 847 b 243 986 90 931 146 986 b 396 847 340 986 396 931 l 396 375 b 535 222 396 278 451 222 b 674 375 618 222 674 278 l 674 847 b 826 986 674 931 729 986 b 979 847 924 986 979 931 l 979 375 b 535 -28 979 139 813 -28 m 389 1097 b 257 1222 313 1097 257 1153 b 389 1347 257 1292 313 1347 b 521 1222 465 1347 521 1292 b 389 1097 521 1153 465 1097 m 708 1097 b 576 1222 632 1097 576 1153 b 708 1347 576 1292 632 1347 b 840 1222 785 1347 840 1292 b 708 1097 840 1153 785 1097 "},"Ý":{"ha":944,"x_min":0,"x_max":0,"o":"m 472 -14 b 319 125 375 -14 319 42 l 319 347 l 56 722 b 0 847 56 722 0 792 b 160 986 0 931 56 986 b 285 917 236 986 285 917 l 465 653 l 479 653 l 660 917 b 785 986 660 917 708 986 b 944 847 889 986 944 931 b 889 722 944 792 889 722 l 625 347 l 625 125 b 472 -14 625 42 569 -14 m 482 1069 b 392 1153 426 1069 392 1104 b 406 1222 392 1188 406 1222 l 440 1326 b 579 1431 461 1389 503 1431 b 690 1326 649 1431 690 1389 b 669 1250 690 1285 669 1250 l 607 1147 b 482 1069 585 1111 544 1069 "},"Þ":{"ha":972,"x_min":0,"x_max":0,"o":"m 243 -28 b 90 111 146 -28 90 28 l 90 875 b 243 1014 90 958 146 1014 b 396 875 340 1014 396 958 l 396 847 l 521 847 b 951 493 799 847 951 694 b 521 139 951 292 799 139 l 396 139 l 396 111 b 243 -28 396 28 340 -28 m 521 389 b 632 493 590 389 632 431 b 521 597 632 556 590 597 l 396 597 l 396 389 "},"ß":{"ha":903,"x_min":0,"x_max":0,"o":"m 556 -28 b 375 111 424 -28 375 35 b 472 208 375 167 417 208 b 542 194 500 208 514 194 b 611 264 583 194 611 222 b 417 542 611 347 417 361 b 479 708 417 625 479 639 b 417 792 479 764 451 792 b 347 708 375 792 347 764 l 347 119 b 208 -7 347 49 292 -7 b 69 119 125 -7 69 49 l 69 708 b 417 1000 69 875 194 1000 b 757 722 632 1000 757 875 b 681 542 757 625 681 611 b 889 236 681 444 889 431 b 556 -28 889 97 764 -28 "},"à":{"ha":813,"x_min":0,"x_max":0,"o":"m 299 -14 b 35 222 139 -14 35 90 b 382 458 35 354 139 458 l 472 458 b 389 535 472 493 431 535 b 208 465 306 535 306 465 b 83 569 125 465 83 507 b 389 743 83 639 174 743 b 750 458 618 743 750 611 l 750 125 b 611 0 750 56 694 0 b 486 69 514 0 486 69 l 472 69 b 299 -14 472 69 417 -14 m 382 188 b 472 272 431 188 472 229 l 472 285 l 382 285 b 313 236 333 285 313 264 b 382 188 313 208 333 188 m 424 833 b 299 911 361 833 321 875 l 236 1014 b 215 1090 236 1014 215 1049 b 326 1194 215 1153 257 1194 b 465 1090 403 1194 444 1153 l 500 986 b 514 917 500 986 514 951 b 424 833 514 868 479 833 "},"á":{"ha":813,"x_min":0,"x_max":0,"o":"m 299 -14 b 35 222 139 -14 35 90 b 382 458 35 354 139 458 l 472 458 b 389 535 472 493 431 535 b 208 465 306 535 306 465 b 83 569 125 465 83 507 b 389 743 83 639 174 743 b 750 458 618 743 750 611 l 750 125 b 611 0 750 56 694 0 b 486 69 514 0 486 69 l 472 69 b 299 -14 472 69 417 -14 m 382 188 b 472 272 431 188 472 229 l 472 285 l 382 285 b 313 236 333 285 313 264 b 382 188 313 208 333 188 m 417 833 b 326 917 361 833 326 868 b 340 986 326 951 340 986 l 375 1090 b 514 1194 396 1153 438 1194 b 625 1090 583 1194 625 1153 b 604 1014 625 1049 604 1014 l 542 911 b 417 833 519 875 479 833 "},"â":{"ha":813,"x_min":0,"x_max":0,"o":"m 299 -14 b 35 222 139 -14 35 90 b 382 458 35 354 139 458 l 472 458 b 389 535 472 493 431 535 b 208 465 306 535 306 465 b 83 569 125 465 83 507 b 389 743 83 639 174 743 b 750 458 618 743 750 611 l 750 125 b 611 0 750 56 694 0 b 486 69 514 0 486 69 l 472 69 b 299 -14 472 69 417 -14 m 382 188 b 472 272 431 188 472 229 l 472 285 l 382 285 b 313 236 333 285 313 264 b 382 188 313 208 333 188 m 246 833 b 149 924 190 833 149 875 b 183 1000 149 958 183 1000 l 274 1125 b 419 1194 294 1153 336 1194 b 565 1125 503 1194 544 1153 l 656 1000 b 690 924 656 1000 690 958 b 593 833 690 875 649 833 b 475 903 531 833 501 861 l 426 981 l 413 981 l 364 903 b 246 833 338 861 308 833 "},"ã":{"ha":813,"x_min":0,"x_max":0,"o":"m 299 -14 b 35 222 139 -14 35 90 b 382 458 35 354 139 458 l 472 458 b 389 535 472 493 431 535 b 208 465 306 535 306 465 b 83 569 125 465 83 507 b 389 743 83 639 174 743 b 750 458 618 743 750 611 l 750 125 b 611 0 750 56 694 0 b 486 69 514 0 486 69 l 472 69 b 299 -14 472 69 417 -14 m 382 188 b 472 272 431 188 472 229 l 472 285 l 382 285 b 313 236 333 285 313 264 b 382 188 313 208 333 188 m 222 861 b 125 972 167 861 125 903 b 306 1139 125 1063 201 1139 b 486 1069 396 1139 438 1069 b 618 1139 535 1069 533 1139 b 715 1028 674 1139 715 1097 b 535 861 715 938 639 861 b 354 931 444 861 403 931 b 222 861 306 931 307 861 "},"ä":{"ha":813,"x_min":0,"x_max":0,"o":"m 299 -14 b 35 222 139 -14 35 90 b 382 458 35 354 139 458 l 472 458 b 389 535 472 493 431 535 b 208 465 306 535 306 465 b 83 569 125 465 83 507 b 389 743 83 639 174 743 b 750 458 618 743 750 611 l 750 125 b 611 0 750 56 694 0 b 486 69 514 0 486 69 l 472 69 b 299 -14 472 69 417 -14 m 382 188 b 472 272 431 188 472 229 l 472 285 l 382 285 b 313 236 333 285 313 264 b 382 188 313 208 333 188 m 246 861 b 114 986 169 861 114 917 b 246 1111 114 1056 169 1111 b 378 986 322 1111 378 1056 b 246 861 378 917 322 861 m 565 861 b 433 986 489 861 433 917 b 565 1111 433 1056 489 1111 b 697 986 642 1111 697 1056 b 565 861 697 917 642 861 "},"å":{"ha":813,"x_min":0,"x_max":0,"o":"m 299 -14 b 35 222 139 -14 35 90 b 382 458 35 354 139 458 l 472 458 b 389 535 472 493 431 535 b 208 465 306 535 306 465 b 83 569 125 465 83 507 b 389 743 83 639 174 743 b 750 458 618 743 750 611 l 750 125 b 611 0 750 56 694 0 b 486 69 514 0 486 69 l 472 69 b 299 -14 472 69 417 -14 m 382 188 b 472 272 431 188 472 229 l 472 285 l 382 285 b 313 236 333 285 313 264 b 382 188 313 208 333 188 m 406 819 b 190 1014 281 819 190 910 b 406 1208 190 1118 281 1208 b 621 1014 531 1208 621 1118 b 406 819 621 910 531 819 m 406 951 b 461 1014 433 951 461 979 b 406 1076 461 1049 433 1076 b 350 1014 378 1076 350 1049 b 406 951 350 979 378 951 "},"æ":{"ha":1229,"x_min":0,"x_max":0,"o":"m 326 -21 b 35 222 139 -21 35 90 b 382 458 35 354 139 458 l 472 458 b 389 535 472 493 431 535 b 208 465 306 535 306 465 b 83 569 125 465 83 507 b 389 743 83 639 174 743 b 611 660 542 743 611 660 l 625 660 b 833 743 625 660 694 743 b 1194 424 1049 743 1194 597 l 1194 403 b 1056 278 1194 333 1139 278 l 750 278 b 840 181 750 222 792 181 b 1035 250 924 181 938 250 b 1160 139 1118 250 1160 208 b 840 -21 1160 76 1056 -21 b 618 63 688 -21 618 63 l 604 63 b 326 -21 604 63 535 -21 m 382 188 b 472 272 431 188 472 229 l 472 285 l 382 285 b 313 236 333 285 313 264 b 382 188 313 208 333 188 m 917 438 b 833 521 917 486 882 521 b 750 438 785 521 750 486 "},"ç":{"ha":750,"x_min":0,"x_max":0,"o":"m 333 -417 b 201 -326 243 -417 201 -375 b 319 -243 201 -276 236 -243 b 396 -215 382 -243 396 -229 b 319 -187 396 -201 382 -187 b 236 -111 271 -187 236 -153 l 236 13 b 42 299 114 67 42 175 l 42 424 b 410 743 42 597 188 743 b 715 549 604 743 715 631 b 590 438 715 479 674 438 b 410 514 493 438 479 514 b 319 424 361 514 319 472 l 319 299 b 410 208 319 250 361 208 b 604 285 493 208 507 285 b 729 174 688 285 729 243 b 410 -21 729 90 618 -21 l 410 -42 b 604 -229 535 -56 604 -125 b 333 -417 604 -319 507 -417 "},"è":{"ha":799,"x_min":0,"x_max":0,"o":"m 410 -21 b 42 299 188 -21 42 125 l 42 424 b 403 743 42 597 188 743 b 764 424 618 743 764 597 l 764 403 b 625 278 764 333 708 278 l 319 278 b 410 181 319 222 361 181 b 604 250 493 181 507 250 b 729 139 688 250 729 208 b 410 -21 729 76 625 -21 m 486 438 b 403 521 486 486 451 521 b 319 438 354 521 319 486 m 417 833 b 292 911 354 833 314 875 l 229 1014 b 208 1090 229 1014 208 1049 b 319 1194 208 1153 250 1194 b 458 1090 396 1194 438 1153 l 493 986 b 507 917 493 986 507 951 b 417 833 507 868 472 833 "},"é":{"ha":799,"x_min":0,"x_max":0,"o":"m 410 -21 b 42 299 188 -21 42 125 l 42 424 b 403 743 42 597 188 743 b 764 424 618 743 764 597 l 764 403 b 625 278 764 333 708 278 l 319 278 b 410 181 319 222 361 181 b 604 250 493 181 507 250 b 729 139 688 250 729 208 b 410 -21 729 76 625 -21 m 486 438 b 403 521 486 486 451 521 b 319 438 354 521 319 486 m 396 833 b 306 917 340 833 306 868 b 319 986 306 951 319 986 l 354 1090 b 493 1194 375 1153 417 1194 b 604 1090 563 1194 604 1153 b 583 1014 604 1049 583 1014 l 521 911 b 396 833 499 875 458 833 "},"ê":{"ha":799,"x_min":0,"x_max":0,"o":"m 410 -21 b 42 299 188 -21 42 125 l 42 424 b 403 743 42 597 188 743 b 764 424 618 743 764 597 l 764 403 b 625 278 764 333 708 278 l 319 278 b 410 181 319 222 361 181 b 604 250 493 181 507 250 b 729 139 688 250 729 208 b 410 -21 729 76 625 -21 m 486 438 b 403 521 486 486 451 521 b 319 438 354 521 319 486 m 225 833 b 128 924 169 833 128 875 b 163 1000 128 958 163 1000 l 253 1125 b 399 1194 274 1153 315 1194 b 544 1125 482 1194 524 1153 l 635 1000 b 669 924 635 1000 669 958 b 572 833 669 875 628 833 b 454 903 510 833 481 861 l 406 981 l 392 981 l 343 903 b 225 833 317 861 288 833 "},"ë":{"ha":799,"x_min":0,"x_max":0,"o":"m 410 -21 b 42 299 188 -21 42 125 l 42 424 b 403 743 42 597 188 743 b 764 424 618 743 764 597 l 764 403 b 625 278 764 333 708 278 l 319 278 b 410 181 319 222 361 181 b 604 250 493 181 507 250 b 729 139 688 250 729 208 b 410 -21 729 76 625 -21 m 486 438 b 403 521 486 486 451 521 b 319 438 354 521 319 486 m 239 847 b 107 972 163 847 107 903 b 239 1097 107 1042 163 1097 b 371 972 315 1097 371 1042 b 239 847 371 903 315 847 m 558 847 b 426 972 482 847 426 903 b 558 1097 426 1042 482 1097 b 690 972 635 1097 690 1042 b 558 847 690 903 635 847 "},"ì":{"ha":435,"x_min":0,"x_max":0,"o":"m 219 -7 b 81 118 136 -7 81 49 l 81 590 b 219 715 81 660 136 715 b 358 590 303 715 358 660 l 358 118 b 219 -7 358 49 303 -7 m 222 833 b 97 911 160 833 119 875 l 35 1014 b 14 1090 35 1014 14 1049 b 125 1194 14 1153 56 1194 b 264 1090 201 1194 243 1153 l 299 986 b 313 917 299 986 313 951 b 222 833 313 868 278 833 "},"í":{"ha":447,"x_min":0,"x_max":0,"o":"m 215 -7 b 76 118 132 -7 76 49 l 76 590 b 215 715 76 660 132 715 b 354 590 299 715 354 660 l 354 118 b 215 -7 354 49 299 -7 m 225 833 b 135 917 169 833 135 868 b 149 986 135 951 149 986 l 183 1090 b 322 1194 204 1153 246 1194 b 433 1090 392 1194 433 1153 b 413 1014 433 1049 413 1014 l 350 911 b 225 833 328 875 288 833 "},"î":{"ha":472,"x_min":0,"x_max":0,"o":"m 236 -7 b 97 118 153 -7 97 49 l 97 590 b 236 715 97 660 153 715 b 375 590 319 715 375 660 l 375 118 b 236 -7 375 49 319 -7 m 63 833 b -35 924 7 833 -35 875 b 0 1000 -35 958 0 1000 l 90 1125 b 236 1194 111 1153 153 1194 b 382 1125 319 1194 361 1153 l 472 1000 b 507 924 472 1000 507 958 b 410 833 507 875 465 833 b 292 903 347 833 318 861 l 243 981 l 229 981 l 181 903 b 63 833 154 861 125 833 "},"ï":{"ha":458,"x_min":0,"x_max":0,"o":"m 229 -7 b 90 118 146 -7 90 49 l 90 590 b 229 715 90 660 146 715 b 368 590 313 715 368 660 l 368 118 b 229 -7 368 49 313 -7 m 69 847 b -62 972 -7 847 -62 903 b 69 1097 -62 1042 -7 1097 b 201 972 146 1097 201 1042 b 69 847 201 903 146 847 m 389 847 b 257 972 313 847 257 903 b 389 1097 257 1042 313 1097 b 521 972 465 1097 521 1042 b 389 847 521 903 465 847 "},"ð":{"ha":819,"x_min":0,"x_max":0,"o":"m 403 -21 b 28 299 174 -21 28 118 l 28 313 b 347 618 28 493 153 618 b 500 569 438 618 500 569 l 514 569 b 431 694 500 646 431 694 b 340 632 417 660 389 632 b 243 722 278 632 243 667 b 250 764 243 743 250 764 b 153 875 250 764 153 785 b 278 1000 153 951 201 1000 b 375 986 326 1000 375 986 b 493 1069 396 1035 431 1069 b 583 983 549 1069 583 1035 b 563 917 583 951 563 917 b 778 472 681 819 778 722 l 778 299 b 403 -21 778 125 632 -21 m 403 188 b 500 299 458 188 500 229 l 500 313 b 403 424 500 382 458 424 b 306 313 347 424 306 382 l 306 299 b 403 188 306 229 347 188 "},"ñ":{"ha":854,"x_min":0,"x_max":0,"o":"m 208 -7 b 69 118 125 -7 69 49 l 69 604 b 208 729 69 672 125 729 b 333 660 306 729 333 661 l 347 660 b 514 743 347 660 403 743 b 792 424 667 743 792 618 l 792 118 b 653 -7 792 49 736 -7 b 514 118 569 -7 514 49 l 514 424 b 431 521 514 479 472 521 b 347 424 389 521 347 479 l 347 118 b 208 -7 347 49 292 -7 m 229 861 b 132 972 174 861 132 903 b 313 1139 132 1063 208 1139 b 493 1069 403 1139 444 1069 b 625 1139 542 1069 540 1139 b 722 1028 681 1139 722 1097 b 542 861 722 938 646 861 b 361 931 451 861 410 931 b 229 861 313 931 314 861 "},"ò":{"ha":819,"x_min":0,"x_max":0,"o":"m 410 -21 b 42 299 188 -21 42 125 l 42 424 b 410 743 42 597 188 743 b 778 424 632 743 778 597 l 778 299 b 410 -21 778 125 632 -21 m 410 194 b 500 299 458 194 500 236 l 500 424 b 410 528 500 486 458 528 b 319 424 361 528 319 486 l 319 299 b 410 194 319 236 361 194 m 413 833 b 288 911 350 833 310 875 l 225 1014 b 204 1090 225 1014 204 1049 b 315 1194 204 1153 246 1194 b 454 1090 392 1194 433 1153 l 489 986 b 503 917 489 986 503 951 b 413 833 503 868 468 833 "},"ó":{"ha":819,"x_min":0,"x_max":0,"o":"m 410 -21 b 42 299 188 -21 42 125 l 42 424 b 410 743 42 597 188 743 b 778 424 632 743 778 597 l 778 299 b 410 -21 778 125 632 -21 m 410 194 b 500 299 458 194 500 236 l 500 424 b 410 528 500 486 458 528 b 319 424 361 528 319 486 l 319 299 b 410 194 319 236 361 194 m 419 833 b 329 917 364 833 329 868 b 343 986 329 951 343 986 l 378 1090 b 517 1194 399 1153 440 1194 b 628 1090 586 1194 628 1153 b 607 1014 628 1049 607 1014 l 544 911 b 419 833 522 875 482 833 "},"ô":{"ha":819,"x_min":0,"x_max":0,"o":"m 410 -21 b 42 299 188 -21 42 125 l 42 424 b 410 743 42 597 188 743 b 778 424 632 743 778 597 l 778 299 b 410 -21 778 125 632 -21 m 410 194 b 500 299 458 194 500 236 l 500 424 b 410 528 500 486 458 528 b 319 424 361 528 319 486 l 319 299 b 410 194 319 236 361 194 m 236 833 b 139 924 181 833 139 875 b 174 1000 139 958 174 1000 l 264 1125 b 410 1194 285 1153 326 1194 b 556 1125 493 1194 535 1153 l 646 1000 b 681 924 646 1000 681 958 b 583 833 681 875 639 833 b 465 903 521 833 492 861 l 417 981 l 403 981 l 354 903 b 236 833 328 861 299 833 "},"õ":{"ha":819,"x_min":0,"x_max":0,"o":"m 410 -21 b 42 299 188 -21 42 125 l 42 424 b 410 743 42 597 188 743 b 778 424 632 743 778 597 l 778 299 b 410 -21 778 125 632 -21 m 410 194 b 500 299 458 194 500 236 l 500 424 b 410 528 500 486 458 528 b 319 424 361 528 319 486 l 319 299 b 410 194 319 236 361 194 m 211 847 b 114 958 156 847 114 889 b 294 1125 114 1049 190 1125 b 475 1056 385 1125 426 1056 b 607 1125 524 1056 522 1125 b 704 1014 663 1125 704 1083 b 524 847 704 924 628 847 b 343 917 433 847 392 917 b 211 847 294 917 296 847 "},"ö":{"ha":819,"x_min":0,"x_max":0,"o":"m 410 -21 b 42 299 188 -21 42 125 l 42 424 b 410 743 42 597 188 743 b 778 424 632 743 778 597 l 778 299 b 410 -21 778 125 632 -21 m 410 194 b 500 299 458 194 500 236 l 500 424 b 410 528 500 486 458 528 b 319 424 361 528 319 486 l 319 299 b 410 194 319 236 361 194 m 250 847 b 118 972 174 847 118 903 b 250 1097 118 1042 174 1097 b 382 972 326 1097 382 1042 b 250 847 382 903 326 847 m 569 847 b 438 972 493 847 438 903 b 569 1097 438 1042 493 1097 b 701 972 646 1097 701 1042 b 569 847 701 903 646 847 "},"÷":{"ha":792,"x_min":0,"x_max":0,"o":"m 389 0 b 229 146 292 0 229 63 b 389 292 229 229 292 292 b 549 146 486 292 549 229 b 389 0 549 63 486 0 m 153 347 b 14 472 69 347 14 403 b 153 597 14 542 69 597 l 639 597 b 778 472 722 597 778 542 b 639 347 778 403 722 347 l 153 347 m 389 653 b 229 799 292 653 229 715 b 389 944 229 882 292 944 b 549 799 486 944 549 882 b 389 653 549 715 486 653 "},"ø":{"ha":819,"x_min":0,"x_max":0,"o":"m 208 -62 b 104 21 146 -62 104 -21 b 125 90 104 56 125 90 b 42 299 125 90 42 167 l 42 424 b 410 743 42 597 188 743 b 521 729 465 743 521 729 b 611 785 521 729 549 785 b 715 701 674 785 715 743 b 694 632 715 667 694 632 b 778 424 694 632 778 556 l 778 299 b 410 -21 778 125 632 -21 b 299 -7 354 -21 299 -7 b 208 -62 299 -7 271 -62 m 410 194 b 500 299 458 194 500 236 l 500 368 l 396 194 m 424 528 l 410 528 b 319 424 361 528 319 486 l 319 361 "},"ù":{"ha":861,"x_min":0,"x_max":0,"o":"m 347 -21 b 69 299 194 -21 69 104 l 69 604 b 208 729 69 674 125 729 b 347 604 292 729 347 674 l 347 299 b 431 201 347 243 389 201 b 514 299 472 201 514 243 l 514 604 b 653 729 514 674 569 729 b 792 604 736 729 792 674 l 792 118 b 653 -7 792 50 736 -7 b 528 63 556 -7 528 61 l 514 63 b 347 -21 514 63 458 -21 m 433 833 b 308 911 371 833 331 875 l 246 1014 b 225 1090 246 1014 225 1049 b 336 1194 225 1153 267 1194 b 475 1090 413 1194 454 1153 l 510 986 b 524 917 510 986 524 951 b 433 833 524 868 489 833 "},"ú":{"ha":861,"x_min":0,"x_max":0,"o":"m 347 -21 b 69 299 194 -21 69 104 l 69 604 b 208 729 69 674 125 729 b 347 604 292 729 347 674 l 347 299 b 431 201 347 243 389 201 b 514 299 472 201 514 243 l 514 604 b 653 729 514 674 569 729 b 792 604 736 729 792 674 l 792 118 b 653 -7 792 50 736 -7 b 528 63 556 -7 528 61 l 514 63 b 347 -21 514 63 458 -21 m 426 833 b 336 917 371 833 336 868 b 350 986 336 951 350 986 l 385 1090 b 524 1194 406 1153 447 1194 b 635 1090 593 1194 635 1153 b 614 1014 635 1049 614 1014 l 551 911 b 426 833 529 875 489 833 "},"û":{"ha":861,"x_min":0,"x_max":0,"o":"m 347 -21 b 69 299 194 -21 69 104 l 69 604 b 208 729 69 674 125 729 b 347 604 292 729 347 674 l 347 299 b 431 201 347 243 389 201 b 514 299 472 201 514 243 l 514 604 b 653 729 514 674 569 729 b 792 604 736 729 792 674 l 792 118 b 653 -7 792 50 736 -7 b 528 63 556 -7 528 61 l 514 63 b 347 -21 514 63 458 -21 m 257 833 b 160 924 201 833 160 875 b 194 1000 160 958 194 1000 l 285 1125 b 431 1194 306 1153 347 1194 b 576 1125 514 1194 556 1153 l 667 1000 b 701 924 667 1000 701 958 b 604 833 701 875 660 833 b 486 903 542 833 513 861 l 438 981 l 424 981 l 375 903 b 257 833 349 861 319 833 "},"ü":{"ha":861,"x_min":0,"x_max":0,"o":"m 347 -21 b 69 299 194 -21 69 104 l 69 604 b 208 729 69 674 125 729 b 347 604 292 729 347 674 l 347 299 b 431 201 347 243 389 201 b 514 299 472 201 514 243 l 514 604 b 653 729 514 674 569 729 b 792 604 736 729 792 674 l 792 118 b 653 -7 792 50 736 -7 b 528 63 556 -7 528 61 l 514 63 b 347 -21 514 63 458 -21 m 271 847 b 139 972 194 847 139 903 b 271 1097 139 1042 194 1097 b 403 972 347 1097 403 1042 b 271 847 403 903 347 847 m 590 847 b 458 972 514 847 458 903 b 590 1097 458 1042 514 1097 b 722 972 667 1097 722 1042 b 590 847 722 903 667 847 "},"ý":{"ha":771,"x_min":0,"x_max":0,"o":"m 271 -306 b 146 -187 194 -306 146 -257 b 174 -90 146 -146 174 -90 l 243 69 l 28 514 b 0 611 28 514 0 569 b 125 729 0 681 49 729 b 285 611 208 729 257 681 l 382 375 l 396 375 l 486 611 b 646 729 514 681 563 729 b 771 611 722 729 771 681 b 743 514 771 569 743 514 l 431 -187 b 271 -306 396 -264 354 -306 m 410 833 b 319 917 354 833 319 868 b 333 986 319 951 333 986 l 368 1090 b 507 1194 389 1153 431 1194 b 618 1090 576 1194 618 1153 b 597 1014 618 1049 597 1014 l 535 911 b 410 833 513 875 472 833 "},"þ":{"ha":854,"x_min":0,"x_max":0,"o":"m 215 -306 b 76 -181 132 -306 76 -250 l 76 875 b 215 1000 76 944 132 1000 b 354 875 299 1000 354 944 l 354 708 l 368 708 b 528 743 368 708 410 743 b 813 424 681 743 813 611 l 813 299 b 528 -21 813 111 681 -21 b 368 14 410 -21 368 14 l 354 14 l 354 -181 b 215 -306 354 -250 299 -306 m 444 194 b 535 299 493 194 535 236 l 535 424 b 444 528 535 486 493 528 b 354 424 396 528 354 486 l 354 299 b 444 194 354 236 396 194 "},"ÿ":{"ha":771,"x_min":0,"x_max":0,"o":"m 271 -306 b 146 -187 194 -306 146 -257 b 174 -90 146 -146 174 -90 l 243 69 l 28 514 b 0 611 28 514 0 569 b 125 729 0 681 49 729 b 285 611 208 729 257 681 l 382 375 l 396 375 l 486 611 b 646 729 514 681 563 729 b 771 611 722 729 771 681 b 743 514 771 569 743 514 l 431 -187 b 271 -306 396 -264 354 -306 m 239 847 b 107 972 163 847 107 903 b 239 1097 107 1042 163 1097 b 371 972 315 1097 371 1042 b 239 847 371 903 315 847 m 558 847 b 426 972 482 847 426 903 b 558 1097 426 1042 482 1097 b 690 972 635 1097 690 1042 b 558 847 690 903 635 847 "},"Ā":{"ha":1000,"x_min":0,"x_max":0,"o":"m 153 -14 b 0 125 63 -14 0 49 b 35 250 0 167 35 250 l 257 833 b 500 1000 299 938 361 1000 b 743 833 639 1000 703 938 l 965 250 b 1000 125 965 250 1000 167 b 847 -14 1000 49 938 -14 b 681 125 771 -14 715 42 l 646 208 l 354 208 l 319 125 b 153 -14 285 42 229 -14 m 583 458 l 507 667 l 493 667 l 417 458 m 354 1111 b 250 1215 292 1111 250 1153 b 354 1319 250 1278 292 1319 l 674 1319 b 778 1215 736 1319 778 1278 b 674 1111 778 1153 736 1111 l 354 1111 "},"ā":{"ha":813,"x_min":0,"x_max":0,"o":"m 299 -14 b 35 222 139 -14 35 90 b 382 458 35 354 139 458 l 472 458 b 389 535 472 493 431 535 b 208 465 306 535 306 465 b 83 569 125 465 83 507 b 389 743 83 639 174 743 b 750 458 618 743 750 611 l 750 125 b 611 0 750 56 694 0 b 486 69 514 0 486 69 l 472 69 b 299 -14 472 69 417 -14 m 382 188 b 472 272 431 188 472 229 l 472 285 l 382 285 b 313 236 333 285 313 264 b 382 188 313 208 333 188 m 274 875 b 169 979 211 875 169 917 b 274 1083 169 1042 211 1083 l 593 1083 b 697 979 656 1083 697 1042 b 593 875 697 917 656 875 l 274 875 "},"Ă":{"ha":1000,"x_min":0,"x_max":0,"o":"m 153 -14 b 0 125 63 -14 0 49 b 35 250 0 167 35 250 l 257 833 b 500 1000 299 938 361 1000 b 743 833 639 1000 703 938 l 965 250 b 1000 125 965 250 1000 167 b 847 -14 1000 49 938 -14 b 681 125 771 -14 715 42 l 646 208 l 354 208 l 319 125 b 153 -14 285 42 229 -14 m 583 458 l 507 667 l 493 667 l 417 458 m 500 1083 b 243 1264 340 1083 243 1181 b 340 1361 243 1319 285 1361 b 500 1285 431 1361 417 1285 b 660 1361 583 1285 569 1361 b 757 1264 715 1361 757 1319 b 500 1083 757 1181 660 1083 "},"ă":{"ha":813,"x_min":0,"x_max":0,"o":"m 299 -14 b 35 222 139 -14 35 90 b 382 458 35 354 139 458 l 472 458 b 389 535 472 493 431 535 b 208 465 306 535 306 465 b 83 569 125 465 83 507 b 389 743 83 639 174 743 b 750 458 618 743 750 611 l 750 125 b 611 0 750 56 694 0 b 486 69 514 0 486 69 l 472 69 b 299 -14 472 69 417 -14 m 382 188 b 472 272 431 188 472 229 l 472 285 l 382 285 b 313 236 333 285 313 264 b 382 188 313 208 333 188 m 419 833 b 163 1014 260 833 163 931 b 260 1111 163 1069 204 1111 b 419 1035 350 1111 336 1035 b 579 1111 503 1035 489 1111 b 676 1014 635 1111 676 1069 b 419 833 676 931 579 833 "},"Ą":{"ha":1000,"x_min":0,"x_max":0,"o":"m 819 -361 b 590 -181 681 -361 590 -271 b 744 28 590 -42 743 28 b 681 125 718 51 697 85 l 646 208 l 354 208 l 319 125 b 153 -14 285 42 229 -14 b 0 125 63 -14 0 49 b 35 250 0 167 35 250 l 257 833 b 500 1000 299 938 361 1000 b 743 833 639 1000 703 938 l 965 250 b 1000 125 965 250 1000 167 b 806 -125 1000 -14 806 -17 b 875 -181 806 -160 826 -181 b 972 -271 938 -181 972 -215 b 819 -361 972 -319 931 -361 m 583 458 l 507 667 l 493 667 l 417 458 "},"ą":{"ha":813,"x_min":0,"x_max":0,"o":"m 590 -339 b 361 -158 451 -339 361 -249 b 507 36 361 -33 507 36 l 510 36 b 486 69 493 53 486 69 l 472 69 b 299 -14 472 69 417 -14 b 35 222 139 -14 35 90 b 382 458 35 354 139 458 l 472 458 b 389 535 472 493 431 535 b 208 465 306 535 306 465 b 83 569 125 465 83 507 b 389 743 83 639 174 743 b 750 458 618 743 750 611 l 750 125 b 576 -103 750 0 576 0 b 646 -158 576 -137 597 -158 b 743 -249 708 -158 743 -193 b 590 -339 743 -297 701 -339 m 382 188 b 472 272 431 188 472 229 l 472 285 l 382 285 b 313 236 333 285 313 264 b 382 188 313 208 333 188 "},"Ć":{"ha":931,"x_min":0,"x_max":0,"o":"m 521 -28 b 56 389 236 -28 56 153 l 56 583 b 521 1000 56 819 236 1000 b 903 764 764 1000 903 861 b 750 639 903 688 854 639 b 521 736 639 639 625 736 b 368 583 431 736 368 674 l 368 389 b 521 236 368 299 431 236 b 764 333 639 236 653 333 b 917 208 868 333 917 285 b 521 -28 917 111 778 -28 m 507 1083 b 417 1167 451 1083 417 1118 b 431 1236 417 1201 431 1236 l 465 1340 b 604 1444 486 1403 528 1444 b 715 1340 674 1444 715 1403 b 694 1264 715 1299 694 1264 l 632 1161 b 507 1083 610 1125 569 1083 "},"ć":{"ha":750,"x_min":0,"x_max":0,"o":"m 410 -21 b 42 299 188 -21 42 125 l 42 424 b 410 743 42 597 188 743 b 715 549 604 743 715 631 b 590 438 715 479 674 438 b 410 514 493 438 479 514 b 319 424 361 514 319 472 l 319 299 b 410 208 319 250 361 208 b 604 285 493 208 507 285 b 729 174 688 285 729 243 b 410 -21 729 90 618 -21 m 399 833 b 308 917 343 833 308 868 b 322 986 308 951 322 986 l 357 1090 b 496 1194 378 1153 419 1194 b 607 1090 565 1194 607 1153 b 586 1014 607 1049 586 1014 l 524 911 b 399 833 501 875 461 833 "},"Ĉ":{"ha":931,"x_min":0,"x_max":0,"o":"m 521 -28 b 56 389 236 -28 56 153 l 56 583 b 521 1000 56 819 236 1000 b 903 764 764 1000 903 861 b 750 639 903 688 854 639 b 521 736 639 639 625 736 b 368 583 431 736 368 674 l 368 389 b 521 236 368 299 431 236 b 764 333 639 236 653 333 b 917 208 868 333 917 285 b 521 -28 917 111 778 -28 m 336 1083 b 239 1174 281 1083 239 1125 b 274 1250 239 1208 274 1250 l 364 1375 b 510 1444 385 1403 426 1444 b 656 1375 593 1444 635 1403 l 746 1250 b 781 1174 746 1250 781 1208 b 683 1083 781 1125 739 1083 b 565 1153 621 1083 592 1111 l 517 1231 l 503 1231 l 454 1153 b 336 1083 428 1111 399 1083 "},"ĉ":{"ha":750,"x_min":0,"x_max":0,"o":"m 410 -21 b 42 299 188 -21 42 125 l 42 424 b 410 743 42 597 188 743 b 715 549 604 743 715 631 b 590 438 715 479 674 438 b 410 514 493 438 479 514 b 319 424 361 514 319 472 l 319 299 b 410 208 319 250 361 208 b 604 285 493 208 507 285 b 729 174 688 285 729 243 b 410 -21 729 90 618 -21 m 229 833 b 132 924 174 833 132 875 b 167 1000 132 958 167 1000 l 257 1125 b 403 1194 278 1153 319 1194 b 549 1125 486 1194 528 1153 l 639 1000 b 674 924 639 1000 674 958 b 576 833 674 875 632 833 b 458 903 514 833 485 861 l 410 981 l 396 981 l 347 903 b 229 833 321 861 292 833 "},"Č":{"ha":931,"x_min":0,"x_max":0,"o":"m 521 -28 b 56 389 236 -28 56 153 l 56 583 b 521 1000 56 819 236 1000 b 903 764 764 1000 903 861 b 750 639 903 688 854 639 b 521 736 639 639 625 736 b 368 583 431 736 368 674 l 368 389 b 521 236 368 299 431 236 b 764 333 639 236 653 333 b 917 208 868 333 917 285 b 521 -28 917 111 778 -28 m 510 1083 b 364 1153 426 1083 385 1125 l 274 1278 b 239 1354 274 1278 239 1319 b 336 1444 239 1403 281 1444 b 454 1375 399 1444 428 1417 l 503 1297 l 517 1297 l 565 1375 b 683 1444 592 1417 621 1444 b 781 1354 739 1444 781 1403 b 746 1278 781 1319 746 1278 l 656 1153 b 510 1083 635 1125 593 1083 "},"č":{"ha":750,"x_min":0,"x_max":0,"o":"m 410 -21 b 42 299 188 -21 42 125 l 42 424 b 410 743 42 597 188 743 b 715 549 604 743 715 631 b 590 438 715 479 674 438 b 410 514 493 438 479 514 b 319 424 361 514 319 472 l 319 299 b 410 208 319 250 361 208 b 604 285 493 208 507 285 b 729 174 688 285 729 243 b 410 -21 729 90 618 -21 m 403 833 b 257 903 319 833 278 875 l 167 1028 b 132 1104 167 1028 132 1069 b 229 1194 132 1153 174 1194 b 347 1125 292 1194 321 1167 l 396 1047 l 410 1047 l 458 1125 b 576 1194 485 1167 514 1194 b 674 1104 632 1194 674 1153 b 639 1028 674 1069 639 1028 l 549 903 b 403 833 528 875 486 833 "},"Ď":{"ha":1021,"x_min":0,"x_max":0,"o":"m 243 0 b 90 139 146 0 90 56 l 90 833 b 243 972 90 917 146 972 l 486 972 b 965 556 785 972 965 792 l 965 417 b 486 0 965 181 785 0 l 243 0 m 486 250 b 653 417 583 250 653 319 l 653 556 b 486 722 653 653 583 722 l 396 722 l 396 250 m 482 1083 b 336 1153 399 1083 357 1125 l 246 1278 b 211 1354 246 1278 211 1319 b 308 1444 211 1403 253 1444 b 426 1375 371 1444 400 1417 l 475 1297 l 489 1297 l 538 1375 b 656 1444 564 1417 593 1444 b 753 1354 711 1444 753 1403 b 718 1278 753 1319 718 1278 l 628 1153 b 482 1083 607 1125 565 1083 "},"ď":{"ha":1168,"x_min":0,"x_max":0,"o":"m 946 590 b 890 632 911 590 890 611 b 993 736 890 701 981 681 b 890 861 939 743 890 792 b 1029 986 890 931 946 986 b 1168 819 1068 986 1168 961 b 946 590 1168 701 1057 590 m 326 -21 b 42 299 174 -21 42 111 l 42 424 b 326 743 42 611 174 743 b 486 708 444 743 486 708 l 500 708 l 500 875 b 639 1000 500 944 556 1000 b 778 875 722 1000 778 944 l 778 118 b 639 -7 778 49 722 -7 b 514 63 542 -7 514 63 l 500 63 b 326 -21 500 63 444 -21 m 410 194 b 500 299 458 194 500 236 l 500 424 b 410 528 500 486 458 528 b 319 424 361 528 319 486 l 319 299 b 410 194 319 236 361 194 "},"Đ":{"ha":1042,"x_min":0,"x_max":0,"o":"m 264 0 b 111 139 167 0 111 56 l 111 347 b 14 472 111 347 14 375 b 111 597 14 569 111 597 l 111 833 b 264 972 111 917 167 972 l 507 972 b 986 556 806 972 986 792 l 986 417 b 507 0 986 181 806 0 l 264 0 m 507 250 b 674 417 604 250 674 319 l 674 556 b 507 722 674 653 604 722 l 417 722 l 417 597 l 444 597 b 583 472 528 597 583 542 b 444 347 583 403 528 347 l 417 347 l 417 250 "},"đ":{"ha":861,"x_min":0,"x_max":0,"o":"m 319 -21 b 35 299 167 -21 35 111 b 319 618 35 486 167 618 b 479 583 438 618 479 583 l 493 583 l 493 653 l 424 653 b 299 764 347 653 299 701 b 424 875 299 826 347 875 l 493 875 l 493 889 b 632 1014 493 958 549 1014 b 771 889 715 1014 771 958 l 771 868 b 861 764 771 868 861 847 b 771 660 861 681 771 660 l 771 118 b 632 -7 771 49 715 -7 b 507 63 535 -7 507 63 l 493 63 b 319 -21 493 63 438 -21 m 403 194 b 493 299 451 194 493 236 b 403 403 493 361 451 403 b 313 299 354 403 313 361 b 403 194 313 236 354 194 "},"Ē":{"ha":951,"x_min":0,"x_max":0,"o":"m 243 0 b 90 139 146 0 90 56 l 90 833 b 243 972 90 917 146 972 l 771 972 b 924 833 868 972 924 917 b 771 694 924 750 868 694 l 396 694 l 396 611 l 660 611 b 799 486 743 611 799 556 b 660 361 799 417 743 361 l 396 361 l 396 278 l 785 278 b 938 139 882 278 938 222 b 785 0 938 56 882 0 l 243 0 m 354 1125 b 250 1229 292 1125 250 1167 b 354 1333 250 1292 292 1333 l 674 1333 b 778 1229 736 1333 778 1292 b 674 1125 778 1167 736 1125 l 354 1125 "},"ē":{"ha":799,"x_min":0,"x_max":0,"o":"m 410 -21 b 42 299 188 -21 42 125 l 42 424 b 403 743 42 597 188 743 b 764 424 618 743 764 597 l 764 403 b 625 278 764 333 708 278 l 319 278 b 410 181 319 222 361 181 b 604 250 493 181 507 250 b 729 139 688 250 729 208 b 410 -21 729 76 625 -21 m 486 438 b 403 521 486 486 451 521 b 319 438 354 521 319 486 m 253 875 b 149 979 190 875 149 917 b 253 1083 149 1042 190 1083 l 572 1083 b 676 979 635 1083 676 1042 b 572 875 676 917 635 875 l 253 875 "},"Ė":{"ha":951,"x_min":0,"x_max":0,"o":"m 243 0 b 90 139 146 0 90 56 l 90 833 b 243 972 90 917 146 972 l 771 972 b 924 833 868 972 924 917 b 771 694 924 750 868 694 l 396 694 l 396 611 l 660 611 b 799 486 743 611 799 556 b 660 361 799 417 743 361 l 396 361 l 396 278 l 785 278 b 938 139 882 278 938 222 b 785 0 938 56 882 0 l 243 0 m 514 1097 b 375 1222 431 1097 375 1153 b 514 1347 375 1292 431 1347 b 653 1222 597 1347 653 1292 b 514 1097 653 1153 597 1097 "},"ė":{"ha":799,"x_min":0,"x_max":0,"o":"m 410 -21 b 42 299 188 -21 42 125 l 42 424 b 403 743 42 597 188 743 b 764 424 618 743 764 597 l 764 403 b 625 278 764 333 708 278 l 319 278 b 410 181 319 222 361 181 b 604 250 493 181 507 250 b 729 139 688 250 729 208 b 410 -21 729 76 625 -21 m 486 438 b 403 521 486 486 451 521 b 319 438 354 521 319 486 m 426 847 b 288 972 343 847 288 903 b 426 1097 288 1042 343 1097 b 565 972 510 1097 565 1042 b 426 847 565 903 510 847 "},"Ę":{"ha":951,"x_min":0,"x_max":0,"o":"m 729 -361 b 500 -181 590 -361 500 -271 b 621 0 500 -87 579 -26 l 243 0 b 90 139 146 0 90 56 l 90 833 b 243 972 90 917 146 972 l 771 972 b 924 833 868 972 924 917 b 771 694 924 750 868 694 l 396 694 l 396 611 l 660 611 b 799 486 743 611 799 556 b 660 361 799 417 743 361 l 396 361 l 396 278 l 785 278 b 938 139 882 278 938 222 b 715 -125 938 -28 715 0 b 785 -181 715 -160 736 -181 b 882 -271 847 -181 882 -215 b 729 -361 882 -319 840 -361 "},"ę":{"ha":799,"x_min":0,"x_max":0,"o":"m 478 -361 b 249 -181 339 -361 249 -271 b 346 -17 249 -104 303 -49 b 42 299 160 8 42 142 l 42 424 b 403 743 42 597 188 743 b 764 424 618 743 764 597 l 764 403 b 625 278 764 333 708 278 l 319 278 b 410 181 319 222 361 181 b 604 250 493 181 507 250 b 729 139 688 250 729 208 b 590 7 729 97 683 40 b 464 -125 558 -10 464 -67 b 533 -181 464 -160 485 -181 b 631 -271 596 -181 631 -215 b 478 -361 631 -319 589 -361 m 486 438 b 403 521 486 486 451 521 b 319 438 354 521 319 486 "},"Ě":{"ha":951,"x_min":0,"x_max":0,"o":"m 243 0 b 90 139 146 0 90 56 l 90 833 b 243 972 90 917 146 972 l 771 972 b 924 833 868 972 924 917 b 771 694 924 750 868 694 l 396 694 l 396 611 l 660 611 b 799 486 743 611 799 556 b 660 361 799 417 743 361 l 396 361 l 396 278 l 785 278 b 938 139 882 278 938 222 b 785 0 938 56 882 0 l 243 0 m 514 1083 b 368 1153 431 1083 389 1125 l 278 1278 b 243 1354 278 1278 243 1319 b 340 1444 243 1403 285 1444 b 458 1375 403 1444 432 1417 l 507 1297 l 521 1297 l 569 1375 b 688 1444 596 1417 625 1444 b 785 1354 743 1444 785 1403 b 750 1278 785 1319 750 1278 l 660 1153 b 514 1083 639 1125 597 1083 "},"ě":{"ha":799,"x_min":0,"x_max":0,"o":"m 410 -21 b 42 299 188 -21 42 125 l 42 424 b 403 743 42 597 188 743 b 764 424 618 743 764 597 l 764 403 b 625 278 764 333 708 278 l 319 278 b 410 181 319 222 361 181 b 604 250 493 181 507 250 b 729 139 688 250 729 208 b 410 -21 729 76 625 -21 m 486 438 b 403 521 486 486 451 521 b 319 438 354 521 319 486 m 413 833 b 267 903 329 833 288 875 l 176 1028 b 142 1104 176 1028 142 1069 b 239 1194 142 1153 183 1194 b 357 1125 301 1194 331 1167 l 406 1047 l 419 1047 l 468 1125 b 586 1194 494 1167 524 1194 b 683 1104 642 1194 683 1153 b 649 1028 683 1069 649 1028 l 558 903 b 413 833 538 875 496 833 "},"Ğ":{"ha":986,"x_min":0,"x_max":0,"o":"m 521 -28 b 56 389 236 -28 56 153 l 56 583 b 521 1000 56 819 236 1000 b 903 764 764 1000 903 861 b 750 639 903 688 854 639 b 521 736 639 639 625 736 b 368 583 431 736 368 674 l 368 389 b 521 236 368 299 431 236 b 653 278 597 236 653 278 l 653 333 l 611 333 b 472 458 528 333 472 389 b 611 583 472 528 528 583 l 806 583 b 931 458 889 583 931 542 l 931 208 b 521 -28 931 111 778 -28 m 524 1083 b 267 1264 364 1083 267 1181 b 364 1361 267 1319 308 1361 b 524 1285 454 1361 440 1285 b 683 1361 607 1285 593 1361 b 781 1264 739 1361 781 1319 b 524 1083 781 1181 683 1083 "},"ğ":{"ha":847,"x_min":0,"x_max":0,"o":"m 403 -306 b 83 -125 194 -306 83 -194 b 208 -14 83 -56 125 -14 b 403 -90 306 -14 319 -90 b 500 0 458 -90 500 -49 l 500 56 l 486 56 b 326 21 486 56 444 21 b 42 340 174 21 42 153 l 42 424 b 326 743 42 611 174 743 b 500 660 444 743 500 660 l 514 660 b 639 729 514 660 542 729 b 778 604 722 729 778 674 l 778 0 b 403 -306 778 -160 632 -306 m 410 236 b 500 340 458 236 500 278 l 500 424 b 410 528 500 486 458 528 b 319 424 361 528 319 486 l 319 340 b 410 236 319 278 361 236 m 451 833 b 194 1014 292 833 194 931 b 292 1111 194 1069 236 1111 b 451 1035 382 1111 368 1035 b 611 1111 535 1035 521 1111 b 708 1014 667 1111 708 1069 b 451 833 708 931 611 833 "},"Ģ":{"ha":986,"x_min":0,"x_max":0,"o":"m 521 -28 b 56 389 236 -28 56 153 l 56 583 b 521 1000 56 819 236 1000 b 903 764 764 1000 903 861 b 750 639 903 688 854 639 b 521 736 639 639 625 736 b 368 583 431 736 368 674 l 368 389 b 521 236 368 299 431 236 b 653 278 597 236 653 278 l 653 333 l 611 333 b 472 458 528 333 472 389 b 611 583 472 528 528 583 l 806 583 b 931 458 889 583 931 542 l 931 208 b 521 -28 931 111 778 -28 m 426 -493 b 371 -451 392 -493 371 -472 b 474 -347 371 -382 461 -403 b 371 -222 419 -340 371 -292 b 510 -97 371 -153 426 -97 b 649 -264 586 -97 649 -160 b 426 -493 649 -382 538 -493 "},"ģ":{"ha":847,"x_min":0,"x_max":0,"o":"m 429 819 b 290 986 353 819 290 882 b 513 1215 290 1104 401 1215 b 568 1174 547 1215 568 1194 b 465 1069 568 1104 478 1125 b 568 944 519 1063 568 1014 b 429 819 568 875 513 819 m 403 -306 b 83 -125 194 -306 83 -194 b 208 -14 83 -56 125 -14 b 403 -90 306 -14 319 -90 b 500 0 458 -90 500 -49 l 500 56 l 486 56 b 326 21 486 56 444 21 b 42 340 174 21 42 153 l 42 424 b 326 743 42 611 174 743 b 500 660 444 743 500 660 l 514 660 b 639 729 514 660 542 729 b 778 604 722 729 778 674 l 778 0 b 403 -306 778 -160 632 -306 m 410 236 b 500 340 458 236 500 278 l 500 424 b 410 528 500 486 458 528 b 319 424 361 528 319 486 l 319 340 b 410 236 319 278 361 236 "},"Ī":{"ha":500,"x_min":0,"x_max":0,"o":"m 243 -14 b 90 125 146 -14 90 42 l 90 847 b 243 986 90 931 146 986 b 396 847 340 986 396 931 l 396 125 b 243 -14 396 42 340 -14 m 90 1125 b -14 1229 28 1125 -14 1167 b 90 1333 -14 1292 28 1333 l 410 1333 b 514 1229 472 1333 514 1292 b 410 1125 514 1167 472 1125 l 90 1125 "},"ī":{"ha":444,"x_min":0,"x_max":0,"o":"m 222 -7 b 83 118 139 -7 83 49 l 83 590 b 222 715 83 660 139 715 b 361 590 306 715 361 660 l 361 118 b 222 -7 361 49 306 -7 m 63 875 b -42 979 0 875 -42 917 b 63 1083 -42 1042 0 1083 l 382 1083 b 486 979 444 1083 486 1042 b 382 875 486 917 444 875 l 63 875 "},"Į":{"ha":500,"x_min":0,"x_max":0,"o":"m 236 -361 b 7 -181 97 -361 7 -271 b 160 14 7 -42 160 14 b 104 125 160 14 104 42 l 104 847 b 257 986 104 931 160 986 b 410 847 354 986 410 931 l 410 125 b 222 -125 410 -28 222 -28 b 292 -181 222 -160 243 -181 b 389 -271 354 -181 389 -215 b 236 -361 389 -319 347 -361 "},"į":{"ha":438,"x_min":0,"x_max":0,"o":"m 174 -361 b -56 -181 35 -361 -56 -271 b 111 35 -56 -42 111 35 b 76 118 111 35 76 74 l 76 576 b 215 701 76 646 132 701 b 354 576 299 701 354 646 l 354 118 b 160 -125 354 -14 160 -14 b 229 -181 160 -160 181 -181 b 326 -271 292 -181 326 -215 b 174 -361 326 -319 285 -361 m 215 764 b 69 896 132 764 69 826 b 215 1028 69 965 132 1028 b 361 896 299 1028 361 965 b 215 764 361 826 299 764 "},"İ":{"ha":486,"x_min":0,"x_max":0,"o":"m 243 -14 b 90 125 146 -14 90 42 l 90 847 b 243 986 90 931 146 986 b 396 847 340 986 396 931 l 396 125 b 243 -14 396 42 340 -14 m 243 1083 b 104 1208 160 1083 104 1139 b 243 1333 104 1278 160 1333 b 382 1208 326 1333 382 1278 b 243 1083 382 1139 326 1083 "},"ı":{"ha":417,"x_min":0,"x_max":0,"o":"m 208 -7 b 69 118 125 -7 69 49 l 69 590 b 208 715 69 660 125 715 b 347 590 292 715 347 660 l 347 118 b 208 -7 347 49 292 -7 "},"Ķ":{"ha":993,"x_min":0,"x_max":0,"o":"m 243 -14 b 90 125 146 -14 90 42 l 90 847 b 243 986 90 931 146 986 b 396 847 340 986 396 931 l 396 653 l 701 944 b 813 986 701 944 743 986 b 951 847 896 986 951 931 b 896 736 951 778 896 736 l 701 549 l 938 250 b 993 125 938 250 993 181 b 840 -14 993 42 938 -14 b 708 56 764 -14 708 56 l 472 354 l 396 285 l 396 125 b 243 -14 396 42 340 -14 m 454 -479 b 399 -437 419 -479 399 -458 b 501 -333 399 -368 489 -389 b 399 -208 447 -326 399 -278 b 538 -83 399 -139 454 -83 b 676 -250 614 -83 676 -146 b 454 -479 676 -368 565 -479 "},"ķ":{"ha":799,"x_min":0,"x_max":0,"o":"m 215 -7 b 76 118 132 -7 76 49 l 76 875 b 215 1000 76 944 132 1000 b 354 875 299 1000 354 944 l 354 507 l 521 660 b 653 722 521 660 576 722 b 771 604 722 722 771 674 b 715 486 771 535 715 486 l 604 389 l 757 201 b 799 104 757 201 799 153 b 667 -7 799 42 750 -7 b 549 49 590 -7 549 49 l 396 236 l 354 194 l 354 118 b 215 -7 354 49 299 -7 m 347 -493 b 292 -451 313 -493 292 -472 b 394 -347 292 -382 382 -403 b 292 -222 340 -340 292 -292 b 431 -97 292 -153 347 -97 b 569 -264 507 -97 569 -160 b 347 -493 569 -382 458 -493 "},"Ĺ":{"ha":882,"x_min":0,"x_max":0,"o":"m 243 0 b 90 139 146 0 90 56 l 90 847 b 243 986 90 931 146 986 b 396 847 340 986 396 931 l 396 278 l 729 278 b 882 139 826 278 882 222 b 729 0 882 56 826 0 l 243 0 m 253 1083 b 163 1167 197 1083 163 1118 b 176 1236 163 1201 176 1236 l 211 1340 b 350 1444 232 1403 274 1444 b 461 1340 419 1444 461 1403 b 440 1264 461 1299 440 1264 l 378 1161 b 253 1083 356 1125 315 1083 "},"ĺ":{"ha":440,"x_min":0,"x_max":0,"o":"m 215 -7 b 76 118 132 -7 76 49 l 76 875 b 215 1000 76 944 132 1000 b 354 875 299 1000 354 944 l 354 118 b 215 -7 354 49 299 -7 m 211 1083 b 121 1167 156 1083 121 1118 b 135 1236 121 1201 135 1236 l 169 1340 b 308 1444 190 1403 232 1444 b 419 1340 378 1444 419 1403 b 399 1264 419 1299 399 1264 l 336 1161 b 211 1083 314 1125 274 1083 "},"Ļ":{"ha":882,"x_min":0,"x_max":0,"o":"m 243 0 b 90 139 146 0 90 56 l 90 847 b 243 986 90 931 146 986 b 396 847 340 986 396 931 l 396 278 l 729 278 b 882 139 826 278 882 222 b 729 0 882 56 826 0 l 243 0 m 396 -493 b 340 -451 361 -493 340 -472 b 443 -347 340 -382 431 -403 b 340 -222 389 -340 340 -292 b 479 -97 340 -153 396 -97 b 618 -264 556 -97 618 -160 b 396 -493 618 -382 507 -493 "},"ļ":{"ha":431,"x_min":0,"x_max":0,"o":"m 215 -7 b 76 118 132 -7 76 49 l 76 875 b 215 1000 76 944 132 1000 b 354 875 299 1000 354 944 l 354 118 b 215 -7 354 49 299 -7 m 132 -493 b 76 -451 97 -493 76 -472 b 179 -347 76 -382 167 -403 b 76 -222 125 -340 76 -292 b 215 -97 76 -153 132 -97 b 354 -264 292 -97 354 -160 b 132 -493 354 -382 243 -493 "},"Ľ":{"ha":882,"x_min":0,"x_max":0,"o":"m 563 590 b 507 632 528 590 507 611 b 610 736 507 701 597 681 b 507 861 556 743 507 792 b 646 986 507 931 563 986 b 785 819 685 986 785 961 b 563 590 785 701 674 590 m 243 0 b 90 139 146 0 90 56 l 90 847 b 243 986 90 931 146 986 b 396 847 340 986 396 931 l 396 278 l 729 278 b 882 139 826 278 882 222 b 729 0 882 56 826 0 l 243 0 "},"ľ":{"ha":743,"x_min":0,"x_max":0,"o":"m 521 590 b 465 632 486 590 465 611 b 568 736 465 701 556 681 b 465 861 514 743 465 792 b 604 986 465 931 521 986 b 743 819 643 986 743 961 b 521 590 743 701 632 590 m 215 -7 b 76 118 132 -7 76 49 l 76 875 b 215 1000 76 944 132 1000 b 354 875 299 1000 354 944 l 354 118 b 215 -7 354 49 299 -7 "},"Ł":{"ha":931,"x_min":0,"x_max":0,"o":"m 292 0 b 139 139 194 0 139 56 l 139 333 b 97 325 139 333 118 325 b 0 431 42 325 0 368 b 69 542 0 486 42 525 l 139 583 l 139 847 b 292 986 139 931 194 986 b 444 847 389 986 444 931 l 444 743 l 458 750 b 542 772 458 750 493 772 b 639 667 597 772 639 729 b 569 556 639 611 597 571 l 444 486 l 444 278 l 778 278 b 931 139 875 278 931 222 b 778 0 931 56 875 0 l 292 0 "},"ł":{"ha":597,"x_min":0,"x_max":0,"o":"m 292 -7 b 153 118 208 -7 153 49 l 153 333 b 97 325 153 333 125 325 b 0 431 42 325 0 368 b 69 542 0 486 42 528 l 153 583 l 153 875 b 292 1000 153 944 208 1000 b 431 875 375 1000 431 944 l 431 729 b 500 743 431 729 458 743 b 597 639 556 743 597 701 b 528 528 597 583 556 542 l 431 479 l 431 118 b 292 -7 431 49 375 -7 "},"Ń":{"ha":1083,"x_min":0,"x_max":0,"o":"m 243 -14 b 90 125 146 -14 90 42 l 90 847 b 243 986 90 929 146 986 b 438 847 326 986 375 938 l 674 528 l 688 528 l 688 847 b 840 986 688 931 743 986 b 993 847 938 986 993 931 l 993 125 b 840 -14 993 43 938 -14 b 646 125 757 -14 708 35 l 410 444 l 396 444 l 396 125 b 243 -14 396 42 340 -14 m 538 1083 b 447 1167 482 1083 447 1118 b 461 1236 447 1201 461 1236 l 496 1340 b 635 1444 517 1403 558 1444 b 746 1340 704 1444 746 1403 b 725 1264 746 1299 725 1264 l 663 1161 b 538 1083 640 1125 600 1083 "},"ń":{"ha":854,"x_min":0,"x_max":0,"o":"m 208 -7 b 69 118 125 -7 69 49 l 69 604 b 208 729 69 672 125 729 b 333 660 306 729 333 661 l 347 660 b 514 743 347 660 403 743 b 792 424 667 743 792 618 l 792 118 b 653 -7 792 49 736 -7 b 514 118 569 -7 514 49 l 514 424 b 431 521 514 479 472 521 b 347 424 389 521 347 479 l 347 118 b 208 -7 347 49 292 -7 m 438 833 b 347 917 382 833 347 868 b 361 986 347 951 361 986 l 396 1090 b 535 1194 417 1153 458 1194 b 646 1090 604 1194 646 1153 b 625 1014 646 1049 625 1014 l 563 911 b 438 833 540 875 500 833 "},"Ņ":{"ha":1083,"x_min":0,"x_max":0,"o":"m 243 -14 b 90 125 146 -14 90 42 l 90 847 b 243 986 90 929 146 986 b 438 847 326 986 375 938 l 674 528 l 688 528 l 688 847 b 840 986 688 931 743 986 b 993 847 938 986 993 931 l 993 125 b 840 -14 993 43 938 -14 b 646 125 757 -14 708 35 l 410 444 l 396 444 l 396 125 b 243 -14 396 42 340 -14 m 472 -479 b 417 -437 438 -479 417 -458 b 519 -333 417 -368 507 -389 b 417 -208 465 -326 417 -278 b 556 -83 417 -139 472 -83 b 694 -250 632 -83 694 -146 b 472 -479 694 -368 583 -479 "},"ņ":{"ha":854,"x_min":0,"x_max":0,"o":"m 208 -7 b 69 118 125 -7 69 49 l 69 604 b 208 729 69 672 125 729 b 333 660 306 729 333 661 l 347 660 b 514 743 347 660 403 743 b 792 424 667 743 792 618 l 792 118 b 653 -7 792 49 736 -7 b 514 118 569 -7 514 49 l 514 424 b 431 521 514 479 472 521 b 347 424 389 521 347 479 l 347 118 b 208 -7 347 49 292 -7 m 357 -479 b 301 -437 322 -479 301 -458 b 404 -333 301 -368 392 -389 b 301 -208 350 -326 301 -278 b 440 -83 301 -139 357 -83 b 579 -250 517 -83 579 -146 b 357 -479 579 -368 468 -479 "},"Ň":{"ha":1083,"x_min":0,"x_max":0,"o":"m 243 -14 b 90 125 146 -14 90 42 l 90 847 b 243 986 90 929 146 986 b 438 847 326 986 375 938 l 674 528 l 688 528 l 688 847 b 840 986 688 931 743 986 b 993 847 938 986 993 931 l 993 125 b 840 -14 993 43 938 -14 b 646 125 757 -14 708 35 l 410 444 l 396 444 l 396 125 b 243 -14 396 42 340 -14 m 542 1083 b 396 1153 458 1083 417 1125 l 306 1278 b 271 1354 306 1278 271 1319 b 368 1444 271 1403 313 1444 b 486 1375 431 1444 460 1417 l 535 1297 l 549 1297 l 597 1375 b 715 1444 624 1417 653 1444 b 813 1354 771 1444 813 1403 b 778 1278 813 1319 778 1278 l 688 1153 b 542 1083 667 1125 625 1083 "},"ň":{"ha":854,"x_min":0,"x_max":0,"o":"m 208 -7 b 69 118 125 -7 69 49 l 69 604 b 208 729 69 672 125 729 b 333 660 306 729 333 661 l 347 660 b 514 743 347 660 403 743 b 792 424 667 743 792 618 l 792 118 b 653 -7 792 49 736 -7 b 514 118 569 -7 514 49 l 514 424 b 431 521 514 479 472 521 b 347 424 389 521 347 479 l 347 118 b 208 -7 347 49 292 -7 m 440 833 b 294 903 357 833 315 875 l 204 1028 b 169 1104 204 1028 169 1069 b 267 1194 169 1153 211 1194 b 385 1125 329 1194 358 1167 l 433 1047 l 447 1047 l 496 1125 b 614 1194 522 1167 551 1194 b 711 1104 669 1194 711 1153 b 676 1028 711 1069 676 1028 l 586 903 b 440 833 565 875 524 833 "},"Ō":{"ha":1042,"x_min":0,"x_max":0,"o":"m 521 -28 b 56 389 236 -28 56 153 l 56 583 b 521 1000 56 819 236 1000 b 986 583 806 1000 986 819 l 986 389 b 521 -28 986 153 806 -28 m 521 208 b 674 389 604 208 674 278 l 674 583 b 521 764 674 694 604 764 b 368 583 438 764 368 694 l 368 389 b 521 208 368 278 438 208 m 361 1125 b 257 1229 299 1125 257 1167 b 361 1333 257 1292 299 1333 l 681 1333 b 785 1229 743 1333 785 1292 b 681 1125 785 1167 743 1125 l 361 1125 "},"ō":{"ha":819,"x_min":0,"x_max":0,"o":"m 410 -21 b 42 299 188 -21 42 125 l 42 424 b 410 743 42 597 188 743 b 778 424 632 743 778 597 l 778 299 b 410 -21 778 125 632 -21 m 410 194 b 500 299 458 194 500 236 l 500 424 b 410 528 500 486 458 528 b 319 424 361 528 319 486 l 319 299 b 410 194 319 236 361 194 m 264 875 b 160 979 201 875 160 917 b 264 1083 160 1042 201 1083 l 583 1083 b 688 979 646 1083 688 1042 b 583 875 688 917 646 875 l 264 875 "},"Ő":{"ha":1042,"x_min":0,"x_max":0,"o":"m 521 -28 b 56 389 236 -28 56 153 l 56 583 b 521 1000 56 819 236 1000 b 986 583 806 1000 986 819 l 986 389 b 521 -28 986 153 806 -28 m 521 208 b 674 389 604 208 674 278 l 674 583 b 521 764 674 694 604 764 b 368 583 438 764 368 694 l 368 389 b 521 208 368 278 438 208 m 378 1083 b 294 1160 329 1083 294 1118 b 308 1236 294 1194 308 1236 l 343 1347 b 475 1444 361 1404 406 1444 b 579 1347 538 1444 579 1403 b 558 1264 579 1306 558 1264 l 496 1154 b 378 1083 475 1118 440 1083 m 683 1083 b 600 1160 635 1083 600 1118 b 614 1236 600 1194 614 1236 l 649 1347 b 781 1444 667 1404 711 1444 b 885 1347 843 1444 885 1403 b 864 1264 885 1306 864 1264 l 801 1154 b 683 1083 781 1118 746 1083 "},"ő":{"ha":819,"x_min":0,"x_max":0,"o":"m 410 -21 b 42 299 188 -21 42 125 l 42 424 b 410 743 42 597 188 743 b 778 424 632 743 778 597 l 778 299 b 410 -21 778 125 632 -21 m 410 194 b 500 299 458 194 500 236 l 500 424 b 410 528 500 486 458 528 b 319 424 361 528 319 486 l 319 299 b 410 194 319 236 361 194 m 253 833 b 169 910 204 833 169 868 b 183 986 169 944 183 986 l 218 1097 b 350 1194 236 1154 281 1194 b 454 1097 413 1194 454 1153 b 433 1014 454 1056 433 1014 l 371 904 b 253 833 350 868 315 833 m 558 833 b 475 910 510 833 475 868 b 489 986 475 944 489 986 l 524 1097 b 656 1194 542 1154 586 1194 b 760 1097 718 1194 760 1153 b 739 1014 760 1056 739 1014 l 676 904 b 558 833 656 868 621 833 "},"Œ":{"ha":1403,"x_min":0,"x_max":0,"o":"m 535 0 b 56 417 236 0 56 181 l 56 556 b 535 972 56 792 236 972 l 1222 972 b 1375 833 1319 972 1375 917 b 1222 694 1375 750 1319 694 l 903 694 l 903 611 l 1111 611 b 1250 486 1194 611 1250 556 b 1111 361 1250 417 1194 361 l 903 361 l 903 278 l 1236 278 b 1389 139 1333 278 1389 222 b 1236 0 1389 56 1333 0 l 535 0 m 597 250 l 597 722 l 535 722 b 368 556 438 722 368 653 l 368 417 b 535 250 368 319 438 250 "},"œ":{"ha":1257,"x_min":0,"x_max":0,"o":"m 410 -21 b 42 299 188 -21 42 125 l 42 424 b 410 743 42 597 188 743 b 632 667 563 743 632 667 l 646 667 b 861 743 646 667 715 743 b 1222 424 1076 743 1222 597 l 1222 403 b 1083 278 1222 333 1167 278 l 778 278 b 868 181 778 222 819 181 b 1063 250 951 181 965 250 b 1188 139 1146 250 1188 208 b 868 -21 1188 76 1083 -21 b 646 56 715 -21 646 56 l 632 56 b 410 -21 632 56 563 -21 m 410 194 b 500 299 458 194 500 236 l 500 424 b 410 528 500 486 458 528 b 319 424 361 528 319 486 l 319 299 b 410 194 319 236 361 194 m 944 438 b 861 521 944 486 910 521 b 778 438 813 521 778 486 "},"Ŕ":{"ha":1014,"x_min":0,"x_max":0,"o":"m 243 -14 b 90 125 146 -14 90 42 l 90 833 b 243 972 90 917 146 972 l 535 972 b 951 660 826 972 951 847 b 799 431 951 486 799 431 l 799 417 l 938 250 b 993 125 938 250 993 181 b 826 -14 993 42 938 -14 b 701 56 757 -14 701 56 l 479 347 l 396 347 l 396 125 b 243 -14 396 42 340 -14 m 535 583 b 632 660 597 583 632 618 b 535 736 632 701 597 736 l 396 736 l 396 583 m 500 1083 b 410 1167 444 1083 410 1118 b 424 1236 410 1201 424 1236 l 458 1340 b 597 1444 479 1403 521 1444 b 708 1340 667 1444 708 1403 b 688 1264 708 1299 688 1264 l 625 1161 b 500 1083 603 1125 563 1083 "},"ŕ":{"ha":667,"x_min":0,"x_max":0,"o":"m 208 -7 b 69 118 125 -7 69 49 l 69 604 b 208 729 69 672 125 729 b 333 653 306 729 333 654 l 347 653 b 521 743 347 653 403 743 b 667 611 611 743 667 688 b 535 472 667 528 611 472 b 431 486 500 472 465 486 b 347 403 382 486 347 451 l 347 118 b 208 -7 347 49 292 -7 m 368 833 b 278 917 313 833 278 868 b 292 986 278 951 292 986 l 326 1090 b 465 1194 347 1153 389 1194 b 576 1090 535 1194 576 1153 b 556 1014 576 1049 556 1014 l 493 911 b 368 833 471 875 431 833 "},"Ŗ":{"ha":1014,"x_min":0,"x_max":0,"o":"m 243 -14 b 90 125 146 -14 90 42 l 90 833 b 243 972 90 917 146 972 l 535 972 b 951 660 826 972 951 847 b 799 431 951 486 799 431 l 799 417 l 938 250 b 993 125 938 250 993 181 b 826 -14 993 42 938 -14 b 701 56 757 -14 701 56 l 479 347 l 396 347 l 396 125 b 243 -14 396 42 340 -14 m 535 583 b 632 660 597 583 632 618 b 535 736 632 701 597 736 l 396 736 l 396 583 m 447 -479 b 392 -437 413 -479 392 -458 b 494 -333 392 -368 482 -389 b 392 -208 440 -326 392 -278 b 531 -83 392 -139 447 -83 b 669 -250 607 -83 669 -146 b 447 -479 669 -368 558 -479 "},"ŗ":{"ha":667,"x_min":0,"x_max":0,"o":"m 208 -7 b 69 118 125 -7 69 49 l 69 604 b 208 729 69 672 125 729 b 333 653 306 729 333 654 l 347 653 b 521 743 347 653 403 743 b 667 611 611 743 667 688 b 535 472 667 528 611 472 b 431 486 500 472 465 486 b 347 403 382 486 347 451 l 347 118 b 208 -7 347 49 292 -7 m 125 -493 b 69 -451 90 -493 69 -472 b 172 -347 69 -382 160 -403 b 69 -222 118 -340 69 -292 b 208 -97 69 -153 125 -97 b 347 -264 285 -97 347 -160 b 125 -493 347 -382 236 -493 "},"Ř":{"ha":1014,"x_min":0,"x_max":0,"o":"m 243 -14 b 90 125 146 -14 90 42 l 90 833 b 243 972 90 917 146 972 l 535 972 b 951 660 826 972 951 847 b 799 431 951 486 799 431 l 799 417 l 938 250 b 993 125 938 250 993 181 b 826 -14 993 42 938 -14 b 701 56 757 -14 701 56 l 479 347 l 396 347 l 396 125 b 243 -14 396 42 340 -14 m 535 583 b 632 660 597 583 632 618 b 535 736 632 701 597 736 l 396 736 l 396 583 m 517 1083 b 371 1153 433 1083 392 1125 l 281 1278 b 246 1354 281 1278 246 1319 b 343 1444 246 1403 288 1444 b 461 1375 406 1444 435 1417 l 510 1297 l 524 1297 l 572 1375 b 690 1444 599 1417 628 1444 b 788 1354 746 1444 788 1403 b 753 1278 788 1319 753 1278 l 663 1153 b 517 1083 642 1125 600 1083 "},"ř":{"ha":667,"x_min":0,"x_max":0,"o":"m 208 -7 b 69 118 125 -7 69 49 l 69 604 b 208 729 69 672 125 729 b 333 653 306 729 333 654 l 347 653 b 521 743 347 653 403 743 b 667 611 611 743 667 688 b 535 472 667 528 611 472 b 431 486 500 472 465 486 b 347 403 382 486 347 451 l 347 118 b 208 -7 347 49 292 -7 m 371 833 b 225 903 288 833 246 875 l 135 1028 b 100 1104 135 1028 100 1069 b 197 1194 100 1153 142 1194 b 315 1125 260 1194 289 1167 l 364 1047 l 378 1047 l 426 1125 b 544 1194 453 1167 482 1194 b 642 1104 600 1194 642 1153 b 607 1028 642 1069 607 1028 l 517 903 b 371 833 496 875 454 833 "},"Ś":{"ha":896,"x_min":0,"x_max":0,"o":"m 417 -28 b 21 208 160 -28 21 111 b 174 333 21 285 69 333 b 417 236 285 333 299 236 b 556 306 521 236 556 271 b 42 681 556 389 42 347 b 458 1000 42 861 181 1000 b 840 764 701 1000 840 861 b 688 639 840 688 792 639 b 458 736 576 639 563 736 b 361 681 389 736 361 708 b 875 306 361 583 875 625 b 417 -28 875 125 722 -28 m 458 1083 b 368 1167 403 1083 368 1118 b 382 1236 368 1201 382 1236 l 417 1340 b 556 1444 438 1403 479 1444 b 667 1340 625 1444 667 1403 b 646 1264 667 1299 646 1264 l 583 1161 b 458 1083 561 1125 521 1083 "},"ś":{"ha":708,"x_min":0,"x_max":0,"o":"m 333 -21 b 14 153 118 -21 14 83 b 139 257 14 215 56 257 b 333 181 236 257 250 181 b 403 222 382 181 403 201 b 35 500 403 292 35 250 b 382 743 35 639 139 743 b 681 569 576 743 681 639 b 556 465 681 507 639 465 b 382 542 458 465 444 542 b 326 500 347 542 326 521 b 694 222 326 431 694 472 b 333 -21 694 90 583 -21 m 378 833 b 288 917 322 833 288 868 b 301 986 288 951 301 986 l 336 1090 b 475 1194 357 1153 399 1194 b 586 1090 544 1194 586 1153 b 565 1014 586 1049 565 1014 l 503 911 b 378 833 481 875 440 833 "},"Ş":{"ha":896,"x_min":0,"x_max":0,"o":"m 392 -431 b 260 -340 301 -431 260 -389 b 378 -257 260 -290 294 -257 b 454 -229 440 -257 454 -243 b 378 -201 454 -215 440 -201 b 294 -125 329 -201 294 -167 l 294 -15 b 21 208 115 19 21 128 b 174 333 21 285 69 333 b 417 236 285 333 299 236 b 556 306 521 236 556 271 b 42 681 556 389 42 347 b 458 1000 42 861 181 1000 b 840 764 701 1000 840 861 b 688 639 840 688 792 639 b 458 736 576 639 563 736 b 361 681 389 736 361 708 b 875 306 361 583 875 625 b 468 -25 875 135 739 -8 l 468 -56 b 663 -243 593 -69 663 -139 b 392 -431 663 -333 565 -431 "},"ş":{"ha":708,"x_min":0,"x_max":0,"o":"m 299 -417 b 167 -326 208 -417 167 -375 b 285 -243 167 -276 201 -243 b 361 -215 347 -243 361 -229 b 285 -187 361 -201 347 -187 b 201 -111 236 -187 201 -153 l 201 -6 b 14 153 75 25 14 99 b 139 257 14 215 56 257 b 333 181 236 257 250 181 b 403 222 382 181 403 201 b 35 500 403 292 35 250 b 382 743 35 639 139 743 b 681 569 576 743 681 639 b 556 465 681 507 639 465 b 382 542 458 465 444 542 b 326 500 347 542 326 521 b 694 222 326 431 694 472 b 375 -19 694 97 596 -7 l 375 -42 b 569 -229 500 -56 569 -125 b 299 -417 569 -319 472 -417 "},"Š":{"ha":896,"x_min":0,"x_max":0,"o":"m 417 -28 b 21 208 160 -28 21 111 b 174 333 21 285 69 333 b 417 236 285 333 299 236 b 556 306 521 236 556 271 b 42 681 556 389 42 347 b 458 1000 42 861 181 1000 b 840 764 701 1000 840 861 b 688 639 840 688 792 639 b 458 736 576 639 563 736 b 361 681 389 736 361 708 b 875 306 361 583 875 625 b 417 -28 875 125 722 -28 m 447 1083 b 301 1153 364 1083 322 1125 l 211 1278 b 176 1354 211 1278 176 1319 b 274 1444 176 1403 218 1444 b 392 1375 336 1444 365 1417 l 440 1297 l 454 1297 l 503 1375 b 621 1444 529 1417 558 1444 b 718 1354 676 1444 718 1403 b 683 1278 718 1319 683 1278 l 593 1153 b 447 1083 572 1125 531 1083 "},"š":{"ha":708,"x_min":0,"x_max":0,"o":"m 333 -21 b 14 153 118 -21 14 83 b 139 257 14 215 56 257 b 333 181 236 257 250 181 b 403 222 382 181 403 201 b 35 500 403 292 35 250 b 382 743 35 639 139 743 b 681 569 576 743 681 639 b 556 465 681 507 639 465 b 382 542 458 465 444 542 b 326 500 347 542 326 521 b 694 222 326 431 694 472 b 333 -21 694 90 583 -21 m 368 833 b 222 903 285 833 243 875 l 132 1028 b 97 1104 132 1028 97 1069 b 194 1194 97 1153 139 1194 b 313 1125 257 1194 286 1167 l 361 1047 l 375 1047 l 424 1125 b 542 1194 450 1167 479 1194 b 639 1104 597 1194 639 1153 b 604 1028 639 1069 604 1028 l 514 903 b 368 833 493 875 451 833 "},"Ţ":{"ha":917,"x_min":0,"x_max":0,"o":"m 458 -14 b 306 125 361 -14 306 42 l 306 694 l 153 694 b 0 833 56 694 0 750 b 153 972 0 917 56 972 l 764 972 b 917 833 861 972 917 917 b 764 694 917 750 861 694 l 611 694 l 611 125 b 458 -14 611 42 556 -14 m 375 -493 b 319 -451 340 -493 319 -472 b 422 -347 319 -382 410 -403 b 319 -222 368 -340 319 -292 b 458 -97 319 -153 375 -97 b 597 -264 535 -97 597 -160 b 375 -493 597 -382 486 -493 "},"ţ":{"ha":632,"x_min":0,"x_max":0,"o":"m 403 -21 b 111 271 236 -21 111 104 l 111 479 b 14 597 111 479 14 507 b 111 715 14 688 111 715 l 111 764 b 250 889 111 833 167 889 b 389 764 333 889 389 833 l 389 722 l 458 722 b 597 597 542 722 597 667 b 458 472 597 526 542 472 l 389 472 l 389 271 b 444 208 389 236 417 208 b 514 222 472 208 486 222 b 625 118 583 222 625 181 b 403 -21 625 49 556 -21 m 292 -493 b 236 -451 257 -493 236 -472 b 339 -347 236 -382 326 -403 b 236 -222 285 -340 236 -292 b 375 -97 236 -153 292 -97 b 514 -264 451 -97 514 -160 b 292 -493 514 -382 403 -493 "},"Ť":{"ha":917,"x_min":0,"x_max":0,"o":"m 458 -14 b 306 125 361 -14 306 42 l 306 694 l 153 694 b 0 833 56 694 0 750 b 153 972 0 917 56 972 l 764 972 b 917 833 861 972 917 917 b 764 694 917 750 861 694 l 611 694 l 611 125 b 458 -14 611 42 556 -14 m 458 1083 b 313 1153 375 1083 333 1125 l 222 1278 b 188 1354 222 1278 188 1319 b 285 1444 188 1403 229 1444 b 403 1375 347 1444 376 1417 l 451 1297 l 465 1297 l 514 1375 b 632 1444 540 1417 569 1444 b 729 1354 688 1444 729 1403 b 694 1278 729 1319 694 1278 l 604 1153 b 458 1083 583 1125 542 1083 "},"ť":{"ha":939,"x_min":0,"x_max":0,"o":"m 717 590 b 661 632 682 590 661 611 b 764 736 661 701 751 681 b 661 861 710 743 661 792 b 800 986 661 931 717 986 b 939 819 839 986 939 961 b 717 590 939 701 828 590 m 403 -21 b 111 271 236 -21 111 104 l 111 479 b 14 597 111 479 14 507 b 111 715 14 688 111 715 l 111 764 b 250 889 111 833 167 889 b 389 764 333 889 389 833 l 389 722 l 458 722 b 597 597 542 722 597 667 b 458 472 597 526 542 472 l 389 472 l 389 271 b 444 208 389 236 417 208 b 514 222 472 208 486 222 b 625 118 583 222 625 181 b 403 -21 625 49 556 -21 "},"Ū":{"ha":1069,"x_min":0,"x_max":0,"o":"m 535 -28 b 90 375 257 -28 90 139 l 90 847 b 243 986 90 931 146 986 b 396 847 340 986 396 931 l 396 375 b 535 222 396 278 451 222 b 674 375 618 222 674 278 l 674 847 b 826 986 674 931 729 986 b 979 847 924 986 979 931 l 979 375 b 535 -28 979 139 813 -28 m 375 1125 b 271 1229 313 1125 271 1167 b 375 1333 271 1292 313 1333 l 694 1333 b 799 1229 757 1333 799 1292 b 694 1125 799 1167 757 1125 l 375 1125 "},"ū":{"ha":861,"x_min":0,"x_max":0,"o":"m 347 -21 b 69 299 194 -21 69 104 l 69 604 b 208 729 69 674 125 729 b 347 604 292 729 347 674 l 347 299 b 431 201 347 243 389 201 b 514 299 472 201 514 243 l 514 604 b 653 729 514 674 569 729 b 792 604 736 729 792 674 l 792 118 b 653 -7 792 50 736 -7 b 528 63 556 -7 528 61 l 514 63 b 347 -21 514 63 458 -21 m 285 875 b 181 979 222 875 181 917 b 285 1083 181 1042 222 1083 l 604 1083 b 708 979 667 1083 708 1042 b 604 875 708 917 667 875 l 285 875 "},"Ů":{"ha":1069,"x_min":0,"x_max":0,"o":"m 535 -28 b 90 375 257 -28 90 139 l 90 847 b 243 986 90 931 146 986 b 396 847 340 986 396 931 l 396 375 b 535 222 396 278 451 222 b 674 375 618 222 674 278 l 674 847 b 826 986 674 931 729 986 b 979 847 924 986 979 931 l 979 375 b 535 -28 979 139 813 -28 m 535 1042 b 319 1236 410 1042 319 1132 b 535 1431 319 1340 410 1431 b 750 1236 660 1431 750 1340 b 535 1042 750 1132 660 1042 m 535 1174 b 590 1236 563 1174 590 1201 b 535 1299 590 1271 563 1299 b 479 1236 507 1299 479 1271 b 535 1174 479 1201 507 1174 "},"ů":{"ha":861,"x_min":0,"x_max":0,"o":"m 347 -21 b 69 299 194 -21 69 104 l 69 604 b 208 729 69 674 125 729 b 347 604 292 729 347 674 l 347 299 b 431 201 347 243 389 201 b 514 299 472 201 514 243 l 514 604 b 653 729 514 674 569 729 b 792 604 736 729 792 674 l 792 118 b 653 -7 792 50 736 -7 b 528 63 556 -7 528 61 l 514 63 b 347 -21 514 63 458 -21 m 444 792 b 229 986 319 792 229 882 b 444 1181 229 1090 319 1181 b 660 986 569 1181 660 1090 b 444 792 660 882 569 792 m 444 924 b 500 986 472 924 500 951 b 444 1049 500 1021 472 1049 b 389 986 417 1049 389 1021 b 444 924 389 951 417 924 "},"Ű":{"ha":1069,"x_min":0,"x_max":0,"o":"m 535 -28 b 90 375 257 -28 90 139 l 90 847 b 243 986 90 931 146 986 b 396 847 340 986 396 931 l 396 375 b 535 222 396 278 451 222 b 674 375 618 222 674 278 l 674 847 b 826 986 674 931 729 986 b 979 847 924 986 979 931 l 979 375 b 535 -28 979 139 813 -28 m 364 1083 b 281 1160 315 1083 281 1118 b 294 1236 281 1194 294 1236 l 329 1347 b 461 1444 347 1404 392 1444 b 565 1347 524 1444 565 1403 b 544 1264 565 1306 544 1264 l 482 1154 b 364 1083 461 1118 426 1083 m 669 1083 b 586 1160 621 1083 586 1118 b 600 1236 586 1194 600 1236 l 635 1347 b 767 1444 653 1404 697 1444 b 871 1347 829 1444 871 1403 b 850 1264 871 1306 850 1264 l 788 1154 b 669 1083 767 1118 732 1083 "},"ű":{"ha":861,"x_min":0,"x_max":0,"o":"m 347 -21 b 69 299 194 -21 69 104 l 69 604 b 208 729 69 674 125 729 b 347 604 292 729 347 674 l 347 299 b 431 201 347 243 389 201 b 514 299 472 201 514 243 l 514 604 b 653 729 514 674 569 729 b 792 604 736 729 792 674 l 792 118 b 653 -7 792 50 736 -7 b 528 63 556 -7 528 61 l 514 63 b 347 -21 514 63 458 -21 m 274 833 b 190 910 225 833 190 868 b 204 986 190 944 204 986 l 239 1097 b 371 1194 257 1154 301 1194 b 475 1097 433 1194 475 1153 b 454 1014 475 1056 454 1014 l 392 904 b 274 833 371 868 336 833 m 579 833 b 496 910 531 833 496 868 b 510 986 496 944 510 986 l 544 1097 b 676 1194 563 1154 607 1194 b 781 1097 739 1194 781 1153 b 760 1014 781 1056 760 1014 l 697 904 b 579 833 676 868 642 833 "},"Ų":{"ha":1069,"x_min":0,"x_max":0,"o":"m 624 -361 b 394 -181 485 -361 394 -271 b 481 -25 394 -110 440 -58 b 90 375 235 -6 90 154 l 90 847 b 243 986 90 931 146 986 b 396 847 340 986 396 931 l 396 375 b 535 222 396 278 451 222 b 674 375 618 222 674 278 l 674 847 b 826 986 674 931 729 986 b 979 847 924 986 979 931 l 979 375 b 738 8 979 203 892 69 b 610 -125 707 -7 610 -65 b 679 -181 610 -160 631 -181 b 776 -271 742 -181 776 -215 b 624 -361 776 -319 735 -361 "},"ų":{"ha":861,"x_min":0,"x_max":0,"o":"m 604 -361 b 375 -181 465 -361 375 -271 b 544 35 375 -74 507 13 b 528 63 532 49 528 61 l 514 63 b 347 -21 514 63 458 -21 b 69 299 194 -21 69 104 l 69 604 b 208 729 69 674 125 729 b 347 604 292 729 347 674 l 347 299 b 431 201 347 243 389 201 b 514 299 472 201 514 243 l 514 604 b 653 729 514 674 569 729 b 792 604 736 729 792 674 l 792 118 b 590 -125 792 -14 590 -14 b 660 -181 590 -160 611 -181 b 757 -271 722 -181 757 -215 b 604 -361 757 -319 715 -361 "},"Ÿ":{"ha":944,"x_min":0,"x_max":0,"o":"m 472 -14 b 319 125 375 -14 319 42 l 319 347 l 56 722 b 0 847 56 722 0 792 b 160 986 0 931 56 986 b 285 917 236 986 285 917 l 465 653 l 479 653 l 660 917 b 785 986 660 917 708 986 b 944 847 889 986 944 931 b 889 722 944 792 889 722 l 625 347 l 625 125 b 472 -14 625 42 569 -14 m 313 1097 b 181 1222 236 1097 181 1153 b 313 1347 181 1292 236 1347 b 444 1222 389 1347 444 1292 b 313 1097 444 1153 389 1097 m 632 1097 b 500 1222 556 1097 500 1153 b 632 1347 500 1292 556 1347 b 764 1222 708 1347 764 1292 b 632 1097 764 1153 708 1097 "},"Ź":{"ha":875,"x_min":0,"x_max":0,"o":"m 153 0 b 0 139 56 0 0 56 b 56 278 0 222 56 278 l 431 681 l 431 694 l 167 694 b 14 833 69 694 14 750 b 167 972 14 917 69 972 l 708 972 b 861 833 806 972 861 917 b 806 694 861 750 806 694 l 458 292 l 458 278 l 722 278 b 875 139 819 278 875 222 b 722 0 875 56 819 0 l 153 0 m 447 1083 b 357 1167 392 1083 357 1118 b 371 1236 357 1201 371 1236 l 406 1340 b 544 1444 426 1403 468 1444 b 656 1340 614 1444 656 1403 b 635 1264 656 1299 635 1264 l 572 1161 b 447 1083 550 1125 510 1083 "},"ź":{"ha":722,"x_min":0,"x_max":0,"o":"m 132 0 b 7 125 63 0 7 56 b 63 250 7 201 63 250 l 299 458 l 299 472 l 160 472 b 21 597 76 472 21 528 b 160 722 21 667 76 722 l 576 722 b 701 597 646 722 701 667 b 646 472 701 521 646 472 l 410 264 l 410 250 l 576 250 b 715 125 660 250 715 194 b 576 0 715 56 660 0 l 132 0 m 371 833 b 281 917 315 833 281 868 b 294 986 281 951 294 986 l 329 1090 b 468 1194 350 1153 392 1194 b 579 1090 538 1194 579 1153 b 558 1014 579 1049 558 1014 l 496 911 b 371 833 474 875 433 833 "},"Ż":{"ha":875,"x_min":0,"x_max":0,"o":"m 153 0 b 0 139 56 0 0 56 b 56 278 0 222 56 278 l 431 681 l 431 694 l 167 694 b 14 833 69 694 14 750 b 167 972 14 917 69 972 l 708 972 b 861 833 806 972 861 917 b 806 694 861 750 806 694 l 458 292 l 458 278 l 722 278 b 875 139 819 278 875 222 b 722 0 875 56 819 0 l 153 0 m 451 1097 b 313 1222 368 1097 313 1153 b 451 1347 313 1292 368 1347 b 590 1222 535 1347 590 1292 b 451 1097 590 1153 535 1097 "},"ż":{"ha":722,"x_min":0,"x_max":0,"o":"m 132 0 b 7 125 63 0 7 56 b 63 250 7 201 63 250 l 299 458 l 299 472 l 160 472 b 21 597 76 472 21 528 b 160 722 21 667 76 722 l 576 722 b 701 597 646 722 701 667 b 646 472 701 521 646 472 l 410 264 l 410 250 l 576 250 b 715 125 660 250 715 194 b 576 0 715 56 660 0 l 132 0 m 375 847 b 236 972 292 847 236 903 b 375 1097 236 1042 292 1097 b 514 972 458 1097 514 1042 b 375 847 514 903 458 847 "},"Ž":{"ha":875,"x_min":0,"x_max":0,"o":"m 153 0 b 0 139 56 0 0 56 b 56 278 0 222 56 278 l 431 681 l 431 694 l 167 694 b 14 833 69 694 14 750 b 167 972 14 917 69 972 l 708 972 b 861 833 806 972 861 917 b 806 694 861 750 806 694 l 458 292 l 458 278 l 722 278 b 875 139 819 278 875 222 b 722 0 875 56 819 0 l 153 0 m 438 1083 b 292 1153 354 1083 313 1125 l 201 1278 b 167 1354 201 1278 167 1319 b 264 1444 167 1403 208 1444 b 382 1375 326 1444 356 1417 l 431 1297 l 444 1297 l 493 1375 b 611 1444 519 1417 549 1444 b 708 1354 667 1444 708 1403 b 674 1278 708 1319 674 1278 l 583 1153 b 438 1083 563 1125 521 1083 "},"ž":{"ha":722,"x_min":0,"x_max":0,"o":"m 132 0 b 7 125 63 0 7 56 b 63 250 7 201 63 250 l 299 458 l 299 472 l 160 472 b 21 597 76 472 21 528 b 160 722 21 667 76 722 l 576 722 b 701 597 646 722 701 667 b 646 472 701 521 646 472 l 410 264 l 410 250 l 576 250 b 715 125 660 250 715 194 b 576 0 715 56 660 0 l 132 0 m 361 833 b 215 903 278 833 236 875 l 125 1028 b 90 1104 125 1028 90 1069 b 188 1194 90 1153 132 1194 b 306 1125 250 1194 279 1167 l 354 1047 l 368 1047 l 417 1125 b 535 1194 443 1167 472 1194 b 632 1104 590 1194 632 1153 b 597 1028 632 1069 597 1028 l 507 903 b 361 833 486 875 444 833 "},"ƒ":{"ha":632,"x_min":0,"x_max":0,"o":"m 42 -306 b -69 -194 -21 -306 -69 -257 b 146 97 -69 -42 146 -111 l 146 424 b 49 542 146 424 49 451 b 146 660 49 632 146 660 l 146 708 b 438 1000 146 875 271 1000 b 660 861 590 1000 660 931 b 549 757 660 799 618 757 b 479 771 521 757 507 771 b 424 708 451 771 424 743 l 424 667 l 493 667 b 632 542 576 667 632 613 b 493 417 632 472 576 417 l 424 417 l 424 97 b 42 -306 424 -139 257 -306 "},"Ș":{"ha":896,"x_min":0,"x_max":0,"o":"m 354 -493 b 299 -451 319 -493 299 -472 b 401 -347 299 -382 389 -403 b 299 -222 347 -340 299 -292 b 438 -97 299 -153 354 -97 b 576 -264 476 -97 576 -122 b 354 -493 576 -382 465 -493 m 417 -28 b 21 208 160 -28 21 111 b 174 333 21 285 69 333 b 417 236 285 333 299 236 b 556 306 521 236 556 271 b 42 681 556 389 42 347 b 458 1000 42 861 181 1000 b 840 764 701 1000 840 861 b 688 639 840 688 792 639 b 458 736 576 639 563 736 b 361 681 389 736 361 708 b 875 306 361 583 875 625 b 417 -28 875 125 722 -28 "},"ș":{"ha":708,"x_min":0,"x_max":0,"o":"m 333 -21 b 14 153 118 -21 14 83 b 139 257 14 215 56 257 b 333 181 236 257 250 181 b 403 222 382 181 403 201 b 35 500 403 292 35 250 b 382 743 35 639 139 743 b 681 569 576 743 681 639 b 556 465 681 507 639 465 b 382 542 458 465 444 542 b 326 500 347 542 326 521 b 694 222 326 431 694 472 b 333 -21 694 90 583 -21 m 271 -493 b 215 -451 236 -493 215 -472 b 318 -347 215 -382 306 -403 b 215 -222 264 -340 215 -292 b 354 -97 215 -153 271 -97 b 493 -264 431 -97 493 -160 b 271 -493 493 -382 382 -493 "},"ʼ":{"ha":389,"x_min":0,"x_max":0,"o":"m 111 785 b 56 826 76 785 56 806 b 158 931 56 896 146 875 b 56 1056 104 938 56 986 b 194 1181 56 1125 111 1181 b 333 1014 271 1181 333 1118 b 111 785 333 896 222 785 "},"ˆ":{"ha":653,"x_min":0,"x_max":0,"o":"m 153 819 b 56 910 97 819 56 861 b 90 986 56 944 90 986 l 181 1111 b 326 1181 201 1139 243 1181 b 472 1111 410 1181 451 1139 l 563 986 b 597 910 563 986 597 944 b 500 819 597 861 556 819 b 382 889 438 819 408 847 l 333 967 l 319 967 l 271 889 b 153 819 244 847 215 819 "},"ˇ":{"ha":653,"x_min":0,"x_max":0,"o":"m 326 819 b 181 889 243 819 201 861 l 90 1014 b 56 1090 90 1014 56 1056 b 153 1181 56 1139 97 1181 b 271 1111 215 1181 244 1153 l 319 1033 l 333 1033 l 382 1111 b 500 1181 408 1153 438 1181 b 597 1090 556 1181 597 1139 b 563 1014 597 1056 563 1014 l 472 889 b 326 819 451 861 410 819 "},"˘":{"ha":625,"x_min":0,"x_max":0,"o":"m 313 875 b 56 1056 153 875 56 972 b 153 1153 56 1111 97 1153 b 313 1076 243 1153 229 1076 b 472 1153 396 1076 382 1153 b 569 1056 528 1153 569 1111 b 313 875 569 972 472 875 "},"˙":{"ha":389,"x_min":0,"x_max":0,"o":"m 194 889 b 56 1014 111 889 56 944 b 194 1139 56 1083 111 1139 b 333 1014 278 1139 333 1083 b 194 889 333 944 278 889 "},"˚":{"ha":542,"x_min":0,"x_max":0,"o":"m 271 819 b 56 1014 146 819 56 910 b 271 1208 56 1118 146 1208 b 486 1014 396 1208 486 1118 b 271 819 486 910 396 819 m 271 951 b 326 1014 299 951 326 979 b 271 1076 326 1049 299 1076 b 215 1014 243 1076 215 1049 b 271 951 215 979 243 951 "},"˛":{"ha":493,"x_min":0,"x_max":0,"o":"m 285 -361 b 56 -181 146 -361 56 -271 b 201 14 56 -56 201 14 l 410 14 b 271 -125 410 14 271 -56 b 340 -181 271 -160 292 -181 b 438 -271 403 -181 438 -215 b 285 -361 438 -319 396 -361 "},"˜":{"ha":701,"x_min":0,"x_max":0,"o":"m 153 875 b 56 986 97 875 56 917 b 236 1153 56 1076 132 1153 b 417 1083 326 1153 368 1083 b 549 1153 465 1083 464 1153 b 646 1042 604 1153 646 1111 b 465 875 646 951 569 875 b 285 944 375 875 333 944 b 153 875 236 944 238 875 "},"˝":{"ha":701,"x_min":0,"x_max":0,"o":"m 139 819 b 56 896 90 819 56 854 b 69 972 56 931 69 972 l 104 1083 b 236 1181 122 1140 167 1181 b 340 1083 299 1181 340 1139 b 319 1000 340 1042 319 1000 l 257 890 b 139 819 236 854 201 819 m 444 819 b 361 896 396 819 361 854 b 375 972 361 931 375 972 l 410 1083 b 542 1181 428 1140 472 1181 b 646 1083 604 1181 646 1139 b 625 1000 646 1042 625 1000 l 563 890 b 444 819 542 854 507 819 "},"Ё":{"ha":951,"x_min":0,"x_max":0,"o":"m 243 0 b 90 139 146 0 90 56 l 90 833 b 243 972 90 917 146 972 l 771 972 b 924 833 868 972 924 917 b 771 694 924 750 868 694 l 396 694 l 396 611 l 660 611 b 799 486 743 611 799 556 b 660 361 799 417 743 361 l 396 361 l 396 278 l 785 278 b 938 139 882 278 938 222 b 785 0 938 56 882 0 l 243 0 m 333 1056 b 194 1181 250 1056 194 1111 b 333 1306 194 1250 250 1306 b 472 1181 417 1306 472 1250 b 333 1056 472 1111 417 1056 m 660 1056 b 521 1181 576 1056 521 1111 b 660 1306 521 1250 576 1306 b 799 1181 743 1306 799 1250 b 660 1056 799 1111 743 1056 "},"Ђ":{"ha":1097,"x_min":0,"x_max":0,"o":"m 743 -56 b 632 56 681 -56 632 -7 b 764 264 632 167 764 125 b 646 375 764 333 715 375 b 514 347 569 375 514 347 l 514 125 b 361 -14 514 42 458 -14 b 208 125 264 -14 208 42 l 208 694 l 125 694 b -28 833 28 694 -28 750 b 125 972 -28 917 28 972 l 625 972 b 778 833 722 972 778 917 b 625 694 778 750 722 694 l 514 694 l 514 597 b 701 625 514 597 583 625 b 1069 264 917 625 1069 472 b 743 -56 1069 83 931 -56 "},"Ѓ":{"ha":868,"x_min":0,"x_max":0,"o":"m 243 -14 b 90 125 146 -14 90 42 l 90 833 b 243 972 90 917 146 972 l 715 972 b 868 833 813 972 868 917 b 715 694 868 750 813 694 l 396 694 l 396 125 b 243 -14 396 42 340 -14 m 472 1069 b 382 1153 417 1069 382 1104 b 389 1208 382 1181 389 1208 l 410 1306 b 563 1417 424 1368 472 1417 b 674 1319 625 1417 674 1368 b 653 1250 674 1278 653 1250 l 597 1153 b 472 1069 569 1104 535 1069 "},"Є":{"ha":931,"x_min":0,"x_max":0,"o":"m 521 -28 b 56 389 236 -28 56 153 l 56 583 b 521 1000 56 819 236 1000 b 903 764 764 1000 903 861 b 750 639 903 688 854 639 b 521 736 639 639 625 736 b 368 618 424 736 382 694 l 528 618 b 667 493 618 618 667 569 b 528 368 667 417 618 368 l 361 368 b 521 236 368 292 424 236 b 764 333 639 236 653 333 b 917 208 868 333 917 285 b 521 -28 917 111 778 -28 "},"Ѕ":{"ha":896,"x_min":0,"x_max":0,"o":"m 417 -28 b 21 208 160 -28 21 111 b 174 333 21 285 69 333 b 417 236 285 333 299 236 b 556 306 521 236 556 271 b 42 681 556 389 42 347 b 458 1000 42 861 181 1000 b 840 764 701 1000 840 861 b 688 639 840 688 792 639 b 458 736 576 639 563 736 b 361 681 389 736 361 708 b 875 306 361 583 875 625 b 417 -28 875 125 722 -28 "},"І":{"ha":486,"x_min":0,"x_max":0,"o":"m 243 -14 b 90 125 146 -14 90 42 l 90 847 b 243 986 90 931 146 986 b 396 847 340 986 396 931 l 396 125 b 243 -14 396 42 340 -14 "},"Ї":{"ha":528,"x_min":0,"x_max":0,"o":"m 97 1069 b -42 1194 14 1069 -42 1125 b 97 1319 -42 1264 14 1319 b 236 1194 181 1319 236 1264 b 97 1069 236 1125 181 1069 m 431 1069 b 292 1194 347 1069 292 1125 b 431 1319 292 1264 347 1319 b 569 1194 514 1319 569 1264 b 431 1069 569 1125 514 1069 m 264 -14 b 111 125 167 -14 111 42 l 111 847 b 264 986 111 931 167 986 b 417 847 361 986 417 931 l 417 125 b 264 -14 417 42 361 -14 "},"Ј":{"ha":646,"x_min":0,"x_max":0,"o":"m 125 -28 b -28 111 28 -28 -28 28 b 250 417 -28 292 250 181 l 250 847 b 403 986 250 931 306 986 b 556 847 500 986 556 931 l 556 417 b 125 -28 556 153 375 -28 "},"Љ":{"ha":1479,"x_min":0,"x_max":0,"o":"m 125 -28 b -14 111 42 -28 -14 28 b 181 500 -14 250 181 181 l 181 833 b 333 972 181 917 236 972 l 785 972 b 938 833 882 972 938 917 l 938 681 l 1021 681 b 1451 340 1299 681 1451 528 b 1021 0 1451 153 1299 0 l 785 0 b 632 139 694 0 632 56 l 632 694 l 486 694 l 486 500 b 125 -28 486 153 306 -28 m 1021 250 b 1132 340 1090 250 1132 292 b 1021 431 1132 389 1090 431 l 938 431 l 938 250 "},"Њ":{"ha":1479,"x_min":0,"x_max":0,"o":"m 243 -14 b 90 125 146 -14 90 42 l 90 847 b 243 986 90 931 146 986 b 396 847 340 986 396 931 l 396 639 l 632 639 l 632 847 b 785 986 632 931 688 986 b 938 847 882 986 938 931 l 938 653 l 1035 653 b 1451 326 1299 653 1451 500 b 1035 0 1451 153 1299 0 l 785 0 b 632 139 694 0 632 56 l 632 375 l 396 375 l 396 125 b 243 -14 396 42 340 -14 m 1035 250 b 1132 326 1097 250 1132 285 b 1035 403 1132 368 1097 403 l 938 403 l 938 250 "},"Ћ":{"ha":1111,"x_min":0,"x_max":0,"o":"m 361 -14 b 208 125 264 -14 208 42 l 208 694 l 125 694 b -28 833 28 694 -28 750 b 125 972 -28 917 28 972 l 625 972 b 778 833 722 972 778 917 b 625 694 778 750 722 694 l 514 694 l 514 597 b 701 625 514 597 583 625 b 1069 250 917 625 1069 472 l 1069 125 b 917 -14 1069 42 1013 -14 b 764 125 819 -14 764 42 l 764 250 b 646 375 764 326 715 375 b 514 347 569 375 514 347 l 514 125 b 361 -14 514 42 458 -14 "},"Ќ":{"ha":993,"x_min":0,"x_max":0,"o":"m 500 1028 b 410 1111 444 1028 410 1063 b 417 1167 410 1139 417 1167 l 438 1264 b 590 1375 451 1326 500 1375 b 701 1278 653 1375 701 1326 b 681 1208 701 1236 681 1208 l 625 1111 b 500 1028 597 1063 563 1028 m 243 -14 b 90 125 146 -14 90 42 l 90 847 b 243 986 90 931 146 986 b 396 847 340 986 396 931 l 396 653 l 701 944 b 813 986 701 944 743 986 b 951 847 896 986 951 931 b 896 736 951 778 896 736 l 701 549 l 938 250 b 993 125 938 250 993 181 b 840 -14 993 42 938 -14 b 708 56 764 -14 708 56 l 472 354 l 396 285 l 396 125 b 243 -14 396 42 340 -14 "},"Ў":{"ha":924,"x_min":0,"x_max":0,"o":"m 458 1000 b 167 1208 278 1000 167 1111 b 264 1306 167 1264 208 1306 b 458 1222 368 1306 354 1222 b 653 1306 563 1222 549 1306 b 750 1208 708 1306 750 1264 b 458 1000 750 1111 639 1000 m 264 -28 b 42 139 118 -28 42 49 b 167 264 42 208 97 264 b 264 236 222 264 236 236 b 306 264 292 236 306 264 l 35 722 b 0 847 35 722 0 778 b 153 986 0 924 63 986 b 319 847 229 986 278 931 l 472 556 l 486 556 l 604 847 b 771 986 642 931 694 986 b 924 847 861 986 924 924 b 889 722 924 778 889 722 l 667 264 b 264 -28 594 111 458 -28 "},"Џ":{"ha":1069,"x_min":0,"x_max":0,"o":"m 535 -208 b 382 -69 438 -208 382 -153 l 382 0 l 243 0 b 90 139 146 0 90 56 l 90 847 b 243 986 90 931 146 986 b 396 847 340 986 396 931 l 396 278 l 674 278 l 674 847 b 826 986 674 931 729 986 b 979 847 924 986 979 931 l 979 139 b 826 0 979 56 924 0 l 688 0 l 688 -69 b 535 -208 688 -153 632 -208 "},"А":{"ha":1000,"x_min":0,"x_max":0,"o":"m 153 -14 b 0 125 63 -14 0 49 b 35 250 0 167 35 250 l 257 833 b 500 1000 299 938 361 1000 b 743 833 639 1000 703 938 l 965 250 b 1000 125 965 250 1000 167 b 847 -14 1000 49 938 -14 b 681 125 771 -14 715 42 l 646 208 l 354 208 l 319 125 b 153 -14 285 42 229 -14 m 583 458 l 507 667 l 493 667 l 417 458 "},"Б":{"ha":993,"x_min":0,"x_max":0,"o":"m 243 0 b 90 139 146 0 90 56 l 90 833 b 243 972 90 917 146 972 b 750 972 274 972 750 972 b 896 840 847 972 896 924 b 750 708 896 757 847 708 l 396 708 l 396 625 l 561 625 b 972 313 833 625 972 486 b 563 0 972 139 833 0 l 243 0 m 563 243 b 653 313 624 243 653 271 b 563 382 653 354 625 382 l 396 382 l 396 243 "},"В":{"ha":1007,"x_min":0,"x_max":0,"o":"m 243 0 b 90 139 146 0 90 56 l 90 833 b 243 972 92 917 146 972 l 521 972 b 924 715 813 972 924 861 b 771 528 924 569 771 528 l 771 514 b 979 285 771 514 979 472 b 563 0 979 125 854 0 l 243 0 m 563 236 b 660 313 625 236 660 271 b 563 389 660 354 625 389 l 396 389 l 396 236 m 521 611 b 604 674 576 611 604 639 b 521 736 604 708 576 736 l 396 736 l 396 611 "},"Г":{"ha":868,"x_min":0,"x_max":0,"o":"m 243 -14 b 90 125 146 -14 90 42 l 90 833 b 243 972 90 917 146 972 l 715 972 b 868 833 813 972 868 917 b 715 694 868 750 813 694 l 396 694 l 396 125 b 243 -14 396 42 340 -14 "},"Д":{"ha":1139,"x_min":0,"x_max":0,"o":"m 139 -208 b -14 -69 42 -208 -14 -153 l -14 154 b 111 278 -14 236 28 278 b 194 500 111 278 194 375 l 194 833 b 347 972 194 917 250 972 l 826 972 b 979 833 924 972 979 917 l 979 278 l 993 278 b 1118 151 1076 278 1118 236 l 1118 -69 b 965 -208 1118 -153 1063 -208 b 813 -69 868 -208 813 -153 l 813 0 l 292 0 l 292 -69 b 139 -208 292 -153 236 -208 m 674 278 l 674 694 l 500 694 l 500 500 b 424 292 500 375 424 292 l 424 278 "},"Е":{"ha":951,"x_min":0,"x_max":0,"o":"m 243 0 b 90 139 146 0 90 56 l 90 833 b 243 972 90 917 146 972 l 771 972 b 924 833 868 972 924 917 b 771 694 924 750 868 694 l 396 694 l 396 611 l 660 611 b 799 486 743 611 799 556 b 660 361 799 417 743 361 l 396 361 l 396 278 l 785 278 b 938 139 882 278 938 222 b 785 0 938 56 882 0 l 243 0 "},"Ж":{"ha":1444,"x_min":0,"x_max":0,"o":"m 153 -14 b 0 125 56 -14 0 42 b 56 250 0 181 56 250 l 285 542 l 83 736 b 28 847 83 736 28 778 b 167 986 28 931 83 986 b 278 944 236 986 278 944 l 569 667 l 569 847 b 722 986 569 931 625 986 b 875 847 819 986 875 931 l 875 667 l 1167 944 b 1278 986 1167 944 1208 986 b 1417 847 1361 986 1417 931 b 1361 736 1417 778 1361 736 l 1160 542 l 1389 250 b 1444 125 1389 250 1444 181 b 1292 -14 1444 42 1389 -14 b 1160 56 1215 -14 1160 56 l 931 347 l 875 299 l 875 125 b 722 -14 875 42 819 -14 b 569 125 625 -14 569 42 l 569 299 l 514 347 l 285 56 b 153 -14 285 56 229 -14 "},"З":{"ha":903,"x_min":0,"x_max":0,"o":"m 417 -28 b 21 208 160 -28 21 111 b 174 333 21 285 69 333 b 417 236 285 333 299 236 b 556 306 521 236 556 271 b 451 375 556 340 521 375 l 388 375 b 257 500 313 375 257 432 b 388 625 257 569 299 625 l 451 625 b 528 681 500 625 528 653 b 431 736 528 708 500 736 b 201 639 326 736 313 639 b 49 764 97 639 49 688 b 431 1000 49 861 188 1000 b 847 694 708 1000 847 861 b 681 500 847 542 681 500 l 681 486 b 875 278 681 486 875 444 b 417 -28 875 111 736 -28 "},"И":{"ha":1083,"x_min":0,"x_max":0,"o":"m 243 -14 b 90 125 146 -14 90 43 l 90 847 b 243 986 90 931 146 986 b 396 847 340 986 396 931 l 396 528 l 410 528 l 646 847 b 840 986 708 938 757 986 b 993 847 938 986 993 929 l 993 125 b 840 -14 993 42 938 -14 b 688 125 743 -14 688 42 l 688 444 l 674 444 l 438 125 b 243 -14 375 35 326 -14 "},"Й":{"ha":1083,"x_min":0,"x_max":0,"o":"m 243 -14 b 90 125 146 -14 90 43 l 90 847 b 243 986 90 931 146 986 b 396 847 340 986 396 931 l 396 528 l 410 528 l 646 847 b 840 986 708 938 757 986 b 993 847 938 986 993 929 l 993 125 b 840 -14 993 42 938 -14 b 688 125 743 -14 688 42 l 688 444 l 674 444 l 438 125 b 243 -14 375 35 326 -14 m 556 1028 b 264 1236 375 1028 264 1139 b 361 1333 264 1292 306 1333 b 556 1250 465 1333 451 1250 b 750 1333 660 1250 646 1333 b 847 1236 806 1333 847 1292 b 556 1028 847 1139 736 1028 "},"К":{"ha":993,"x_min":0,"x_max":0,"o":"m 243 -14 b 90 125 146 -14 90 42 l 90 847 b 243 986 90 931 146 986 b 396 847 340 986 396 931 l 396 653 l 701 944 b 813 986 701 944 743 986 b 951 847 896 986 951 931 b 896 736 951 778 896 736 l 701 549 l 938 250 b 993 125 938 250 993 181 b 840 -14 993 42 938 -14 b 708 56 764 -14 708 56 l 472 354 l 396 285 l 396 125 b 243 -14 396 42 340 -14 "},"Л":{"ha":1069,"x_min":0,"x_max":0,"o":"m 125 -28 b -14 111 42 -28 -14 28 b 181 500 -14 250 181 181 l 181 833 b 333 972 181 917 236 972 l 826 972 b 979 833 924 972 979 917 l 979 125 b 826 -14 979 42 924 -14 b 674 125 729 -14 674 42 l 674 694 l 486 694 l 486 500 b 125 -28 486 153 306 -28 "},"М":{"ha":1361,"x_min":0,"x_max":0,"o":"m 174 -14 b 28 125 83 -14 28 42 b 42 250 28 181 42 250 l 139 833 b 340 1000 156 931 222 1000 b 549 833 444 1000 507 938 l 674 508 l 688 508 l 813 833 b 1021 1000 853 938 917 1000 b 1222 833 1139 1000 1207 931 l 1319 250 b 1333 125 1319 250 1333 181 b 1188 -14 1333 42 1278 -14 b 1028 125 1097 -14 1042 42 l 965 486 l 951 486 l 847 222 b 681 83 813 132 764 83 b 514 222 597 83 547 132 l 410 486 l 396 486 l 333 125 b 174 -14 319 42 264 -14 "},"Н":{"ha":1069,"x_min":0,"x_max":0,"o":"m 243 -14 b 90 125 146 -14 90 42 l 90 847 b 243 986 90 931 146 986 b 396 847 340 986 396 931 l 396 611 l 674 611 l 674 847 b 826 986 674 931 729 986 b 979 847 924 986 979 931 l 979 125 b 826 -14 979 42 924 -14 b 674 125 729 -14 674 42 l 674 347 l 396 347 l 396 125 b 243 -14 396 42 340 -14 "},"О":{"ha":1042,"x_min":0,"x_max":0,"o":"m 521 -28 b 56 389 236 -28 56 153 l 56 583 b 521 1000 56 819 236 1000 b 986 583 806 1000 986 819 l 986 389 b 521 -28 986 153 806 -28 m 521 208 b 674 389 604 208 674 278 l 674 583 b 521 764 674 694 604 764 b 368 583 438 764 368 694 l 368 389 b 521 208 368 278 438 208 "},"П":{"ha":1069,"x_min":0,"x_max":0,"o":"m 243 -14 b 90 125 146 -14 90 42 l 90 833 b 243 972 90 917 146 972 l 826 972 b 979 833 924 972 979 917 l 979 125 b 826 -14 979 42 924 -14 b 674 125 729 -14 674 42 l 674 694 l 396 694 l 396 125 b 243 -14 396 42 340 -14 "},"Р":{"ha":979,"x_min":0,"x_max":0,"o":"m 243 -14 b 90 125 146 -14 90 42 l 90 833 b 243 972 90 917 146 972 l 521 972 b 951 632 799 972 951 819 b 521 292 951 444 799 292 l 396 292 l 396 125 b 243 -14 396 42 340 -14 m 521 542 b 632 632 590 542 632 583 b 521 722 632 681 590 722 l 396 722 l 396 542 "},"С":{"ha":938,"x_min":0,"x_max":0,"o":"m 521 -28 b 56 389 236 -28 56 153 l 56 583 b 521 1000 56 819 236 1000 b 903 764 764 1000 903 861 b 750 639 903 688 854 639 b 521 736 639 639 625 736 b 368 583 431 736 368 674 l 368 389 b 521 236 368 299 431 236 b 764 333 639 236 653 333 b 917 208 868 333 917 285 b 521 -28 917 111 778 -28 "},"Т":{"ha":917,"x_min":0,"x_max":0,"o":"m 458 -14 b 306 125 361 -14 306 42 l 306 694 l 153 694 b 0 833 56 694 0 750 b 153 972 0 917 56 972 l 764 972 b 917 833 861 972 917 917 b 764 694 917 750 861 694 l 611 694 l 611 125 b 458 -14 611 42 556 -14 "},"У":{"ha":924,"x_min":0,"x_max":0,"o":"m 264 -28 b 42 139 118 -28 42 49 b 167 264 42 208 97 264 b 264 236 222 264 236 236 b 306 264 292 236 306 264 l 35 722 b 0 847 35 722 0 778 b 153 986 0 924 63 986 b 319 847 229 986 278 931 l 472 556 l 486 556 l 604 847 b 771 986 642 931 694 986 b 924 847 861 986 924 924 b 889 722 924 778 889 722 l 667 264 b 264 -28 594 111 458 -28 "},"Ф":{"ha":1375,"x_min":0,"x_max":0,"o":"m 688 -97 b 535 42 590 -97 535 -42 l 535 83 b 382 56 535 83 465 56 b 49 403 188 56 49 194 l 49 569 b 382 917 49 778 188 917 b 535 889 465 917 535 889 l 535 931 b 688 1069 535 1013 590 1069 b 840 931 785 1069 840 1013 l 840 889 b 993 917 840 889 910 917 b 1326 569 1188 917 1326 778 l 1326 403 b 993 56 1326 194 1188 56 b 840 83 910 56 840 83 l 840 42 b 688 -97 840 -42 785 -97 m 465 306 b 535 319 507 306 535 319 l 535 653 b 465 667 535 653 507 667 b 354 569 389 667 354 632 l 354 403 b 465 306 354 340 389 306 m 910 306 b 1021 403 986 306 1021 340 l 1021 569 b 910 667 1021 632 986 667 b 840 653 868 667 840 653 l 840 319 b 910 306 840 319 868 306 "},"Х":{"ha":931,"x_min":0,"x_max":0,"o":"m 153 -14 b 7 125 63 -14 7 42 b 63 250 7 181 63 250 l 271 500 l 90 722 b 35 847 90 722 35 792 b 181 986 35 931 90 986 b 319 917 264 986 319 917 l 458 736 l 472 736 l 611 917 b 750 986 611 917 667 986 b 896 847 840 986 896 931 b 840 722 896 792 840 722 l 660 500 l 868 250 b 924 125 868 250 924 181 b 778 -14 924 42 868 -14 b 639 56 694 -14 639 56 l 472 257 l 458 257 l 292 56 b 153 -14 292 56 236 -14 "},"Ц":{"ha":1125,"x_min":0,"x_max":0,"o":"m 951 -208 b 799 -69 854 -208 799 -153 l 799 0 l 243 0 b 90 139 146 0 90 56 l 90 847 b 243 986 90 931 146 986 b 396 847 340 986 396 931 l 396 278 l 660 278 l 660 847 b 813 986 660 931 715 986 b 965 847 910 986 965 931 l 965 278 l 979 278 b 1104 153 1063 278 1104 236 l 1104 -69 b 951 -208 1104 -153 1049 -208 "},"Ч":{"ha":1028,"x_min":0,"x_max":0,"o":"m 785 -14 b 632 125 688 -14 632 42 l 632 319 b 431 292 632 319 549 292 b 63 667 215 292 63 444 l 63 847 b 215 986 63 931 119 986 b 368 847 313 986 368 931 l 368 667 b 486 542 368 590 417 542 b 632 569 576 542 632 569 l 632 846 b 785 986 632 931 688 986 b 938 847 882 986 938 931 l 938 125 b 785 -14 938 42 882 -14 "},"Ш":{"ha":1528,"x_min":0,"x_max":0,"o":"m 243 0 b 90 139 146 0 90 56 l 90 847 b 243 986 90 931 146 986 b 396 847 340 986 396 931 l 396 278 l 611 278 l 611 847 b 764 986 611 931 667 986 b 917 847 861 986 917 931 l 917 278 l 1132 278 l 1132 847 b 1285 986 1132 931 1188 986 b 1438 847 1382 986 1438 931 l 1438 139 b 1285 0 1438 56 1382 0 l 243 0 "},"Щ":{"ha":1597,"x_min":0,"x_max":0,"o":"m 1424 -208 b 1271 -69 1326 -208 1271 -153 l 1271 0 l 243 0 b 90 139 146 0 90 56 l 90 847 b 243 986 90 931 146 986 b 396 847 340 986 396 931 l 396 278 l 611 278 l 611 847 b 764 986 611 931 667 986 b 917 847 861 986 917 931 l 917 278 l 1132 278 l 1132 847 b 1285 986 1132 931 1188 986 b 1438 847 1382 986 1438 931 l 1438 278 l 1451 278 b 1576 153 1535 278 1576 236 l 1576 -69 b 1424 -208 1576 -153 1521 -208 "},"Ъ":{"ha":1111,"x_min":0,"x_max":0,"o":"m 375 0 b 222 139 278 0 222 56 l 222 694 l 139 694 b -14 833 42 694 -14 750 b 139 972 -14 917 42 972 l 375 972 b 528 833 472 972 528 917 b 528 681 528 828 526 824 l 653 681 b 1083 340 931 681 1083 528 b 653 0 1083 153 931 0 l 375 0 m 653 250 b 764 340 722 250 764 292 b 653 431 764 389 722 431 l 528 431 l 528 250 "},"Ы":{"ha":1424,"x_min":0,"x_max":0,"o":"m 243 0 b 90 139 146 0 90 56 l 90 847 b 243 986 90 931 146 986 b 396 847 340 986 396 931 l 396 681 l 507 681 b 938 340 785 681 938 528 b 507 0 938 153 785 0 l 243 0 m 507 250 b 618 340 576 250 618 292 b 507 431 618 389 576 431 l 396 431 l 396 250 m 1181 -14 b 1028 125 1083 -14 1028 42 l 1028 847 b 1181 986 1028 931 1083 986 b 1333 847 1278 986 1333 931 l 1333 125 b 1181 -14 1333 42 1278 -14 "},"Ь":{"ha":979,"x_min":0,"x_max":0,"o":"m 243 0 b 90 139 146 0 90 56 l 90 847 b 243 986 90 931 146 986 b 396 847 340 986 396 931 l 396 681 l 521 681 b 951 340 799 681 951 528 b 521 0 951 153 799 0 l 243 0 m 521 250 b 632 340 590 250 632 292 b 521 431 632 389 590 431 l 396 431 l 396 250 "},"Э":{"ha":938,"x_min":0,"x_max":0,"o":"m 417 -28 b 21 208 160 -28 21 111 b 174 333 21 285 69 333 b 417 236 285 333 299 236 b 576 368 514 236 569 292 l 410 368 b 271 493 319 368 271 417 b 410 618 271 569 319 618 l 569 618 b 417 736 556 694 514 736 b 188 639 313 736 299 639 b 35 764 83 639 35 688 b 417 1000 35 861 174 1000 b 882 583 701 1000 882 819 l 882 389 b 417 -28 882 153 701 -28 "},"Ю":{"ha":1444,"x_min":0,"x_max":0,"o":"m 951 -28 b 514 347 692 -28 526 125 l 396 347 l 396 125 b 243 -14 396 42 340 -14 b 90 125 146 -14 90 42 l 90 847 b 243 986 90 931 146 986 b 396 847 340 986 396 931 l 396 611 l 514 611 b 951 1000 519 839 686 1000 b 1389 597 1222 1000 1389 833 l 1389 375 b 951 -28 1389 139 1222 -28 m 951 208 b 1076 375 1021 208 1076 264 l 1076 597 b 951 764 1076 708 1021 764 b 826 597 882 764 826 708 l 826 375 b 951 208 826 264 882 208 "},"Я":{"ha":1007,"x_min":0,"x_max":0,"o":"m 174 -14 b 21 125 76 -14 21 42 b 76 250 21 188 76 250 l 222 417 l 222 431 b 63 660 222 431 63 486 b 479 972 63 819 215 972 b 764 972 540 972 764 972 b 917 833 861 972 917 917 l 917 125 b 764 -14 917 42 861 -14 b 611 124 667 -14 611 42 l 611 347 l 542 347 l 306 56 b 174 -14 306 56 250 -14 m 611 583 l 611 736 b 479 736 611 736 503 736 b 382 660 417 736 382 701 b 479 583 382 618 417 583 "},"а":{"ha":813,"x_min":0,"x_max":0,"o":"m 299 -14 b 35 222 139 -14 35 90 b 382 458 35 354 139 458 l 472 458 b 389 535 472 493 431 535 b 208 465 306 535 306 465 b 83 569 125 465 83 507 b 389 743 83 639 174 743 b 750 458 618 743 750 611 l 750 125 b 611 0 750 56 694 0 b 486 69 514 0 486 69 l 472 69 b 299 -14 472 69 417 -14 m 382 188 b 472 272 431 188 472 229 l 472 285 l 382 285 b 313 236 333 285 313 264 b 382 188 313 208 333 188 "},"б":{"ha":833,"x_min":0,"x_max":0,"o":"m 431 -21 b 56 299 201 -21 56 125 l 56 597 b 333 958 56 792 194 931 l 542 1000 b 653 1014 542 1000 611 1014 b 778 889 729 1014 778 965 b 639 771 778 792 639 771 l 431 729 b 306 597 354 714 306 667 l 319 597 b 472 646 319 597 375 646 b 806 340 681 646 806 521 l 806 299 b 431 -21 806 118 660 -21 m 431 188 b 528 299 486 188 528 229 l 528 340 b 431 451 528 410 486 451 b 333 340 375 451 333 410 l 333 299 b 431 188 333 229 375 188 "},"в":{"ha":806,"x_min":0,"x_max":0,"o":"m 208 0 b 69 125 125 0 69 56 l 69 597 b 208 722 69 665 125 722 l 410 722 b 743 521 646 722 743 625 b 618 389 743 417 618 389 l 618 375 b 785 201 618 375 785 347 b 451 0 785 104 681 0 l 208 0 m 451 188 b 500 229 479 188 500 208 b 451 271 500 250 479 271 l 347 271 l 347 188 m 410 451 b 458 493 438 451 458 472 b 411 535 458 514 438 535 l 347 535 l 347 451 "},"г":{"ha":694,"x_min":0,"x_max":0,"o":"m 208 -7 b 69 118 125 -7 69 49 b 69 597 69 479 69 597 b 208 722 69 665 125 722 l 556 722 b 694 597 639 722 694 667 b 556 472 694 528 639 472 l 347 472 l 347 118 b 208 -7 347 49 292 -7 "},"д":{"ha":924,"x_min":0,"x_max":0,"o":"m 125 -167 b -14 -42 42 -167 -14 -111 l -14 139 b 97 236 -14 194 28 236 b 153 375 97 236 153 292 l 153 597 b 292 722 153 667 208 722 l 660 722 b 799 597 743 722 799 667 l 799 236 l 799 236 b 910 139 868 236 910 194 l 910 -42 b 771 -167 910 -111 854 -167 b 632 -42 688 -167 632 -111 l 632 0 l 264 0 l 264 -42 b 125 -167 264 -111 208 -167 m 521 236 l 521 486 l 431 486 l 431 375 b 375 250 431 292 375 250 l 375 236 "},"е":{"ha":799,"x_min":0,"x_max":0,"o":"m 410 -21 b 42 299 188 -21 42 125 l 42 424 b 403 743 42 597 188 743 b 764 424 618 743 764 597 l 764 403 b 625 278 764 333 708 278 l 319 278 b 410 181 319 222 361 181 b 604 250 493 181 507 250 b 729 139 688 250 729 208 b 410 -21 729 76 625 -21 m 486 438 b 403 521 486 486 451 521 b 319 438 354 521 319 486 "},"ж":{"ha":1125,"x_min":0,"x_max":0,"o":"m 132 -7 b 0 104 49 -7 0 42 b 42 201 0 153 42 201 l 188 389 l 76 486 b 21 604 76 486 21 535 b 139 722 21 674 69 722 b 271 660 215 722 271 660 l 424 521 l 424 604 b 563 729 424 672 479 729 b 701 604 646 729 701 674 l 701 521 l 854 660 b 986 722 854 660 910 722 b 1104 604 1056 722 1104 674 b 1049 486 1104 535 1049 486 l 938 389 l 1083 201 b 1125 104 1083 201 1125 153 b 993 -7 1125 42 1076 -7 b 875 49 917 -7 875 49 l 729 236 l 701 208 l 701 118 b 563 -7 701 49 646 -7 b 424 118 479 -7 424 49 l 424 208 l 396 236 l 250 49 b 132 -7 250 49 208 -7 "},"з":{"ha":722,"x_min":0,"x_max":0,"o":"m 333 -21 b 14 153 118 -21 14 83 b 139 257 14 215 56 257 b 333 181 236 257 250 181 b 403 222 382 181 403 201 b 333 264 403 243 382 264 l 306 264 b 194 361 236 264 194 306 b 306 458 194 417 236 458 l 326 458 b 382 500 361 458 382 479 b 326 542 382 521 361 542 b 153 465 264 542 250 465 b 28 569 69 465 28 507 b 326 743 28 639 132 743 b 674 549 569 743 674 639 b 535 389 674 417 535 389 l 535 375 b 694 199 535 375 694 347 b 333 -21 694 90 583 -21 "},"и":{"ha":875,"x_min":0,"x_max":0,"o":"m 208 -7 b 69 118 125 -7 69 49 l 69 604 b 208 729 69 672 125 729 b 347 604 292 729 347 674 l 347 424 l 361 424 l 493 604 b 667 729 542 674 597 729 b 806 604 750 729 806 674 l 806 118 b 667 -7 806 49 750 -7 b 528 118 583 -7 528 49 l 528 299 l 514 299 l 382 118 b 208 -7 333 49 278 -7 "},"й":{"ha":875,"x_min":0,"x_max":0,"o":"m 208 -7 b 69 118 125 -7 69 49 l 69 604 b 208 729 69 672 125 729 b 347 604 292 729 347 674 l 347 424 l 361 424 l 493 604 b 667 729 542 674 597 729 b 806 604 750 729 806 674 l 806 118 b 667 -7 806 49 750 -7 b 528 118 583 -7 528 49 l 528 299 l 514 299 l 382 118 b 208 -7 333 49 278 -7 m 444 778 b 188 958 285 778 188 875 b 285 1056 188 1014 229 1056 b 444 979 375 1056 361 979 b 604 1056 528 979 514 1056 b 701 958 660 1056 701 1014 b 444 778 701 875 604 778 "},"к":{"ha":792,"x_min":0,"x_max":0,"o":"m 208 -7 b 69 118 125 -7 69 49 l 69 604 b 208 729 69 672 125 729 b 347 604 292 729 347 674 l 347 507 l 514 660 b 646 722 514 660 569 722 b 764 604 715 722 764 674 b 708 486 764 535 708 486 l 597 389 l 750 201 b 792 104 750 201 792 153 b 660 -7 792 42 743 -7 b 542 49 583 -7 542 49 l 389 236 l 347 194 l 347 118 b 208 -7 347 49 292 -7 "},"л":{"ha":868,"x_min":0,"x_max":0,"o":"m 97 -21 b -14 90 35 -21 -14 28 b 139 375 -14 222 139 153 l 139 597 b 278 722 139 667 194 722 l 660 722 b 799 597 743 722 799 667 l 799 118 b 660 -7 799 49 743 -7 b 521 118 576 -7 521 49 l 521 486 l 417 486 l 417 375 b 97 -21 417 132 264 -21 "},"м":{"ha":1083,"x_min":0,"x_max":0,"o":"m 153 -7 b 28 118 76 -7 28 42 b 35 194 28 153 35 194 l 104 597 b 278 729 117 674 174 729 b 458 597 375 729 431 674 l 535 403 l 549 403 l 625 597 b 806 729 653 674 708 729 b 979 597 910 729 967 674 l 1049 194 b 1056 118 1049 194 1056 153 b 931 -7 1056 42 1007 -7 b 785 118 847 -7 800 42 l 743 319 l 729 319 l 667 160 b 542 69 646 104 611 69 b 417 160 472 69 438 104 l 354 319 l 340 319 l 299 118 b 153 -7 283 42 236 -7 "},"н":{"ha":861,"x_min":0,"x_max":0,"o":"m 208 -7 b 69 118 125 -7 69 49 l 69 604 b 208 729 69 672 125 729 b 347 604 292 729 347 674 l 347 458 l 514 458 l 514 604 b 653 729 514 674 569 729 b 792 604 736 729 792 674 l 792 118 b 653 -7 792 49 736 -7 b 514 118 569 -7 514 49 l 514 229 l 347 229 l 347 118 b 208 -7 347 49 292 -7 "},"о":{"ha":819,"x_min":0,"x_max":0,"o":"m 410 -21 b 42 299 188 -21 42 125 l 42 424 b 410 743 42 597 188 743 b 778 424 632 743 778 597 l 778 299 b 410 -21 778 125 632 -21 m 410 194 b 500 299 458 194 500 236 l 500 424 b 410 528 500 486 458 528 b 319 424 361 528 319 486 l 319 299 b 410 194 319 236 361 194 "},"п":{"ha":861,"x_min":0,"x_max":0,"o":"m 208 -7 b 69 118 125 -7 69 49 l 69 597 b 208 722 69 667 125 722 l 653 722 b 792 597 736 722 792 667 l 792 118 b 653 -7 792 49 736 -7 b 514 118 569 -7 514 49 l 514 493 l 347 493 l 347 118 b 208 -7 347 49 292 -7 "},"р":{"ha":847,"x_min":0,"x_max":0,"o":"m 208 -306 b 69 -181 125 -306 69 -250 l 69 604 b 208 729 69 674 125 729 b 333 660 306 729 333 660 l 347 660 b 521 743 347 660 403 743 b 806 424 674 743 806 611 l 806 299 b 521 -21 806 111 674 -21 b 361 14 403 -21 361 14 l 347 14 l 347 -181 b 208 -306 347 -250 292 -306 m 438 194 b 528 299 486 194 528 236 l 528 424 b 438 528 528 486 486 528 b 347 424 389 528 347 486 l 347 299 b 438 194 347 236 389 194 "},"с":{"ha":750,"x_min":0,"x_max":0,"o":"m 410 -21 b 42 299 188 -21 42 125 l 42 424 b 410 743 42 597 188 743 b 715 549 604 743 715 631 b 590 438 715 479 674 438 b 410 514 493 438 479 514 b 319 424 361 514 319 472 l 319 299 b 410 208 319 250 361 208 b 604 285 493 208 507 285 b 729 174 688 285 729 243 b 410 -21 729 90 618 -21 "},"т":{"ha":750,"x_min":0,"x_max":0,"o":"m 375 -7 b 236 118 292 -7 236 49 l 236 472 l 139 472 b 0 597 56 472 0 528 b 139 722 0 667 56 722 l 611 722 b 750 597 694 722 750 667 b 611 472 750 526 694 472 l 514 472 l 514 118 b 375 -7 514 49 458 -7 "},"у":{"ha":771,"x_min":0,"x_max":0,"o":"m 271 -306 b 146 -187 194 -306 146 -257 b 174 -90 146 -146 174 -90 l 243 69 l 28 514 b 0 611 28 514 0 569 b 125 729 0 681 49 729 b 285 611 208 729 257 681 l 382 375 l 396 375 l 486 611 b 646 729 514 681 563 729 b 771 611 722 729 771 681 b 743 514 771 569 743 514 l 431 -187 b 271 -306 396 -264 354 -306 "},"ф":{"ha":1194,"x_min":0,"x_max":0,"o":"m 597 -306 b 458 -181 514 -306 458 -250 l 458 7 l 444 7 b 326 -14 444 7 403 -14 b 42 299 167 -14 42 111 l 42 424 b 326 736 42 611 167 736 b 444 715 403 736 444 715 l 458 715 l 458 875 b 597 1000 458 944 514 1000 b 736 875 681 1000 736 944 l 736 715 l 750 715 b 868 736 750 715 792 736 b 1153 424 1028 736 1153 611 l 1153 299 b 868 -14 1153 111 1028 -14 b 750 7 792 -14 750 7 l 736 7 l 736 -181 b 597 -306 736 -250 681 -306 m 396 201 b 458 215 431 201 458 215 l 458 507 b 396 521 458 507 431 521 b 319 424 354 521 319 486 l 319 299 b 396 201 319 236 354 201 m 799 201 b 875 299 840 201 875 236 l 875 424 b 799 521 875 486 840 521 b 736 507 764 521 736 507 l 736 215 b 799 201 736 215 764 201 "},"х":{"ha":750,"x_min":0,"x_max":0,"o":"m 139 -7 b 14 118 69 -7 14 49 b 49 215 14 181 49 215 l 194 368 l 76 507 b 28 604 76 507 28 556 b 160 729 28 674 83 729 b 278 674 236 729 278 674 l 368 569 l 382 569 l 472 674 b 590 729 472 674 514 729 b 722 604 667 729 722 674 b 674 507 722 556 674 507 l 556 368 l 701 215 b 736 118 701 215 736 181 b 611 -7 736 49 681 -7 b 500 49 542 -7 500 49 l 382 181 l 368 181 l 250 49 b 139 -7 250 49 208 -7 "},"ц":{"ha":903,"x_min":0,"x_max":0,"o":"m 750 -167 b 611 -42 667 -167 611 -111 l 611 0 l 208 0 b 69 125 125 0 69 56 l 69 604 b 208 729 69 674 125 729 b 347 604 292 729 347 674 l 347 236 l 500 236 l 500 604 b 639 729 500 674 556 729 b 778 604 722 729 778 674 l 778 236 l 778 236 b 889 139 847 236 889 194 l 889 -42 b 750 -167 889 -111 833 -167 "},"ч":{"ha":819,"x_min":0,"x_max":0,"o":"m 611 -7 b 472 118 528 -7 472 49 l 472 208 b 333 194 472 208 403 194 b 42 486 153 194 42 306 l 42 604 b 181 729 42 672 97 729 b 319 604 264 729 319 674 l 319 486 b 389 417 319 444 347 417 b 472 431 431 417 472 431 l 472 604 b 611 729 472 674 528 729 b 750 604 694 729 750 674 l 750 118 b 611 -7 750 49 694 -7 "},"ш":{"ha":1222,"x_min":0,"x_max":0,"o":"m 208 0 b 69 125 125 0 69 56 l 69 604 b 208 729 69 674 125 729 b 347 604 292 729 347 674 l 347 236 l 472 236 l 472 604 b 611 729 472 674 528 729 b 750 604 694 729 750 674 l 750 236 l 875 236 l 875 604 b 1014 729 875 674 931 729 b 1153 604 1097 729 1153 674 l 1153 125 b 1014 0 1153 56 1097 0 l 208 0 "},"щ":{"ha":1278,"x_min":0,"x_max":0,"o":"m 1125 -167 b 986 -42 1042 -167 986 -111 l 986 0 l 208 0 b 69 125 125 0 69 56 l 69 604 b 208 729 69 674 125 729 b 347 604 292 729 347 674 l 347 236 l 472 236 l 472 604 b 611 729 472 674 528 729 b 750 604 694 729 750 674 l 750 236 l 875 236 l 875 604 b 1014 729 875 674 931 729 b 1153 604 1097 729 1153 674 l 1153 236 l 1153 236 b 1264 139 1222 236 1264 194 l 1264 -42 b 1125 -167 1264 -111 1208 -167 "},"ъ":{"ha":882,"x_min":0,"x_max":0,"o":"m 319 0 b 181 125 236 0 181 56 l 181 472 l 125 472 b -14 597 42 472 -14 528 b 125 722 -14 667 42 722 l 319 722 b 458 597 403 722 458 665 l 458 500 l 514 500 b 861 250 743 500 861 382 b 514 0 861 118 743 0 l 319 0 m 514 194 b 576 250 549 194 576 222 b 514 306 576 278 549 306 l 458 306 l 458 194 "},"ы":{"ha":1146,"x_min":0,"x_max":0,"o":"m 208 0 b 69 125 125 0 69 56 l 69 604 b 208 729 69 674 125 729 b 347 604 292 729 347 674 l 347 500 l 389 500 b 736 250 618 500 736 382 b 389 0 736 118 618 0 l 208 0 m 389 194 b 451 250 424 194 451 222 b 389 306 451 278 424 306 l 347 306 l 347 194 m 938 -7 b 799 118 854 -7 799 49 l 799 604 b 938 729 799 672 854 729 b 1076 604 1021 729 1076 674 l 1076 118 b 938 -7 1076 49 1021 -7 "},"ь":{"ha":771,"x_min":0,"x_max":0,"o":"m 208 0 b 69 125 125 0 69 56 l 69 604 b 208 729 69 674 125 729 b 347 604 292 729 347 674 l 347 500 l 403 500 b 750 250 632 500 750 382 b 403 0 750 118 632 0 l 208 0 m 403 194 b 465 250 438 194 465 222 b 403 306 465 278 438 306 l 347 306 l 347 194 "},"э":{"ha":750,"x_min":0,"x_max":0,"o":"m 340 -21 b 21 167 125 -21 21 83 b 146 278 21 236 63 278 b 340 201 243 278 257 201 b 438 257 396 201 424 229 l 340 257 b 222 361 264 257 222 299 b 340 465 222 424 264 465 l 438 465 b 340 521 424 493 396 521 b 160 444 271 521 257 444 b 35 556 76 444 35 486 b 340 743 35 639 139 743 b 708 424 563 743 708 597 l 708 299 b 340 -21 708 125 563 -21 "},"ю":{"ha":1160,"x_min":0,"x_max":0,"o":"m 771 -21 b 424 236 569 -21 444 104 l 347 236 l 347 118 b 208 -7 347 49 292 -7 b 69 118 125 -7 69 49 l 69 604 b 208 729 69 672 125 729 b 347 604 292 729 347 674 l 347 458 l 424 458 b 771 743 444 618 569 743 b 1118 438 979 743 1118 604 l 1118 285 b 771 -21 1118 118 979 -21 m 771 194 b 840 285 806 194 840 229 l 840 438 b 771 528 840 493 806 528 b 701 438 736 528 701 493 l 701 285 b 771 194 701 229 736 194 "},"я":{"ha":813,"x_min":0,"x_max":0,"o":"m 153 -7 b 21 104 69 -7 21 42 b 63 201 21 160 63 201 l 146 292 l 146 306 b 49 479 146 306 49 347 b 382 722 49 604 167 722 l 604 722 b 743 596 688 722 743 667 l 743 118 b 604 -7 743 49 688 -7 b 465 118 521 -7 465 49 l 465 236 l 424 236 l 271 49 b 153 -7 271 49 229 -7 m 465 431 l 465 528 l 382 528 b 333 479 354 528 333 507 b 382 431 333 451 354 431 "},"ё":{"ha":799,"x_min":0,"x_max":0,"o":"m 243 813 b 104 938 160 813 104 868 b 243 1063 104 1007 160 1063 b 382 938 326 1063 382 1007 b 243 813 382 868 326 813 m 569 813 b 431 938 486 813 431 868 b 569 1063 431 1007 486 1063 b 708 938 653 1063 708 1007 b 569 813 708 868 653 813 m 410 -21 b 42 299 188 -21 42 125 l 42 424 b 403 743 42 597 188 743 b 764 424 618 743 764 597 l 764 403 b 625 278 764 333 708 278 l 319 278 b 410 181 319 222 361 181 b 604 250 493 181 507 250 b 729 139 688 250 729 208 b 410 -21 729 76 625 -21 m 486 438 b 403 521 486 486 451 521 b 319 438 354 521 319 486 "},"ђ":{"ha":854,"x_min":0,"x_max":0,"o":"m 535 -56 b 424 56 472 -56 424 -7 b 542 264 424 167 542 125 l 542 326 b 458 424 542 382 500 424 b 375 326 417 424 375 382 l 375 118 b 236 -7 375 49 319 -7 b 97 118 153 -7 97 49 l 97 667 b 0 785 97 667 0 694 b 97 903 0 875 97 903 b 236 1028 97 972 153 1028 b 375 903 319 1028 375 972 l 451 903 b 583 785 528 903 583 847 b 451 667 583 722 528 667 l 375 667 l 375 576 l 389 576 b 542 646 389 576 444 646 b 819 326 694 646 819 521 l 819 264 b 535 -56 819 90 688 -56 "},"ѓ":{"ha":694,"x_min":0,"x_max":0,"o":"m 208 -7 b 69 118 125 -7 69 49 b 69 597 69 479 69 597 b 208 722 69 665 125 722 l 556 722 b 694 597 639 722 694 667 b 556 472 694 528 639 472 l 347 472 l 347 118 b 208 -7 347 49 292 -7 m 375 806 b 285 889 319 806 285 840 b 292 944 285 917 292 944 l 313 1042 b 465 1153 326 1104 375 1153 b 576 1056 528 1153 576 1104 b 556 986 576 1014 556 986 l 500 889 b 375 806 472 840 438 806 "},"є":{"ha":750,"x_min":0,"x_max":0,"o":"m 410 -21 b 42 299 188 -21 42 125 l 42 424 b 410 743 42 597 188 743 b 715 556 611 743 715 639 b 590 444 715 486 674 444 b 410 521 493 444 479 521 b 313 465 354 521 326 493 l 410 465 b 528 361 486 465 528 424 b 410 257 528 299 486 257 l 313 257 b 410 201 326 229 354 201 b 604 278 493 201 507 278 b 729 167 688 278 729 236 b 410 -21 729 83 625 -21 "},"ѕ":{"ha":708,"x_min":0,"x_max":0,"o":"m 333 -21 b 14 153 118 -21 14 83 b 139 257 14 215 56 257 b 333 181 236 257 250 181 b 403 222 382 181 403 201 b 35 500 403 292 35 250 b 382 743 35 639 139 743 b 681 569 576 743 681 639 b 556 465 681 507 639 465 b 382 542 458 465 444 542 b 326 500 347 542 326 521 b 694 222 326 431 694 472 b 333 -21 694 90 583 -21 "},"і":{"ha":417,"x_min":0,"x_max":0,"o":"m 208 -7 b 69 118 125 -7 69 49 l 69 576 b 208 701 69 646 125 701 b 347 576 292 701 347 646 l 347 118 b 208 -7 347 49 292 -7 m 208 764 b 63 896 125 764 63 826 b 208 1028 63 965 125 1028 b 354 896 292 1028 354 965 b 208 764 354 826 292 764 "},"ї":{"ha":472,"x_min":0,"x_max":0,"o":"m 236 -7 b 97 118 153 -7 97 49 l 97 576 b 236 701 97 646 153 701 b 375 576 319 701 375 646 l 375 118 b 236 -7 375 49 319 -7 m 69 799 b -69 924 -14 799 -69 854 b 69 1049 -69 993 -14 1049 b 208 924 153 1049 208 993 b 69 799 208 854 153 799 m 403 799 b 264 924 319 799 264 854 b 403 1049 264 993 319 1049 b 542 924 486 1049 542 993 b 403 799 542 854 486 799 "},"ј":{"ha":424,"x_min":0,"x_max":0,"o":"m -28 -306 b -139 -194 -90 -306 -139 -257 b 76 97 -139 -42 76 -111 l 76 576 b 215 701 76 646 132 701 b 354 576 299 701 354 646 l 354 97 b -28 -306 354 -139 188 -306 m 215 764 b 69 896 132 764 69 826 b 215 1028 69 965 132 1028 b 361 896 299 1028 361 965 b 215 764 361 826 299 764 "},"љ":{"ha":1203,"x_min":0,"x_max":0,"o":"m 97 -21 b -14 90 35 -21 -14 28 b 139 375 -14 222 139 153 l 139 597 b 278 722 139 667 194 722 l 639 722 b 778 597 722 722 778 667 l 778 500 l 835 500 b 1182 250 1064 500 1182 382 b 835 0 1182 118 1064 0 l 639 0 b 500 125 556 0 500 56 l 500 486 l 417 486 l 417 375 b 97 -21 417 132 264 -21 m 835 194 b 897 250 869 194 897 222 b 835 306 897 278 869 306 l 778 306 l 778 194 "},"њ":{"ha":1194,"x_min":0,"x_max":0,"o":"m 208 -7 b 69 118 125 -7 69 49 l 69 604 b 208 729 69 672 125 729 b 347 604 292 729 347 674 l 347 486 l 493 486 l 493 604 b 632 729 493 674 549 729 b 771 604 715 729 771 674 l 771 486 l 833 486 b 1174 243 1056 486 1174 368 b 833 0 1174 118 1056 0 l 632 0 b 493 125 549 0 493 56 l 493 271 l 347 271 l 347 118 b 208 -7 347 49 292 -7 m 833 194 b 889 243 868 194 889 215 b 833 292 889 271 868 292 l 771 292 l 771 194 "},"ћ":{"ha":882,"x_min":0,"x_max":0,"o":"m 243 -7 b 104 118 160 -7 104 49 l 104 667 b 7 785 104 667 7 694 b 104 903 7 875 104 903 b 243 1028 104 972 160 1028 b 382 903 326 1028 382 972 l 458 903 b 590 785 535 903 590 847 b 458 667 590 722 535 667 l 382 667 l 382 576 l 396 576 b 549 646 396 576 451 646 b 826 326 701 646 826 521 l 826 118 b 688 -7 826 49 771 -7 b 549 118 604 -7 549 49 l 549 326 b 465 424 549 382 507 424 b 382 326 424 424 382 382 l 382 118 b 243 -7 382 49 326 -7 "},"ќ":{"ha":792,"x_min":0,"x_max":0,"o":"m 417 764 b 326 847 361 764 326 799 b 333 903 326 875 333 903 l 354 1000 b 507 1111 368 1063 417 1111 b 618 1014 569 1111 618 1063 b 597 944 618 972 597 944 l 542 847 b 417 764 514 799 479 764 m 208 -7 b 69 118 125 -7 69 49 l 69 604 b 208 729 69 672 125 729 b 347 604 292 729 347 674 l 347 507 l 514 660 b 646 722 514 660 569 722 b 764 604 715 722 764 674 b 708 486 764 535 708 486 l 597 389 l 750 201 b 792 104 750 201 792 153 b 660 -7 792 42 743 -7 b 542 49 583 -7 542 49 l 389 236 l 347 194 l 347 118 b 208 -7 347 49 292 -7 "},"ў":{"ha":771,"x_min":0,"x_max":0,"o":"m 382 778 b 125 958 222 778 125 875 b 222 1056 125 1014 167 1056 b 382 979 313 1056 299 979 b 542 1056 465 979 451 1056 b 639 958 597 1056 639 1014 b 382 778 639 875 542 778 m 271 -306 b 146 -187 194 -306 146 -257 b 174 -90 146 -146 174 -90 l 243 69 l 28 514 b 0 611 28 514 0 569 b 125 729 0 681 49 729 b 285 611 208 729 257 681 l 382 375 l 396 375 l 486 611 b 646 729 514 681 563 729 b 771 611 722 729 771 681 b 743 514 771 569 743 514 l 431 -187 b 271 -306 396 -264 354 -306 "},"џ":{"ha":861,"x_min":0,"x_max":0,"o":"m 431 -167 b 292 -42 347 -167 292 -111 l 292 0 l 208 0 b 69 125 125 0 69 56 l 69 604 b 208 729 69 674 125 729 b 347 604 292 729 347 674 l 347 229 l 514 229 l 514 604 b 653 729 514 674 569 729 b 792 604 736 729 792 674 l 792 125 b 653 0 792 56 736 0 l 569 0 l 569 -42 b 431 -167 569 -111 514 -167 "},"Ґ":{"ha":868,"x_min":0,"x_max":0,"o":"m 243 -14 b 90 125 146 -14 90 42 l 90 833 b 243 972 90 917 146 972 l 563 972 l 563 986 b 715 1125 563 1069 618 1125 b 868 986 813 1125 868 1069 l 868 833 b 715 694 868 750 813 694 l 396 694 l 396 125 b 243 -14 396 42 340 -14 "},"ґ":{"ha":694,"x_min":0,"x_max":0,"o":"m 208 -7 b 69 118 125 -7 69 49 b 69 597 69 479 69 597 b 208 722 69 665 125 722 l 417 722 l 417 736 b 556 861 417 806 472 861 b 694 736 639 861 694 806 b 694 597 694 667 694 597 b 556 472 694 528 639 472 l 347 472 l 347 118 b 208 -7 347 49 292 -7 "},"ẞ":{"ha":979,"x_min":0,"x_max":0,"o":"m 222 -14 b 69 125 125 -14 69 42 l 69 604 b 472 972 69 819 222 972 l 688 972 b 840 833 785 972 840 917 b 806 694 840 757 806 694 l 722 553 l 722 542 b 958 271 722 542 958 500 b 556 -14 958 118 826 -14 b 458 97 500 -14 458 28 b 556 208 458 167 500 208 b 639 278 611 208 639 236 b 556 347 639 319 611 347 l 556 347 b 431 465 479 347 431 396 b 458 569 431 528 458 569 l 514 681 l 514 694 l 472 694 b 375 604 417 694 375 653 l 375 125 b 222 -14 375 42 319 -14 "},"–":{"ha":903,"x_min":0,"x_max":0,"o":"m 153 319 b 14 444 69 319 14 375 b 153 569 14 514 69 569 l 750 569 b 889 444 833 569 889 514 b 750 319 889 375 833 319 l 153 319 "},"—":{"ha":1250,"x_min":0,"x_max":0,"o":"m 153 319 b 14 444 69 319 14 375 b 153 569 14 514 69 569 l 1097 569 b 1236 444 1181 569 1236 514 b 1097 319 1236 375 1181 319 l 153 319 "},"‘":{"ha":354,"x_min":0,"x_max":0,"o":"m 181 543 b 28 731 97 543 28 613 b 278 988 28 869 146 988 b 333 939 313 988 333 967 b 222 821 333 876 236 890 b 340 689 285 821 340 765 b 181 543 340 606 278 543 "},"’":{"ha":354,"x_min":0,"x_max":0,"o":"m 76 543 b 21 592 42 543 21 564 b 132 710 21 654 118 640 b 14 842 69 710 14 765 b 174 988 14 925 76 988 b 326 800 257 988 326 918 b 76 543 326 661 208 543 "},"‚":{"ha":354,"x_min":0,"x_max":0,"o":"m 76 -167 b 21 -118 42 -167 21 -146 b 132 0 21 -56 118 -69 b 14 132 69 0 14 56 b 174 278 14 215 76 278 b 326 90 257 278 326 208 b 76 -167 326 -49 208 -167 "},"“":{"ha":701,"x_min":0,"x_max":0,"o":"m 181 543 b 28 731 97 543 28 613 b 278 988 28 869 146 988 b 333 939 313 988 333 967 b 222 821 333 876 236 890 b 340 689 285 821 340 765 b 181 543 340 606 278 543 m 528 543 b 375 731 444 543 375 613 b 625 988 375 869 493 988 b 681 939 660 988 681 967 b 569 821 681 876 583 890 b 688 689 632 821 688 765 b 528 543 688 606 625 543 "},"”":{"ha":701,"x_min":0,"x_max":0,"o":"m 76 543 b 21 592 42 543 21 564 b 132 710 21 654 118 640 b 14 842 69 710 14 765 b 174 988 14 925 76 988 b 326 800 257 988 326 918 b 76 543 326 661 208 543 m 424 543 b 368 592 389 543 368 564 b 479 710 368 654 465 640 b 361 842 417 710 361 765 b 521 988 361 925 424 988 b 674 800 604 988 674 918 b 424 543 674 661 556 543 "},"„":{"ha":701,"x_min":0,"x_max":0,"o":"m 76 -167 b 21 -118 42 -167 21 -146 b 132 0 21 -56 118 -69 b 14 132 69 0 14 56 b 174 278 14 215 76 278 b 326 90 257 278 326 208 b 76 -167 326 -49 208 -167 m 424 -167 b 368 -118 389 -167 368 -146 b 479 0 368 -56 465 -69 b 361 132 417 0 361 56 b 521 278 361 215 424 278 b 674 90 604 278 674 208 b 424 -167 674 -49 556 -167 "},"†":{"ha":861,"x_min":0,"x_max":0,"o":"m 424 -83 b 271 56 326 -83 271 -28 l 271 500 l 167 500 b 28 625 83 500 28 556 b 167 750 28 694 83 750 l 271 750 l 271 917 b 424 1056 271 1000 326 1056 b 576 917 521 1056 576 1000 l 576 750 l 694 750 b 833 625 778 750 833 694 b 694 500 833 556 778 500 l 576 500 l 576 56 b 424 -83 576 -28 521 -83 "},"‡":{"ha":889,"x_min":0,"x_max":0,"o":"m 438 -83 b 285 56 340 -83 285 -28 l 285 167 l 181 167 b 42 292 97 167 42 222 b 181 417 42 361 97 417 l 285 417 l 285 556 l 181 556 b 42 681 97 556 42 611 b 181 806 42 750 97 806 l 285 806 l 285 917 b 438 1056 285 1000 340 1056 b 590 917 535 1056 590 1000 l 590 806 l 708 806 b 847 681 792 806 847 750 b 708 556 847 611 792 556 l 590 556 l 590 417 l 708 417 b 847 292 792 417 847 361 b 708 167 847 222 792 167 l 590 167 l 590 56 b 438 -83 590 -28 535 -83 "},"•":{"ha":611,"x_min":0,"x_max":0,"o":"m 306 257 b 104 444 194 257 104 347 b 306 632 104 542 194 632 b 507 444 417 632 507 542 b 306 257 507 347 417 257 "},"…":{"ha":1236,"x_min":0,"x_max":0,"o":"m 188 -14 b 28 132 90 -14 28 49 b 188 278 28 215 90 278 b 347 132 285 278 347 215 b 188 -14 347 49 285 -14 m 618 -14 b 458 132 521 -14 458 49 b 618 278 458 215 521 278 b 778 132 715 278 778 215 b 618 -14 778 49 715 -14 m 1049 -14 b 889 132 951 -14 889 49 b 1049 278 889 215 951 278 b 1208 132 1146 278 1208 215 b 1049 -14 1208 49 1146 -14 "},"‰":{"ha":1757,"x_min":0,"x_max":0,"o":"m 333 -14 b 222 97 271 -14 222 35 b 257 201 222 153 257 201 l 764 917 b 896 986 764 917 806 986 b 1007 875 958 986 1007 938 b 972 771 1007 819 972 771 l 465 56 b 333 -14 465 56 424 -14 m 951 -14 b 701 201 799 -14 701 83 l 701 264 b 951 479 701 383 799 479 b 1201 264 1104 479 1201 382 l 1201 201 b 951 -14 1201 83 1104 -14 m 951 160 b 993 201 972 160 993 181 l 993 264 b 951 306 993 285 972 306 b 910 264 931 306 910 285 l 910 201 b 951 160 910 181 931 160 m 264 493 b 14 708 111 493 14 590 l 14 771 b 264 986 14 890 111 986 b 514 771 417 986 514 889 l 514 708 b 264 493 514 590 417 493 m 264 667 b 306 708 285 667 306 688 l 306 771 b 264 813 306 792 285 813 b 222 771 243 813 222 792 l 222 708 b 264 667 222 688 243 667 m 1493 -14 b 1243 201 1340 -14 1243 83 l 1243 264 b 1493 479 1243 383 1340 479 b 1743 264 1646 479 1743 382 l 1743 201 b 1493 -14 1743 83 1646 -14 m 1493 160 b 1535 201 1514 160 1535 181 l 1535 264 b 1493 306 1535 285 1514 306 b 1451 264 1472 306 1451 285 l 1451 201 b 1493 160 1451 181 1472 160 "},"‹":{"ha":604,"x_min":0,"x_max":0,"o":"m 444 7 b 285 76 361 7 319 49 l 132 201 b 42 361 82 240 42 285 b 132 521 42 438 82 482 l 285 646 b 444 715 319 674 361 715 b 563 611 514 715 563 667 b 486 479 563 549 521 507 l 347 368 l 347 354 l 486 243 b 563 111 521 215 563 174 b 444 7 563 56 514 7 "},"›":{"ha":604,"x_min":0,"x_max":0,"o":"m 160 7 b 42 111 90 7 42 56 b 118 243 42 174 83 215 l 257 354 l 257 368 l 118 479 b 42 611 83 507 42 549 b 160 715 42 667 90 715 b 319 646 243 715 285 674 l 472 521 b 563 361 522 482 563 438 b 472 201 563 285 522 240 l 319 76 b 160 7 285 49 243 7 "},"⁄":{"ha":813,"x_min":0,"x_max":0,"o":"m 125 -28 b 14 83 63 -28 14 21 b 49 188 14 139 49 188 l 556 903 b 688 972 556 903 597 972 b 799 861 750 972 799 924 b 764 757 799 806 764 757 l 257 42 b 125 -28 257 42 215 -28 "},"⁴":{"ha":597,"x_min":0,"x_max":0,"o":"m 389 493 b 285 583 326 493 285 535 l 111 583 b 28 660 63 583 28 619 b 63 743 28 708 63 743 l 194 903 b 372 993 240 958 278 993 b 493 903 451 993 493 951 l 493 736 b 569 660 535 736 569 701 b 493 583 569 618 535 583 b 389 493 493 535 451 493 m 299 722 l 299 806 l 292 806 l 229 731 l 229 722 "},"€":{"ha":958,"x_min":0,"x_max":0,"o":"m 556 -28 b 132 285 306 -28 153 125 l 111 285 b 14 375 56 285 14 326 b 111 472 14 431 56 472 l 118 472 l 118 500 l 111 500 b 14 597 56 500 14 542 b 111 688 14 646 56 688 l 132 688 b 549 1000 153 847 306 1000 b 931 778 799 1000 931 868 b 785 660 931 708 882 660 b 549 750 674 660 660 750 b 451 688 472 750 451 688 l 583 688 b 681 597 639 688 681 646 b 583 500 681 542 639 500 l 431 500 l 431 472 l 583 472 b 681 375 639 472 681 431 b 583 285 681 326 639 285 l 451 285 b 556 222 451 285 472 222 b 799 313 674 222 688 313 b 944 194 896 313 944 264 b 556 -28 944 104 813 -28 "},"₴":{"ha":1000,"x_min":0,"x_max":0,"o":"m 514 -28 b 111 210 250 -28 111 99 b 139 307 111 265 139 307 b 42 382 139 307 42 306 b 139 465 42 431 76 465 l 861 465 b 958 382 924 465 958 431 b 861 299 958 333 924 299 l 444 299 b 417 264 444 299 417 285 b 542 208 417 243 451 208 b 764 278 646 208 660 278 b 896 160 847 278 896 229 b 514 -28 896 76 792 -28 m 139 507 b 42 590 76 507 42 542 b 139 674 42 639 76 674 l 556 674 b 583 708 556 674 583 688 b 458 764 583 729 549 764 b 236 694 354 764 340 694 b 104 813 153 694 104 743 b 486 1000 104 896 208 1000 b 889 763 750 1000 889 874 b 861 665 889 707 861 665 b 958 590 861 665 958 667 b 861 507 958 542 924 507 l 139 507 "},"₽":{"ha":0,"x_min":0,"x_max":0,"o":""},"№":{"ha":1611,"x_min":0,"x_max":0,"o":"m 243 -14 b 90 125 146 -14 90 42 l 90 847 b 243 986 90 929 146 986 b 438 847 326 986 375 938 l 674 528 l 688 528 l 688 847 b 840 986 688 931 743 986 b 993 847 938 986 993 931 l 993 125 b 840 -14 993 43 938 -14 b 646 125 757 -14 708 35 l 410 444 l 396 444 l 396 125 b 243 -14 396 42 340 -14 m 1208 208 b 1083 319 1132 208 1083 257 b 1208 431 1083 382 1132 431 l 1431 431 b 1556 319 1507 431 1556 382 b 1431 208 1556 257 1507 208 l 1208 208 m 1319 493 b 1069 708 1167 493 1069 590 l 1069 771 b 1319 986 1069 890 1167 986 b 1569 771 1472 986 1569 889 l 1569 708 b 1319 493 1569 590 1472 493 m 1319 667 b 1361 708 1340 667 1361 688 l 1361 771 b 1319 813 1361 792 1340 813 b 1278 771 1299 813 1278 792 l 1278 708 b 1319 667 1278 688 1299 667 "},"™":{"ha":1306,"x_min":0,"x_max":0,"o":"m 271 472 b 167 563 208 472 167 514 l 167 792 l 97 792 b 0 882 42 792 0 833 b 97 972 0 931 42 972 l 444 972 b 542 882 500 972 542 931 b 444 792 542 833 500 792 l 375 792 l 375 563 b 271 472 375 514 333 472 m 632 472 b 535 563 576 472 535 514 b 543 632 535 597 543 632 l 597 882 b 722 979 611 943 646 979 b 854 882 799 979 831 944 l 899 764 l 907 764 l 951 882 b 1083 979 975 944 1007 979 b 1208 882 1160 979 1194 943 l 1263 632 b 1271 563 1263 632 1271 597 b 1174 472 1271 514 1229 472 b 1069 563 1118 472 1082 507 l 1042 688 l 1035 688 l 994 583 b 903 528 983 556 958 528 b 811 583 847 528 822 556 l 771 688 l 764 688 l 736 563 b 632 472 724 507 688 472 "},"−":{"ha":778,"x_min":0,"x_max":0,"o":"m 153 333 b 14 458 69 333 14 389 b 153 583 14 528 69 583 l 625 583 b 764 458 708 583 764 528 b 625 333 764 389 708 333 l 153 333 "}}}
